{"glyphs":{"0":{"ha":764,"x_min":58,"x_max":763,"o":"m 132 21 q 60 224 60 106 q 92 394 60 299 q 357 672 154 581 q 500 710 438 710 q 530 708 511 710 q 568 690 549 707 q 592 652 588 674 q 588 622 597 631 q 582 625 585 622 q 510 657 561 657 q 349 602 432 657 q 206 464 265 547 q 128 271 147 381 q 122 185 122 236 q 150 75 122 133 q 295 -11 190 -11 q 507 83 400 -11 q 657 294 614 176 q 700 494 700 413 q 635 664 700 604 q 467 722 575 722 q 427 731 435 722 q 434 747 419 739 q 467 754 449 754 q 661 681 588 747 q 761 444 761 596 q 725 271 761 361 q 551 39 665 126 q 315 -49 436 -49 q 132 21 194 -49 z "},"1":{"ha":433,"x_min":-1,"x_max":517,"o":"m 161 -17 l 8 -46 q 0 -36 0 -46 q 26 1 0 -14 q 39 7 33 6 q 117 18 44 8 q 163 21 129 18 q 246 276 179 97 q 376 603 313 454 q 210 464 283 513 q 190 462 190 451 q 207 486 190 472 q 432 732 344 606 q 451 742 442 742 q 498 731 479 742 q 517 711 517 719 q 515 708 517 710 q 215 24 268 221 q 291 25 243 25 q 382 18 339 25 q 397 3 400 14 q 369 -8 393 -8 q 208 -10 222 -8 l 208 -11 q 185 -23 201 -19 q 161 -17 168 -26 z "},"2":{"ha":811,"x_min":81,"x_max":832,"o":"m 533 22 q 547 20 533 22 q 594 18 561 18 q 667 24 628 18 q 753 67 743 35 q 771 83 758 83 q 780 69 783 82 q 772 49 776 56 q 759 34 767 42 q 747 22 751 26 q 731 10 742 18 q 718 0 721 3 q 579 -39 665 -39 q 504 -32 542 -39 q 342 8 467 -25 q 196 49 217 40 q 136 -4 171 19 q 92 -28 101 -28 q 82 -17 82 -28 q 208 93 82 93 q 224 93 215 93 q 722 511 654 347 q 738 567 738 546 q 686 664 738 625 q 590 692 650 692 q 474 679 531 692 q 361 635 414 661 q 276 549 276 590 q 283 524 276 538 q 281 505 289 510 q 264 510 274 500 q 238 565 238 533 q 277 633 238 596 q 375 694 317 671 q 582 740 482 740 q 711 722 653 740 q 831 597 818 689 q 832 585 832 592 q 718 388 832 499 q 269 89 581 256 q 414 53 322 81 q 533 22 506 26 z "},"3":{"ha":779,"x_min":113,"x_max":768,"o":"m 476 424 q 620 467 553 424 q 688 576 688 510 q 648 656 688 622 q 542 690 608 689 q 408 656 476 690 q 339 563 339 622 q 324 544 339 550 q 308 556 308 539 q 382 686 308 639 q 568 733 456 733 q 694 706 640 733 q 767 586 767 665 q 736 494 767 542 q 606 401 694 431 q 696 363 660 399 q 732 268 732 326 q 665 97 732 174 q 503 -17 597 21 q 315 -56 408 -56 q 113 79 114 -56 q 122 125 113 101 q 149 149 132 149 q 161 147 154 149 q 175 122 178 138 q 168 79 168 106 q 219 -2 172 25 q 318 -29 265 -29 q 544 63 436 -28 q 651 274 651 154 q 622 345 651 314 q 533 392 592 376 q 469 383 510 390 q 417 375 428 375 q 372 392 381 375 q 376 422 364 410 q 416 429 388 435 q 476 424 444 424 z "},"4":{"ha":651,"x_min":14,"x_max":710,"o":"m 354 -56 q 328 -67 343 -67 q 307 -58 314 -67 q 307 -50 307 -54 q 389 235 307 10 l 179 256 q 133 258 163 258 q 74 238 103 258 q 33 210 46 217 q 14 211 19 203 q 68 294 14 264 l 313 471 q 589 726 463 581 q 597 738 592 731 q 603 748 601 744 q 610 755 606 751 q 619 758 615 758 q 646 750 633 758 q 670 731 661 743 q 670 700 679 718 q 583 531 661 682 q 467 292 506 379 q 606 319 539 296 q 682 375 672 342 q 698 394 688 393 q 708 385 708 394 q 647 301 708 356 q 440 232 569 232 q 354 -51 374 67 l 354 -56 m 153 315 q 190 317 169 317 q 247 314 211 317 q 339 303 282 311 q 411 294 396 296 q 535 603 490 507 q 153 315 425 493 z "},"5":{"ha":760,"x_min":-4,"x_max":832,"o":"m 642 451 q 680 433 642 451 q 717 326 717 415 q 670 164 717 236 q 552 44 624 92 q 396 -30 481 -3 q 232 -57 311 -57 q -4 100 -4 -57 q 8 154 -4 128 q 39 181 19 181 q 51 178 44 181 q 68 149 75 169 q 61 100 61 128 q 117 6 64 36 q 225 -25 171 -25 q 235 -25 231 -25 q 413 22 324 -24 q 563 150 501 68 q 624 325 624 232 q 597 406 624 374 q 461 454 557 454 q 371 440 413 454 q 278 388 329 426 q 217 347 228 350 q 199 363 197 343 q 214 400 200 376 q 374 646 310 567 q 367 656 372 649 q 361 668 363 664 q 356 680 360 672 q 353 692 353 688 q 356 700 354 696 q 378 715 358 711 q 585 731 444 731 q 813 719 726 731 q 832 704 832 717 q 794 683 832 683 q 432 651 486 683 q 353 535 407 636 q 301 451 322 492 q 460 486 353 486 q 642 451 568 486 z "},"6":{"ha":717,"x_min":82,"x_max":708,"o":"m 550 268 q 515 356 550 324 q 429 389 481 389 q 311 336 375 389 q 297 331 304 331 q 288 336 289 331 q 302 360 286 342 q 361 398 318 379 q 446 417 404 417 q 456 417 450 417 q 574 378 526 417 q 621 271 621 339 q 508 42 621 142 q 299 -43 413 -43 q 156 -1 210 -43 q 89 106 101 40 q 83 174 83 139 q 142 403 83 286 q 313 616 201 521 q 517 732 424 711 q 552 738 535 738 q 595 733 569 738 q 651 714 621 729 q 695 665 682 699 q 708 603 708 631 q 705 556 708 576 q 688 540 701 536 q 675 549 674 543 q 678 589 678 565 q 665 642 678 613 q 625 682 651 671 q 557 699 583 699 q 515 693 531 699 q 358 589 442 676 q 185 264 225 450 q 172 176 172 208 q 172 136 172 144 q 214 33 175 74 q 334 -7 253 -7 q 475 68 415 -7 q 550 268 550 160 z "},"7":{"ha":579,"x_min":136,"x_max":793,"o":"m 211 -8 q 167 -19 196 -19 q 138 -10 138 -19 q 357 290 138 22 q 668 650 576 557 q 400 669 551 669 q 361 669 381 669 q 175 551 204 664 q 157 535 169 526 q 151 549 150 539 q 226 694 172 660 q 381 728 281 728 q 553 716 414 728 q 714 700 692 704 q 763 742 731 731 q 775 743 769 743 q 792 724 792 743 q 776 684 792 704 q 736 653 760 664 q 633 539 725 642 q 458 339 540 436 q 211 -8 314 169 z "},"8":{"ha":682,"x_min":47,"x_max":713,"o":"m 301 565 q 328 503 301 529 q 447 443 356 478 l 461 438 q 599 522 542 478 q 647 577 636 551 q 657 620 657 603 q 649 657 657 638 q 511 725 621 725 q 386 692 447 725 q 301 565 301 646 m 556 232 q 419 367 556 324 q 388 378 397 374 q 207 264 300 335 q 100 108 100 186 q 127 52 100 75 q 199 24 154 29 q 363 35 289 13 q 503 121 451 65 q 556 232 556 176 m 492 426 q 618 269 618 368 q 542 111 618 186 q 381 6 472 43 q 206 -32 289 -32 q 47 71 47 -32 q 92 192 47 128 q 176 278 129 244 q 354 388 293 361 q 264 442 293 410 q 235 526 235 475 q 346 706 235 632 q 551 760 426 760 q 669 733 626 760 q 711 660 711 706 q 492 426 711 533 z "},"9":{"ha":690,"x_min":57,"x_max":683,"o":"m 215 432 q 250 344 215 378 q 339 311 285 311 q 343 311 342 311 q 454 365 389 311 q 469 369 461 371 q 467 344 488 368 q 403 301 446 319 q 319 283 361 283 q 315 283 317 283 q 192 323 240 283 q 144 429 144 363 q 257 658 144 557 q 467 743 353 743 q 610 701 556 743 q 676 594 664 660 q 682 526 682 561 q 623 297 682 415 q 453 82 564 178 q 249 -32 342 -14 q 182 -37 201 -37 q 138 -26 163 -37 q 92 3 113 -15 q 57 103 57 35 q 61 149 57 125 q 78 161 64 164 q 90 151 92 158 q 88 115 88 133 q 94 72 88 96 q 163 8 106 31 q 193 1 182 1 q 218 3 204 1 q 249 6 232 4 q 406 108 324 22 q 581 436 540 251 q 593 524 593 492 q 592 564 593 556 q 551 667 590 626 q 431 707 513 707 q 290 632 350 707 q 218 464 229 557 q 215 432 215 447 z "}," ":{"ha":304,"x_min":0,"x_max":0,"o":""},"!":{"ha":225,"x_min":131,"x_max":514,"o":"m 206 196 q 240 299 206 201 q 356 590 274 397 q 445 790 438 782 q 462 797 453 797 q 492 783 471 797 q 514 741 514 768 q 481 656 514 714 q 465 638 476 647 q 449 617 454 628 q 410 541 444 607 q 363 451 375 475 q 326 375 351 426 q 256 200 279 276 q 228 183 251 186 q 206 196 206 179 m 215 61 l 215 38 q 200 6 215 28 q 176 -17 185 -17 q 131 6 131 -17 q 158 39 131 17 q 206 69 197 69 q 215 61 215 69 z "},"\"":{"ha":356,"x_min":106,"x_max":340,"o":"m 111 617 q 112 621 111 617 q 122 632 113 625 q 159 639 132 639 q 183 614 186 639 q 169 551 182 576 q 152 491 165 533 q 133 428 139 449 q 117 404 128 404 q 107 421 107 404 l 113 560 q 111 590 113 569 q 111 617 110 610 m 313 639 q 340 614 340 639 q 334 576 340 597 q 326 545 328 554 q 310 494 324 536 q 291 428 296 451 q 275 404 286 404 q 264 419 264 404 l 269 503 q 271 560 271 558 l 268 608 q 281 635 268 631 q 313 639 294 639 z "},"#":{"ha":1076,"x_min":19,"x_max":1042,"o":"m 654 221 l 871 218 q 946 199 946 215 q 919 183 946 190 l 919 181 q 639 174 913 179 l 592 28 q 558 -18 579 -18 q 557 -18 558 -18 q 538 5 538 -14 q 585 174 538 24 l 304 171 l 258 33 q 225 -12 246 -12 q 204 13 204 -12 q 250 171 204 29 l 67 167 q 21 189 21 167 q 34 211 21 201 q 265 221 47 221 q 360 492 317 375 q 167 489 171 489 q 157 489 163 489 q 114 510 115 489 q 128 532 114 522 q 376 542 142 542 l 471 803 q 511 868 494 868 q 519 838 521 868 l 521 836 q 426 542 518 814 q 517 543 468 543 l 711 542 q 753 657 732 599 q 788 753 774 715 q 804 796 803 792 q 844 861 829 861 q 853 831 854 861 l 854 831 q 763 542 853 821 l 965 539 q 1040 519 1040 538 q 1014 504 1040 511 l 1014 503 q 746 496 1001 499 l 654 221 m 696 496 l 410 492 l 319 221 l 600 221 q 696 496 629 308 z "},"$":{"ha":606,"x_min":83,"x_max":614,"o":"m 318 68 q 244 58 278 58 q 181 68 210 58 q 144 -10 154 11 q 108 -33 135 -33 q 97 -13 93 -33 q 139 82 100 7 q 85 128 85 108 q 88 137 85 135 q 106 133 90 139 q 158 121 121 126 q 239 275 201 206 q 131 472 131 386 q 190 613 131 557 q 428 700 286 700 q 475 697 451 700 l 481 697 q 508 736 507 735 q 535 750 521 750 q 565 732 579 750 l 553 714 q 533 685 540 696 q 614 590 618 654 q 567 488 613 536 q 465 419 521 440 q 450 417 453 414 q 458 436 443 421 q 576 600 576 549 q 513 653 576 642 q 281 269 385 460 q 329 214 314 232 q 375 122 375 160 q 318 68 374 82 m 228 114 q 325 171 321 114 q 267 246 325 188 q 246 204 260 231 q 222 156 232 178 q 201 115 211 135 q 228 114 215 114 m 169 440 q 253 301 169 393 q 457 657 401 568 q 263 587 357 650 q 169 440 169 524 z "},"%":{"ha":644,"x_min":83,"x_max":628,"o":"m 526 182 q 483 228 526 228 q 418 193 449 228 q 378 133 388 158 q 367 90 369 107 q 364 53 364 72 q 376 23 364 35 q 415 11 388 11 q 471 45 442 11 q 513 118 500 79 q 526 182 526 157 m 400 -18 q 315 72 315 -18 q 315 82 315 76 q 376 203 324 157 q 492 253 428 250 q 552 233 531 253 q 574 181 574 214 q 572 160 574 171 q 514 38 565 92 q 400 -18 460 -18 m 547 736 q 594 750 561 750 q 628 738 628 750 q 625 732 628 735 q 381 396 539 629 q 139 -7 222 163 q 97 -33 125 -33 q 85 -24 85 -33 q 517 693 85 11 q 424 676 467 676 q 347 688 382 676 q 286 525 358 600 q 181 469 233 469 q 109 494 128 469 q 90 539 90 519 q 147 688 90 636 q 255 740 204 739 q 328 719 306 740 q 397 704 365 704 q 547 736 503 704 m 297 635 q 298 644 297 635 q 300 672 300 653 q 290 703 300 692 q 269 715 279 715 q 257 715 258 715 q 194 681 224 715 q 155 620 164 647 q 142 576 146 593 q 139 540 139 560 q 150 509 139 521 q 189 498 161 497 q 245 532 217 499 q 283 592 274 565 q 297 635 293 618 z "},"&":{"ha":968,"x_min":53,"x_max":906,"o":"m 906 536 q 774 400 906 475 q 811 340 796 376 q 826 285 826 304 q 769 128 826 199 q 642 22 711 58 q 311 -61 478 -61 q 193 -43 250 -61 q 103 13 136 -25 q 53 138 53 67 q 117 283 53 217 q 396 376 200 371 q 454 379 440 378 q 325 547 374 447 q 303 640 303 596 q 329 722 303 685 q 436 779 356 760 q 514 790 483 790 q 568 784 544 790 q 625 758 592 778 q 676 715 658 738 q 731 754 708 753 q 761 748 749 758 q 758 722 774 738 q 736 704 754 718 q 657 596 657 640 q 665 569 657 581 q 663 556 672 558 q 646 560 654 553 q 638 612 638 568 q 660 692 638 656 q 590 741 631 724 q 525 758 549 758 q 407 667 421 758 q 404 607 404 643 q 425 508 404 571 q 473 410 446 446 q 497 366 500 375 q 472 354 494 357 q 251 285 358 342 q 156 210 189 254 q 124 122 124 165 q 150 39 124 78 q 226 -17 176 0 q 311 -33 276 -33 q 608 53 481 -33 q 753 256 713 122 q 764 336 764 297 q 756 392 764 375 q 674 347 731 378 q 590 299 617 315 q 496 213 538 267 q 454 134 454 158 q 467 99 454 110 q 483 83 481 89 q 482 74 486 76 q 465 76 478 72 q 429 164 429 89 q 449 243 429 206 q 650 382 476 296 l 746 431 q 878 519 853 483 q 889 546 889 535 q 885 565 889 557 q 888 574 882 574 q 899 565 893 574 q 906 536 906 550 z "},"'":{"ha":201,"x_min":106,"x_max":185,"o":"m 111 617 q 112 621 111 617 q 122 632 113 625 q 158 639 132 639 q 185 615 185 639 q 178 576 185 599 q 168 544 171 554 q 152 491 165 533 q 133 428 139 449 q 117 404 128 404 q 107 421 107 404 l 113 560 q 111 590 113 569 q 111 617 110 610 z "},"(":{"ha":528,"x_min":42,"x_max":654,"o":"m 642 782 q 653 772 653 782 q 628 749 650 758 q 346 578 474 699 q 161 296 218 458 q 121 38 121 176 q 168 -196 121 -100 q 161 -225 175 -210 q 131 -240 147 -240 q 106 -229 114 -240 q 42 43 42 -101 q 113 354 42 199 q 329 628 185 510 q 632 781 474 746 q 642 782 638 782 z "},")":{"ha":718,"x_min":-51,"x_max":560,"o":"m -39 -231 q -50 -222 -50 -231 q -26 -199 -50 -207 q 256 -28 128 -149 q 440 256 383 93 q 482 509 482 367 q 433 747 482 651 q 439 775 426 761 q 471 792 454 792 q 496 781 488 792 q 560 507 560 653 q 494 211 560 351 q 274 -76 418 42 q -29 -229 129 -194 q -39 -231 -35 -231 z "},"*":{"ha":894,"x_min":149,"x_max":731,"o":"m 361 447 q 189 443 258 443 q 149 461 154 443 q 172 492 147 478 q 374 500 189 500 q 293 669 293 631 q 310 697 293 689 q 322 701 317 701 q 356 671 340 701 q 417 528 378 625 q 475 597 440 556 q 530 661 510 638 q 559 697 550 685 q 578 714 568 710 q 593 718 589 718 q 604 702 604 718 q 589 664 604 686 q 465 500 515 564 q 665 500 565 500 q 729 482 729 499 q 711 466 729 475 q 660 454 693 457 q 453 449 626 451 q 503 330 481 371 q 529 281 526 289 q 532 259 532 272 q 519 243 532 246 q 514 242 517 242 q 475 282 497 242 l 469 294 q 456 319 464 304 l 419 389 q 403 421 406 415 q 324 317 343 346 q 300 285 304 289 q 256 256 275 256 q 250 256 253 256 q 231 281 231 263 q 233 290 231 285 q 274 344 235 296 q 361 447 307 378 z "},"+":{"ha":854,"x_min":128,"x_max":765,"o":"m 413 225 q 167 219 207 219 q 128 233 128 219 q 158 267 128 253 q 172 269 165 269 l 433 269 q 525 466 508 435 q 556 497 542 497 q 571 482 571 497 q 563 451 571 471 l 482 271 l 724 271 q 764 253 764 271 q 756 241 764 249 q 721 231 747 233 q 464 225 694 228 l 360 -15 q 324 -42 351 -35 q 315 -42 318 -42 q 307 -4 289 -42 l 413 225 z "},",":{"ha":249,"x_min":47,"x_max":210,"o":"m 210 13 q 149 -87 210 -15 q 54 -185 74 -185 q 47 -174 47 -185 q 86 -126 47 -171 q 137 -42 125 -81 q 139 13 149 -4 q 174 58 115 58 q 199 42 189 58 q 210 13 210 26 z "},"-":{"ha":524,"x_min":199,"x_max":526,"o":"m 244 269 l 450 271 q 526 254 526 271 q 231 219 526 226 q 224 219 226 219 q 199 232 199 219 q 229 265 199 251 q 244 269 238 269 z "},".":{"ha":251,"x_min":131,"x_max":215,"o":"m 215 61 l 215 38 q 200 6 215 28 q 176 -17 185 -17 q 131 6 131 -17 q 158 39 131 17 q 206 69 197 69 q 215 61 215 69 z "},"/":{"ha":649,"x_min":26,"x_max":631,"o":"m 571 736 q 608 750 586 750 q 629 740 629 750 q 625 732 629 738 q 356 398 533 632 q 82 -7 179 164 q 39 -33 65 -33 q 26 -25 26 -33 q 273 349 26 10 q 571 736 519 688 z "},":":{"ha":224,"x_min":131,"x_max":286,"o":"m 215 57 l 215 38 q 200 6 215 28 q 176 -17 185 -17 q 131 6 131 -17 q 158 39 131 17 q 194 65 186 61 q 207 69 203 68 q 215 57 215 72 m 286 281 l 286 256 q 272 225 286 246 q 249 204 257 204 q 201 226 201 204 q 221 249 201 231 q 249 274 240 267 q 276 289 267 289 q 286 281 286 289 z "},";":{"ha":231,"x_min":47,"x_max":286,"o":"m 210 13 q 149 -87 210 -15 q 54 -185 74 -185 q 47 -174 47 -185 q 86 -126 47 -171 q 137 -42 125 -81 q 139 13 149 -4 q 174 58 115 58 q 199 42 189 58 q 210 13 210 26 m 286 281 l 286 256 q 272 225 286 246 q 249 204 257 204 q 201 226 201 204 q 221 249 201 231 q 249 274 240 267 q 276 289 267 289 q 286 281 286 289 z "},"<":{"ha":526,"x_min":110,"x_max":525,"o":"m 208 304 q 317 92 303 126 q 331 40 331 57 q 317 22 331 22 q 290 46 304 22 q 132 239 222 150 q 110 272 110 260 q 114 289 110 283 q 144 319 118 294 q 250 421 171 343 q 501 650 397 564 q 517 657 510 657 q 524 642 524 657 q 499 597 524 628 q 208 304 417 503 z "},"=":{"ha":749,"x_min":186,"x_max":749,"o":"m 269 367 l 674 368 q 749 351 749 368 q 674 329 749 338 q 257 317 669 329 q 225 332 224 314 q 253 363 226 350 q 269 367 263 367 m 213 117 q 186 131 186 117 q 217 165 186 151 l 231 169 l 635 169 q 710 151 710 169 q 693 138 710 142 q 667 133 676 135 q 439 124 638 129 q 228 117 240 118 q 213 117 215 117 z "},">":{"ha":551,"x_min":113,"x_max":529,"o":"m 429 375 q 307 636 307 601 q 313 654 307 650 q 322 658 319 658 q 349 635 335 658 q 506 442 411 536 q 517 428 513 433 q 529 412 529 415 q 529 403 529 408 q 524 392 529 397 q 517 385 519 388 q 507 376 515 383 q 483 354 499 369 q 408 283 467 339 q 315 193 350 226 q 122 25 139 25 q 114 39 114 25 q 139 82 114 53 q 429 375 200 157 z "},"?":{"ha":656,"x_min":131,"x_max":636,"o":"m 276 681 q 229 622 268 672 q 179 572 190 572 q 169 606 168 572 q 183 678 169 639 q 264 739 207 731 q 315 758 279 740 q 468 793 382 793 l 494 792 q 581 760 543 789 q 636 631 636 717 q 571 475 636 547 q 408 336 503 400 q 274 194 285 249 q 257 182 271 182 q 245 203 243 182 q 272 257 247 225 q 317 308 296 289 q 390 373 338 328 q 470 449 442 418 q 522 532 499 479 q 544 644 544 585 q 518 736 544 703 q 447 769 492 769 q 276 681 371 769 m 215 38 q 200 6 215 28 q 176 -17 185 -17 q 131 6 131 -17 q 175 53 131 17 q 208 69 197 69 q 215 58 215 69 l 215 38 z "},"@":{"ha":1044,"x_min":17,"x_max":1024,"o":"m 683 206 q 710 197 693 197 q 764 224 728 197 q 832 289 800 251 q 938 568 938 418 q 858 728 938 668 q 651 788 779 788 q 382 711 513 788 q 170 507 251 635 q 89 247 89 379 q 169 36 89 115 q 426 -44 253 -44 q 665 15 531 -44 q 864 142 800 74 q 957 266 928 211 q 986 356 986 321 q 973 405 986 390 q 967 426 960 419 q 985 422 975 432 q 1024 336 1024 385 q 925 122 1024 221 q 696 -15 844 39 q 424 -69 547 -69 q 121 23 225 -69 q 17 250 17 115 q 72 469 17 361 q 215 655 126 576 q 419 783 303 733 q 654 832 536 832 q 660 832 657 832 q 899 761 810 832 q 989 570 989 690 q 871 288 989 450 q 675 160 782 160 q 672 160 674 160 q 596 215 614 160 q 592 253 592 232 q 619 394 592 318 q 565 335 614 392 q 454 228 517 279 q 339 178 392 178 q 249 226 286 178 q 228 285 228 257 q 333 461 228 367 q 467 560 399 518 q 569 612 535 601 q 624 622 603 622 q 724 601 693 622 q 750 561 750 581 q 739 554 750 546 q 668 582 722 582 q 545 546 614 582 q 422 460 476 510 q 328 346 367 410 q 290 254 290 282 q 321 203 290 203 q 358 216 332 203 q 411 253 385 229 q 572 404 501 324 q 697 526 682 526 q 737 517 713 526 q 753 492 761 508 q 692 377 715 438 q 666 290 668 317 q 664 253 664 264 q 683 206 664 218 z "},"A":{"ha":1179,"x_min":15,"x_max":1271,"o":"m 968 -35 q 906 3 925 -35 q 886 101 886 42 q 911 263 886 160 q 746 282 863 267 q 425 -50 553 43 q 197 -132 315 -132 q 69 -94 122 -132 q 15 17 15 -57 q 22 42 15 31 q 36 49 29 54 q 43 17 43 43 q 80 -54 43 -31 q 169 -78 117 -78 q 394 -3 283 -78 q 694 288 504 71 q 425 313 490 313 q 207 197 249 313 q 201 169 201 182 q 207 145 201 156 q 209 128 213 135 q 197 123 206 122 q 183 132 189 124 q 168 183 168 158 q 199 310 168 269 q 272 363 231 351 q 389 376 322 376 q 725 324 456 376 q 953 601 800 410 q 1106 794 1106 792 l 1107 794 q 1114 799 1108 796 q 1186 818 1147 818 q 1200 804 1200 818 q 1199 801 1200 803 q 1196 795 1197 799 q 1193 789 1194 792 q 986 292 1060 568 l 982 282 l 1017 281 q 1056 279 1028 279 q 1117 292 1085 279 q 1158 321 1149 306 q 1174 328 1167 336 q 1175 310 1181 319 q 1121 269 1160 282 q 1055 256 1088 256 q 1013 256 1022 256 l 975 257 q 949 65 949 136 q 988 -7 949 -7 q 1104 53 1025 -7 q 1253 207 1183 113 q 1264 210 1257 213 q 1271 203 1271 207 q 1269 192 1271 199 q 1247 161 1267 186 q 1104 14 1189 83 q 968 -35 1043 -35 m 1044 664 q 1048 672 1046 667 q 1051 679 1050 676 q 772 313 878 442 l 918 289 q 1044 664 957 440 z "},"B":{"ha":908,"x_min":21,"x_max":1015,"o":"m 24 471 l 21 493 q 88 608 26 551 q 244 717 150 665 q 544 803 339 768 q 740 821 661 821 q 878 808 818 821 q 976 756 938 794 q 1015 663 1015 717 q 970 563 1015 610 q 857 490 925 515 q 604 436 725 442 q 703 373 664 400 q 786 301 742 346 q 843 225 831 257 q 856 168 856 193 q 793 11 856 86 q 677 -71 751 -40 q 519 -101 603 -101 q 325 24 342 -101 q 322 32 322 26 q 235 -53 269 -53 q 203 -48 225 -53 q 181 -37 182 -43 q 181 -14 181 -32 q 207 73 181 4 q 267 208 233 142 q 396 450 332 333 q 407 488 407 475 q 406 507 407 500 q 473 609 411 546 q 585 672 535 672 q 629 660 601 672 q 663 625 657 647 q 663 613 664 615 q 656 614 663 611 q 647 617 649 617 q 541 551 603 617 q 422 389 479 485 q 253 69 304 194 q 242 26 242 42 q 260 6 242 6 q 308 44 278 6 q 351 81 339 82 q 372 74 364 81 q 382 59 379 67 q 386 38 385 51 q 389 19 388 24 q 529 -79 411 -79 q 535 -79 532 -79 q 699 -35 631 -79 q 774 90 774 15 q 704 246 774 164 q 639 308 682 271 q 544 410 547 388 q 563 447 542 432 q 603 461 585 461 q 789 510 671 461 q 975 667 963 581 q 975 675 975 672 q 953 722 975 700 q 794 763 915 763 q 410 703 629 763 q 175 600 276 667 q 64 443 64 526 q 75 408 64 425 q 101 383 86 390 q 139 366 115 375 q 173 352 163 357 q 180 340 183 347 q 160 336 176 333 q 68 374 114 339 q 22 457 22 410 q 24 471 22 464 z "},"C":{"ha":743,"x_min":28,"x_max":844,"o":"m 775 700 q 693 778 775 778 q 509 711 622 778 q 276 508 396 644 q 110 221 157 371 q 90 110 90 161 q 119 22 90 60 q 288 -46 171 -44 q 303 -46 296 -46 q 582 20 432 -46 q 822 214 732 86 q 837 218 829 224 q 844 208 844 213 q 842 201 844 204 q 589 -10 739 61 q 299 -81 439 -81 q 76 3 151 -81 q 28 144 28 57 q 139 461 28 292 q 506 781 290 692 q 665 814 589 814 q 800 769 760 814 q 826 699 826 739 q 746 542 826 622 q 567 413 665 461 q 397 358 469 365 q 369 374 368 356 q 404 401 371 399 q 608 469 515 411 q 751 622 701 526 q 775 700 775 660 z "},"D":{"ha":1207,"x_min":110,"x_max":1260,"o":"m 113 429 l 110 451 q 194 625 110 549 q 683 792 346 760 q 803 796 735 796 q 978 776 872 796 q 1151 701 1083 756 q 1260 469 1260 613 q 1174 203 1260 325 q 957 15 1089 82 q 675 -51 825 -51 q 432 19 525 -51 q 419 -4 431 18 q 394 -47 407 -26 q 281 -75 331 -149 q 251 28 251 -32 q 264 172 251 88 q 253 211 265 181 q 263 239 249 225 q 294 253 274 247 q 322 253 314 258 q 318 223 329 247 q 307 178 307 199 q 350 116 307 157 q 403 72 393 75 q 544 379 436 154 q 557 417 557 404 q 554 436 557 429 q 642 564 561 476 q 774 651 724 651 q 822 638 793 651 q 856 601 851 625 q 854 592 856 593 q 847 594 853 592 q 839 597 842 597 q 734 533 794 597 q 614 364 674 468 q 444 44 508 183 q 632 -18 531 -18 q 885 50 764 -18 q 1079 207 1006 118 q 1199 494 1199 353 q 1116 681 1199 599 q 854 768 1033 763 q 838 768 846 768 q 539 722 696 768 q 271 589 382 675 q 160 410 160 503 q 174 368 160 386 q 205 343 189 350 q 245 328 221 336 q 277 316 269 319 q 286 308 285 313 q 267 297 289 297 q 163 335 215 301 q 111 415 111 369 q 113 429 111 422 m 300 125 q 326 -62 300 -62 q 382 35 346 -62 q 385 40 385 39 q 344 81 375 49 q 300 125 313 114 z "},"E":{"ha":996,"x_min":33,"x_max":1004,"o":"m 783 711 q 796 708 786 708 q 813 700 806 707 q 837 654 821 693 q 853 590 853 615 q 847 535 853 564 q 826 507 840 507 q 788 562 803 507 q 765 631 772 617 q 682 750 726 713 q 600 788 642 788 q 564 781 582 788 q 475 606 475 743 q 492 501 475 561 q 543 394 508 440 q 617 381 550 386 q 657 356 651 376 q 640 325 663 336 q 544 333 628 310 q 515 340 522 339 q 346 307 440 339 q 172 209 251 275 q 93 64 93 143 q 142 -33 93 4 q 298 -69 190 -69 q 538 -36 406 -69 q 747 36 671 -3 q 896 146 822 75 q 969 268 969 217 q 969 282 969 276 q 971 289 968 288 q 985 288 979 293 q 1003 233 1003 253 q 965 131 1003 176 q 818 6 900 51 q 594 -72 736 -40 q 357 -104 451 -104 q 197 -87 263 -104 q 82 -21 131 -71 q 33 102 33 29 q 69 226 33 175 q 153 304 104 276 q 272 350 203 332 q 501 385 375 378 q 394 622 411 488 q 393 651 393 638 q 417 744 393 701 q 499 804 442 786 q 583 822 556 822 q 624 819 611 822 q 647 812 638 815 q 667 802 657 808 q 683 792 676 796 q 700 778 690 788 q 714 766 710 769 q 729 752 718 763 q 743 740 740 742 q 783 711 764 715 z "},"F":{"ha":736,"x_min":11,"x_max":1032,"o":"m 376 81 q 381 72 381 81 q 361 44 381 64 l 347 24 q 292 -43 310 -33 q 265 -53 275 -53 q 233 -48 254 -53 q 210 -37 211 -43 q 210 -26 210 -32 q 333 281 210 42 q 283 276 300 276 q 253 287 265 276 q 242 314 242 297 q 271 344 242 331 q 316 358 300 358 q 343 345 332 358 q 357 332 354 332 l 361 332 q 414 429 390 385 q 438 487 438 474 q 433 507 438 500 q 502 610 442 547 q 613 672 563 672 q 667 655 635 672 q 694 610 699 638 q 676 617 685 617 q 417 333 582 617 q 513 346 463 338 q 701 367 679 367 q 730 366 724 367 q 741 363 736 365 q 747 357 746 360 q 715 338 749 349 q 389 285 635 311 q 272 25 272 74 q 292 8 272 1 q 328 33 313 14 q 376 81 364 81 m 919 742 q 996 786 960 786 q 1022 778 1013 786 q 1032 761 1032 769 q 1024 744 1032 753 q 992 719 1015 736 q 954 688 968 701 q 888 575 888 622 q 897 540 888 554 q 894 523 906 526 q 874 532 883 519 q 861 588 861 540 q 883 692 861 650 q 892 706 886 696 q 903 721 899 717 q 851 721 893 721 q 683 732 808 721 q 493 743 557 743 q 394 735 429 743 q 167 662 263 717 q 54 524 72 607 q 51 503 51 515 q 59 475 51 492 q 78 449 67 458 q 112 425 89 439 q 142 405 135 411 q 145 394 150 399 q 135 390 140 390 q 125 392 131 390 q 45 444 78 406 q 13 508 13 482 q 19 551 13 533 q 21 574 19 567 q 147 726 42 672 q 456 792 274 792 q 701 768 556 792 q 919 742 847 744 z "},"G":{"ha":1110,"x_min":103,"x_max":1125,"o":"m 468 -4 q 382 -12 425 -12 q 160 78 242 -12 q 103 240 103 142 q 294 629 103 453 q 815 819 508 819 q 967 786 903 819 q 1018 703 1018 758 q 1004 676 1018 679 q 985 697 986 672 q 843 789 979 789 q 692 759 782 789 q 507 674 603 729 q 328 551 411 618 q 191 399 244 483 q 138 229 138 314 q 197 99 138 144 q 342 54 256 54 q 561 88 436 54 q 693 147 631 108 q 789 214 756 185 q 915 331 851 267 q 1025 429 949 415 q 1094 429 1057 435 l 1111 426 q 1124 419 1124 424 q 1106 407 1124 406 q 1103 407 1104 407 q 979 267 1028 407 q 908 65 942 154 q 1006 82 982 82 q 1039 76 1029 82 q 1042 64 1049 71 q 1030 60 1036 57 q 1008 63 1024 63 q 945 51 992 63 q 890 17 899 39 q 554 -472 751 -335 q 396 -533 465 -533 q 346 -525 369 -533 q 282 -431 282 -501 q 369 -246 282 -346 q 832 44 539 -50 q 899 263 868 154 q 468 -4 650 28 m 357 -411 q 361 -442 357 -426 q 431 -496 375 -496 q 603 -386 513 -496 q 822 18 738 -218 q 438 -239 579 -61 q 357 -411 357 -337 z "},"H":{"ha":1043,"x_min":-128,"x_max":1199,"o":"m 819 304 l 475 350 q 65 -190 264 -129 q 1 -203 29 -203 q -126 -115 -103 -203 q -128 -103 -128 -110 q -126 -88 -128 -97 q -117 -82 -124 -79 q -103 -108 -110 -85 q -50 -160 -90 -149 q 3 -165 -19 -165 q 43 -160 26 -165 q 422 357 246 -96 l 349 361 q 313 363 329 363 q 96 249 136 363 q 89 219 89 233 q 97 192 89 206 q 92 174 106 178 q 71 183 79 171 q 56 235 56 211 q 87 360 56 319 q 160 414 118 401 q 271 428 210 428 l 356 419 q 440 407 400 415 q 521 646 474 496 q 340 569 447 581 q 326 579 326 568 q 342 593 325 590 q 465 654 401 599 q 561 785 528 710 q 607 801 564 801 q 649 785 650 801 q 587 624 640 764 q 494 396 533 485 q 600 372 531 389 q 829 331 742 340 q 930 549 910 501 q 950 610 950 597 q 946 629 950 622 q 1006 731 950 668 q 1113 794 1063 794 q 1166 778 1135 794 q 1197 738 1197 763 q 1190 736 1197 732 q 1181 740 1183 740 q 1100 691 1146 740 q 1010 564 1054 642 q 889 325 942 443 q 1049 375 1008 325 q 1063 378 1056 388 q 1058 352 1069 369 q 1006 318 1046 335 q 878 301 965 301 q 813 60 813 147 q 852 -8 813 -8 q 970 53 892 -8 q 1118 207 1049 114 q 1131 209 1122 213 q 1135 197 1139 206 q 1114 161 1132 188 q 971 14 1056 82 q 835 -35 908 -35 q 777 -12 797 -35 q 755 29 757 10 q 753 65 753 49 q 758 117 753 82 q 819 304 772 206 z "},"I":{"ha":597,"x_min":11,"x_max":844,"o":"m 272 567 q 284 528 272 544 q 306 504 296 511 q 356 476 325 492 q 363 461 372 464 q 353 463 358 461 q 282 503 319 469 q 243 579 244 536 q 239 606 239 594 q 289 710 239 665 q 585 789 382 789 q 589 803 585 794 q 632 819 592 819 q 665 803 667 819 q 658 785 660 792 q 807 749 747 779 q 835 725 826 739 q 844 706 844 711 q 794 710 844 693 q 639 728 743 728 q 591 581 632 699 q 539 434 550 463 q 508 355 528 406 q 474 272 489 304 q 439 200 458 240 q 360 72 406 132 q 307 18 325 32 q 399 18 331 18 q 518 22 467 18 q 574 21 569 25 q 575 11 579 17 q 553 -10 567 -3 q 349 -24 539 -18 q 111 -29 158 -29 q 43 -29 64 -29 q 11 -4 11 -28 q 19 31 11 8 q 58 59 29 53 q 108 47 86 65 q 182 17 146 17 q 256 31 218 17 q 333 94 294 44 q 569 726 446 244 q 357 674 442 715 q 272 567 272 633 z "},"J":{"ha":797,"x_min":46,"x_max":879,"o":"m 301 686 q 493 779 356 754 q 615 789 553 789 q 744 778 678 789 q 818 818 781 818 q 831 813 828 818 q 831 803 835 808 q 812 792 826 797 q 778 771 797 788 q 843 748 825 757 q 870 725 861 739 q 879 706 879 711 q 841 706 879 693 q 751 725 803 718 q 699 561 726 665 q 665 436 671 457 q 766 454 740 454 q 797 451 792 454 q 803 442 803 447 q 801 433 804 436 q 792 432 799 429 q 769 435 786 435 q 707 423 753 435 q 653 388 661 411 q 328 -101 525 36 q 168 -164 240 -164 q 118 -156 142 -164 q 47 -51 47 -132 q 132 128 47 31 q 593 415 303 324 q 619 497 597 428 q 710 728 668 656 q 660 728 693 728 q 565 721 626 728 q 342 642 408 703 q 307 565 307 608 q 319 528 307 544 q 342 504 331 511 q 390 476 360 492 q 397 461 407 464 q 388 463 393 461 q 317 503 354 469 q 278 579 279 536 q 274 604 274 594 q 301 686 274 650 m 119 -40 q 122 -71 119 -56 q 192 -124 136 -124 q 364 -14 274 -124 q 585 389 497 149 q 200 132 342 310 q 119 -40 119 33 z "},"K":{"ha":776,"x_min":-314,"x_max":971,"o":"m 464 785 q 396 613 440 726 q 238 239 299 363 q 363 381 278 289 q 363 401 363 388 q 364 435 363 414 q 378 458 368 450 q 394 443 388 465 q 397 422 394 436 l 399 426 q 629 629 433 465 q 863 810 825 793 q 926 828 900 828 q 961 816 951 828 q 971 792 971 804 q 959 770 971 781 q 930 751 947 760 q 822 692 913 743 q 656 590 731 640 q 406 392 475 468 q 469 210 438 276 q 570 59 501 143 q 696 -25 639 -25 q 729 -12 719 -25 q 736 19 739 0 q 711 83 728 58 q 708 107 694 107 q 733 95 721 107 q 755 60 744 83 q 765 21 765 38 q 728 -40 764 -18 q 658 -62 692 -62 q 544 -26 596 -62 q 458 75 493 11 q 368 344 396 192 q 154 82 213 163 q -119 -190 11 -150 q -185 -203 -157 -203 q -312 -115 -287 -203 q -314 -103 -314 -110 q -312 -88 -314 -97 q -303 -82 -310 -79 q -289 -108 -296 -85 q -236 -160 -275 -150 q -183 -165 -206 -165 q -143 -160 -160 -165 q 135 132 0 -114 q 335 646 243 336 q 154 569 261 581 q 140 574 144 569 q 140 585 136 579 q 154 593 144 592 q 278 655 214 599 q 375 785 343 711 q 423 803 379 803 q 464 785 467 803 z "},"L":{"ha":714,"x_min":14,"x_max":1039,"o":"m 53 75 l 146 67 q 192 73 176 67 q 216 76 208 79 q 213 66 224 74 q 176 54 201 58 q 144 47 150 50 q 193 24 167 39 l 267 -22 q 314 100 300 56 q 292 94 306 96 q 278 101 278 92 q 294 117 278 111 l 325 125 q 374 280 347 189 q 401 372 401 371 q 546 708 485 639 q 658 799 607 778 q 736 819 710 819 q 853 761 810 819 q 882 660 882 721 q 803 431 882 544 q 614 238 725 317 q 383 118 503 160 q 304 -44 342 19 q 606 -210 517 -181 q 801 -244 708 -244 q 969 -189 903 -244 q 1004 -131 1004 -161 q 992 -76 1004 -100 q 994 -51 981 -53 q 1017 -65 1008 -49 q 1038 -160 1038 -111 q 1038 -176 1038 -168 q 989 -269 1036 -229 q 818 -317 933 -317 q 681 -296 740 -317 q 588 -262 622 -275 q 503 -216 554 -249 q 432 -169 453 -183 q 290 -67 390 -142 q 163 -192 218 -192 q 146 -187 149 -192 q 147 -178 143 -182 q 154 -174 150 -174 q 257 -44 200 -169 q 126 25 179 7 q 61 6 79 6 q 38 7 43 6 q 14 36 14 15 q 50 75 14 65 q 53 75 50 75 m 825 686 q 746 792 825 792 q 625 719 675 792 q 544 574 569 642 q 508 475 519 507 q 465 333 481 397 q 399 157 419 206 q 674 353 558 229 q 819 632 790 476 q 825 686 825 661 z "},"M":{"ha":1522,"x_min":-12,"x_max":1618,"o":"m 294 113 q 58 -122 169 -122 q -12 -50 -12 -122 q 21 46 -12 -7 q 198 265 78 135 q 401 471 318 394 l 454 650 q 274 574 385 585 q 259 582 260 572 q 271 594 258 592 l 276 596 q 399 658 336 601 q 494 789 463 715 q 543 806 500 807 q 585 789 586 806 l 489 551 q 760 715 678 711 q 779 715 769 715 q 931 643 889 715 q 967 500 967 582 q 892 150 967 378 q 881 109 879 110 q 889 117 883 108 q 906 144 894 126 q 963 236 918 163 q 1288 683 1122 504 q 1396 740 1342 740 q 1444 718 1428 740 q 1461 669 1461 696 q 1449 596 1461 643 q 1378 399 1438 549 q 1304 99 1304 215 q 1354 8 1304 8 q 1450 54 1390 8 q 1597 206 1542 131 q 1610 210 1604 215 q 1617 201 1617 204 q 1614 194 1617 197 q 1531 94 1588 153 q 1381 -22 1438 -4 q 1326 -32 1353 -32 q 1235 100 1235 -31 q 1251 232 1235 168 q 1278 331 1268 296 q 1306 412 1289 365 q 1333 483 1322 458 q 1378 596 1369 574 q 1386 634 1386 618 q 1378 656 1386 650 q 1356 663 1369 663 q 1313 638 1342 663 q 1072 349 1206 546 q 883 39 938 151 q 861 15 872 15 q 838 35 850 15 q 825 65 825 56 q 826 76 825 74 q 878 272 863 168 q 894 443 894 376 q 793 678 894 678 q 450 450 699 678 q 396 319 438 414 q 294 113 339 196 m 63 -75 q 274 165 149 -75 q 374 382 343 299 q 211 212 300 313 q 85 61 122 111 q 36 -40 36 -4 q 63 -75 36 -75 z "},"N":{"ha":1090,"x_min":-240,"x_max":1163,"o":"m 1132 601 q 1043 650 1099 601 q 1044 607 1044 629 q 1000 336 1044 496 q 866 42 956 176 q 683 -93 776 -93 q 549 -32 606 -93 q 464 128 493 29 q 411 532 411 315 q 228 118 315 281 q -56 -185 81 -143 q -118 -196 -90 -196 q -167 -190 -146 -196 q -237 -112 -224 -171 q -239 -100 -239 -106 q -237 -86 -239 -94 q -229 -81 -236 -78 q -215 -107 -222 -85 q -167 -154 -206 -144 q -121 -161 -143 -161 q -78 -154 -99 -161 q 186 125 56 -112 q 369 614 276 299 q 189 538 293 544 q 174 547 175 536 q 190 561 174 558 q 314 624 250 567 q 410 754 378 681 q 458 772 415 772 q 500 754 501 771 q 488 681 494 739 q 481 565 481 622 q 557 106 481 321 q 694 -46 611 -46 q 850 100 778 -46 q 949 389 922 246 q 976 590 976 532 q 971 676 976 647 q 933 797 965 704 q 943 812 932 801 q 960 824 954 822 q 1009 792 986 824 q 1056 717 1032 760 q 1131 639 1096 639 l 1147 643 q 1163 629 1160 643 q 1153 610 1163 618 q 1132 601 1143 603 z "},"O":{"ha":981,"x_min":63,"x_max":996,"o":"m 996 468 q 853 98 996 261 q 535 -106 710 -65 q 436 -118 483 -118 q 222 -22 307 -118 q 138 219 138 74 q 269 539 138 413 q 474 649 353 619 q 540 656 510 656 q 642 623 610 656 q 660 590 674 590 l 638 601 q 587 613 608 613 q 550 608 565 613 q 281 408 383 569 q 201 157 201 283 q 328 -68 201 -17 q 419 -86 369 -86 q 519 -74 468 -86 q 708 42 613 -53 q 865 267 804 138 q 926 508 926 396 q 839 728 926 656 q 646 786 765 786 q 607 785 628 786 q 322 681 453 775 q 161 515 226 614 q 89 319 96 417 q 76 309 88 297 q 64 344 64 321 q 123 541 64 444 q 281 708 182 638 q 440 788 350 758 q 611 819 529 818 q 889 726 782 819 q 996 468 996 633 z "},"P":{"ha":749,"x_min":43,"x_max":1000,"o":"m 242 24 q 242 15 242 24 q 260 6 242 6 q 308 44 278 6 q 350 81 339 82 q 332 44 358 72 q 322 30 329 42 q 310 11 315 18 q 297 -7 306 4 q 282 -25 289 -18 q 267 -39 275 -32 q 238 -53 250 -53 q 203 -48 225 -53 q 181 -37 182 -43 q 181 -28 181 -32 q 299 268 181 44 q 270 269 281 268 q 258 281 260 271 q 263 292 256 290 q 279 292 271 293 q 308 290 288 290 q 393 447 379 418 q 407 488 407 475 q 406 507 407 500 q 473 609 411 546 q 585 672 535 672 q 630 660 601 672 q 663 631 658 647 q 665 613 667 615 q 656 614 663 611 q 647 617 649 617 q 363 290 547 617 q 673 351 514 297 q 917 492 832 404 q 965 592 965 539 q 647 747 965 747 q 300 692 465 747 q 153 610 214 661 q 82 493 93 558 q 81 475 81 486 q 90 448 81 464 q 111 424 99 432 q 147 404 124 415 q 177 388 169 393 q 181 376 185 382 q 163 372 176 369 q 82 415 119 379 q 44 493 44 451 q 47 518 44 506 q 44 540 44 536 q 249 739 64 644 q 593 807 394 807 q 835 774 715 807 q 957 694 915 746 q 999 590 999 643 q 935 448 999 510 q 792 353 871 386 q 350 267 604 272 q 269 104 296 167 q 242 24 242 42 z "},"Q":{"ha":931,"x_min":63,"x_max":1322,"o":"m 953 454 q 972 612 972 538 q 937 738 972 686 q 836 796 901 790 q 815 804 815 797 q 824 815 814 811 q 843 818 833 819 q 980 735 939 804 q 1021 572 1021 667 q 891 201 1021 386 q 592 -46 761 17 q 892 -208 796 -178 q 1078 -242 993 -242 q 1253 -187 1185 -242 q 1289 -128 1289 -160 q 1276 -74 1289 -97 q 1278 -49 1263 -50 q 1300 -64 1293 -49 q 1322 -175 1322 -107 q 1272 -267 1319 -226 q 1146 -314 1225 -308 q 1097 -315 1126 -315 q 1017 -306 1067 -315 q 922 -282 967 -297 q 818 -233 878 -267 q 729 -178 758 -199 q 640 -114 700 -158 q 561 -57 579 -69 q 475 -72 503 -72 q 444 -72 447 -72 q 169 18 276 -72 q 63 268 63 108 q 206 626 63 468 q 524 822 349 783 q 610 833 574 833 q 783 772 714 833 q 869 549 869 696 q 785 274 869 404 q 440 40 656 78 q 478 25 442 39 l 551 -21 q 803 158 694 25 q 953 454 913 292 m 325 76 l 426 68 q 703 283 592 117 q 815 599 815 449 q 707 790 815 749 q 631 803 672 803 q 542 792 589 803 q 264 578 396 758 q 132 229 132 397 q 222 17 132 86 q 413 -40 296 -40 q 521 -29 474 -40 q 413 26 471 6 q 337 10 350 10 q 321 10 324 10 q 290 27 299 11 q 291 59 281 43 q 325 76 301 75 z "},"R":{"ha":749,"x_min":43,"x_max":1190,"o":"m 47 518 q 44 540 44 536 q 249 739 64 644 q 593 807 394 807 q 835 774 715 807 q 957 694 915 746 q 999 590 999 643 q 935 448 999 510 q 792 353 871 386 q 389 268 615 276 q 447 195 407 246 q 508 119 488 144 q 569 49 529 94 q 635 -20 608 4 q 704 -78 663 -44 q 783 -132 746 -112 q 1011 -201 914 -201 l 1058 -197 q 1133 -159 1106 -189 q 1161 -93 1161 -129 q 1158 -63 1161 -79 q 1167 -47 1154 -47 q 1185 -67 1181 -49 q 1190 -114 1190 -86 q 1176 -178 1190 -142 q 1092 -254 1161 -228 q 1008 -271 1047 -271 q 772 -206 892 -271 q 630 -95 693 -161 q 524 24 567 -29 q 430 155 482 76 q 357 260 378 233 l 347 261 q 242 26 242 67 q 260 6 242 6 q 308 44 278 6 q 350 81 339 82 q 332 44 358 72 q 322 30 329 42 q 310 11 315 18 q 297 -7 306 4 q 282 -25 289 -18 q 267 -39 275 -32 q 238 -53 250 -53 q 203 -48 225 -53 q 181 -29 181 -43 q 294 261 181 33 q 249 294 249 265 q 250 308 249 300 q 285 332 260 332 q 326 319 311 332 q 353 369 338 342 q 407 493 407 467 q 406 507 407 500 q 473 609 411 546 q 585 672 535 672 q 629 660 601 672 q 663 625 657 647 q 663 613 664 615 q 656 614 663 611 q 647 617 649 617 q 369 301 550 617 q 402 294 386 294 q 429 296 418 294 q 706 363 571 311 q 917 492 842 414 q 965 592 965 539 q 647 747 965 747 q 300 692 465 747 q 153 610 214 661 q 82 493 93 558 q 81 475 81 486 q 90 448 81 464 q 111 424 99 432 q 147 404 124 415 q 177 388 169 393 q 181 376 185 382 q 163 372 176 369 q 82 415 119 379 q 44 493 44 451 q 47 518 44 506 z "},"S":{"ha":822,"x_min":19,"x_max":896,"o":"m 896 733 q 871 663 896 703 q 824 611 850 625 q 799 614 799 597 q 814 631 799 615 q 860 701 860 674 q 742 761 860 761 q 610 742 692 761 q 451 682 528 724 q 363 597 363 633 q 417 542 363 568 q 533 495 446 528 q 673 438 619 463 q 774 369 726 414 q 822 271 822 325 q 758 153 822 217 q 506 -2 661 60 q 239 -64 350 -64 q 19 60 19 -64 q 154 269 19 183 q 388 346 265 346 q 414 336 417 346 q 372 326 411 326 q 272 299 333 325 q 158 225 211 274 q 89 100 89 163 q 126 31 89 61 q 269 0 164 0 q 478 33 375 0 q 756 194 700 107 q 778 249 778 226 q 700 349 778 313 q 447 444 610 390 q 341 499 385 465 q 297 581 297 533 q 349 676 297 629 q 475 750 401 722 q 743 810 633 810 q 896 733 896 810 z "},"T":{"ha":467,"x_min":11,"x_max":1067,"o":"m 376 81 q 381 72 381 81 q 361 44 381 64 l 347 24 q 292 -43 310 -33 q 265 -53 275 -53 q 233 -48 254 -53 q 210 -37 211 -43 q 210 -14 210 -32 q 236 73 210 4 q 297 208 263 142 q 425 450 361 333 q 438 487 438 474 q 433 507 438 500 q 502 610 442 547 q 613 672 563 672 q 667 655 635 672 q 694 610 699 638 q 676 617 685 617 q 531 503 618 617 q 283 69 385 314 q 272 30 272 40 q 272 17 272 19 q 295 8 278 3 q 328 33 313 14 q 376 81 364 81 m 906 679 q 939 721 917 697 q 756 732 878 722 q 549 744 604 744 q 394 735 493 744 q 167 662 263 717 q 54 524 72 607 q 51 503 51 515 q 59 475 51 492 q 78 449 67 458 q 112 425 89 439 q 142 405 135 411 q 145 394 150 399 q 135 390 140 390 q 125 392 131 390 q 45 444 78 406 q 13 508 13 482 q 19 551 13 533 q 21 574 19 567 q 147 726 42 672 q 458 792 274 792 q 753 767 571 792 q 957 742 936 742 q 1014 785 994 783 q 1033 786 1021 786 q 1056 777 1046 786 q 1065 758 1065 768 q 1057 739 1065 749 q 1023 710 1049 729 q 982 676 997 692 q 910 550 910 604 q 919 512 910 526 q 918 491 929 497 q 894 500 907 485 q 881 571 881 511 q 906 679 881 631 z "},"U":{"ha":731,"x_min":15,"x_max":938,"o":"m 158 -44 q 60 83 60 -44 q 175 436 60 200 q 249 592 238 565 q 250 618 261 619 q 218 600 239 615 q 29 503 110 508 q 15 510 15 501 q 33 525 18 522 q 195 617 88 531 q 325 746 303 704 q 378 763 331 763 q 413 746 414 760 q 142 171 174 343 q 135 101 135 132 q 204 4 135 4 q 540 219 318 4 q 838 825 633 825 q 928 778 910 825 q 936 734 936 757 q 926 686 936 711 q 853 535 904 613 q 712 351 803 458 q 604 221 621 243 q 579 -28 585 122 q 579 -43 579 -36 q 625 -231 579 -175 q 662 -253 644 -253 q 693 -236 679 -253 q 710 -215 700 -225 q 727 -208 721 -204 q 729 -225 733 -211 q 711 -251 715 -247 q 633 -279 689 -279 q 624 -279 629 -279 q 521 -143 543 -278 q 515 -27 515 -100 q 533 169 515 46 q 158 -44 311 -44 m 883 708 q 890 754 890 733 q 881 783 890 775 q 864 792 872 792 q 813 757 844 792 q 626 310 686 617 q 781 499 704 383 q 883 708 858 614 z "},"V":{"ha":853,"x_min":26,"x_max":1265,"o":"m 288 -99 q 163 6 163 -99 q 275 339 163 78 q 424 728 407 644 q 172 685 281 728 q 63 565 63 643 q 74 528 63 544 q 96 504 85 511 q 146 476 118 490 q 151 461 163 464 q 142 463 147 461 q 72 503 110 469 q 33 579 35 536 q 28 604 28 593 q 90 717 28 671 q 228 776 151 763 q 353 789 306 789 q 426 788 400 789 q 418 808 425 797 q 426 824 411 819 q 431 824 428 824 q 457 803 444 824 l 464 783 q 596 749 543 772 q 629 720 617 740 q 621 701 642 700 q 575 713 608 701 q 465 728 542 725 q 389 429 458 588 q 256 8 256 118 q 313 -62 256 -62 q 510 35 382 -62 q 801 371 661 147 q 869 482 819 400 q 1031 721 965 640 q 1124 799 1072 772 q 1206 825 1176 825 q 1250 817 1235 825 q 1265 803 1265 810 q 1258 797 1265 797 l 1243 799 q 1114 697 1197 799 q 967 507 1061 633 q 832 326 874 381 q 525 2 654 103 q 288 -99 396 -99 z "},"W":{"ha":1403,"x_min":17,"x_max":1374,"o":"m 128 -126 q 18 -49 18 -126 q 58 69 18 1 q 135 194 97 136 q 225 330 172 251 q 300 442 278 408 q 485 726 449 654 q 406 729 453 729 q 131 664 240 729 q 63 564 63 624 q 74 528 63 544 q 96 504 85 511 q 146 476 118 490 q 151 461 163 464 q 142 463 147 461 q 72 503 110 469 q 33 579 35 536 q 28 603 28 593 q 74 706 28 663 q 194 767 121 750 q 373 789 294 789 q 506 776 451 789 q 504 810 510 797 q 514 825 499 822 q 518 826 517 826 q 542 804 533 826 q 540 768 544 789 q 591 751 565 761 q 629 720 617 740 q 621 701 642 700 q 581 710 608 701 q 526 722 554 719 q 367 424 483 597 q 115 -50 115 53 q 160 -96 115 -96 q 383 7 229 -96 q 786 406 621 172 q 785 500 785 444 q 793 610 785 556 q 824 664 797 639 q 865 689 851 689 q 889 657 883 689 l 892 632 q 892 607 892 619 q 850 414 892 500 q 850 401 850 408 q 919 121 850 246 q 1078 -4 988 -4 q 1215 76 1156 -4 q 1314 406 1314 211 q 1236 665 1314 582 q 1126 714 1190 714 q 1036 686 1074 714 q 1014 688 1021 676 q 1015 706 1007 699 q 1156 760 1089 760 q 1265 729 1222 760 q 1372 456 1372 660 q 1347 278 1372 368 q 1226 44 1311 146 q 1040 -57 1142 -57 q 1038 -57 1039 -57 q 855 53 928 -57 q 782 299 782 163 q 783 333 782 315 q 612 149 715 247 q 418 -11 508 51 q 128 -126 263 -126 z "},"X":{"ha":944,"x_min":-293,"x_max":1038,"o":"m 29 593 q 24 617 24 607 q 72 721 24 676 q 196 782 121 765 q 374 804 293 804 q 510 790 456 804 q 539 810 525 808 q 563 776 563 813 l 592 764 q 625 733 613 753 q 583 725 642 704 l 556 732 q 549 619 549 676 q 586 336 549 483 q 795 606 669 433 q 944 808 921 779 q 958 815 951 815 q 973 810 964 815 q 972 788 982 804 q 600 289 782 499 q 671 124 631 192 q 736 39 711 57 q 779 21 761 21 q 811 25 797 21 q 919 99 851 36 q 1017 206 988 161 q 1030 210 1022 214 q 1038 203 1038 206 q 975 115 1038 185 q 749 -35 840 -35 q 686 -16 717 -35 q 612 63 656 3 q 535 213 568 122 q 337 15 436 103 q 168 -115 238 -72 q -107 -218 3 -218 q -240 -176 -182 -218 q -292 -68 -292 -139 q -285 -38 -292 -50 q -271 -32 -278 -26 q -264 -74 -264 -37 q -226 -136 -264 -111 q -131 -162 -185 -162 q -23 -143 -78 -162 q 95 -88 32 -124 q 216 -10 158 -53 q 332 82 274 32 q 519 260 424 160 q 474 542 474 403 q 488 740 474 682 q 421 743 456 743 q 331 738 386 743 q 208 715 275 733 q 99 662 140 697 q 58 589 58 626 q 76 535 58 551 q 122 506 94 518 q 153 492 149 494 q 153 478 167 483 l 139 476 q 67 518 106 485 q 29 593 29 551 z "},"Y":{"ha":731,"x_min":10,"x_max":979,"o":"m 900 775 l 964 767 q 979 754 979 764 q 978 750 979 753 q 963 740 974 739 q 946 740 951 740 q 868 704 901 740 q 810 600 835 668 q 715 310 785 532 q 638 65 646 88 q 734 83 710 83 q 765 79 758 83 q 769 64 775 71 q 758 60 764 57 q 737 63 753 63 q 674 51 721 63 q 618 17 626 39 q 282 -472 479 -335 q 124 -533 194 -533 q 75 -525 97 -533 q 10 -429 10 -501 q 97 -246 10 -346 q 558 44 269 -49 q 604 201 568 67 q 658 396 640 336 q 401 82 535 208 q 158 -44 268 -44 q 60 83 60 -44 q 175 436 60 200 q 249 592 238 565 q 250 618 261 619 q 218 600 239 615 q 29 503 110 508 q 15 510 15 501 q 33 525 18 522 q 195 617 88 531 q 325 746 303 704 q 378 763 331 763 q 413 746 414 760 q 142 171 174 344 q 135 101 135 132 q 204 4 135 4 q 335 63 261 4 q 481 214 408 122 q 744 657 651 436 q 783 726 769 715 q 900 775 813 775 m 85 -411 q 89 -442 85 -428 q 158 -496 103 -496 q 329 -386 240 -496 q 550 18 464 -224 q 165 -239 310 -61 q 85 -411 85 -337 z "},"Z":{"ha":728,"x_min":14,"x_max":1025,"o":"m 825 693 q 483 747 651 747 q 332 733 404 747 q 244 685 275 718 q 213 636 213 653 q 218 608 213 619 q 224 590 224 597 q 217 583 224 582 q 196 603 211 585 q 181 649 181 622 q 200 706 181 676 q 310 789 240 765 q 481 813 379 813 q 874 753 640 813 q 941 799 906 785 q 996 814 976 814 q 1024 789 1015 814 q 1024 782 1024 785 q 978 705 1024 733 q 897 676 933 676 q 874 679 885 676 q 815 638 840 661 q 775 603 789 615 q 739 569 761 592 q 706 534 717 546 q 669 494 694 522 q 633 456 643 465 q 561 372 589 407 q 715 382 682 382 q 757 382 749 382 q 774 380 765 382 q 786 375 782 378 q 757 353 796 367 q 517 324 697 336 l 451 254 q 201 49 313 113 q 192 28 192 39 q 208 7 192 18 q 348 -72 247 -14 q 503 -157 449 -131 q 632 -204 557 -183 q 746 -225 707 -225 q 804 -222 785 -225 q 914 -167 872 -212 q 933 -115 933 -144 q 910 -49 933 -86 q 911 -28 900 -31 q 932 -43 922 -26 q 971 -154 960 -87 q 972 -172 972 -162 q 940 -251 972 -214 q 813 -296 903 -296 q 629 -264 724 -296 q 458 -182 535 -232 q 131 6 217 -26 q 67 -18 85 -18 q 14 26 14 -18 q 43 67 14 53 q 85 62 57 68 q 128 54 114 56 q 436 318 219 86 q 347 314 369 314 q 316 315 325 314 q 295 326 307 315 q 283 354 283 338 q 311 383 283 371 q 349 394 339 394 q 365 394 358 394 q 383 381 372 394 q 399 367 394 367 q 440 365 419 365 q 481 367 461 365 q 535 425 497 385 l 592 486 q 825 693 743 649 z "},"[":{"ha":621,"x_min":99,"x_max":738,"o":"m 297 4 q 308 -12 322 4 q 278 -29 293 -28 q 126 -36 214 -36 q 99 -17 99 -36 q 279 331 99 19 q 519 725 460 642 q 538 743 531 739 q 563 747 544 747 l 722 747 q 738 742 738 747 q 727 726 738 736 q 703 714 717 715 q 568 707 632 707 q 350 373 478 582 q 153 4 222 164 l 297 4 z "},"\\":{"ha":444,"x_min":56,"x_max":424,"o":"m 57 738 q 81 750 57 750 q 117 736 106 750 q 287 360 151 689 q 422 -19 422 31 q 408 -33 422 -33 q 371 -7 378 -33 q 224 394 328 163 q 58 732 121 626 q 57 738 57 735 z "},"]":{"ha":621,"x_min":86,"x_max":726,"o":"m 528 707 q 517 724 503 707 q 547 742 531 740 q 697 747 611 747 q 726 728 726 747 q 546 381 726 692 q 306 -14 365 69 q 263 -36 289 -36 l 103 -36 q 88 -31 88 -36 q 97 -15 88 -25 q 121 -1 106 -4 q 257 4 199 4 q 474 338 346 128 q 672 707 603 549 l 528 707 z "},"^":{"ha":813,"x_min":232,"x_max":640,"o":"m 500 893 q 576 824 526 886 q 633 755 626 761 q 639 742 639 749 q 625 708 639 717 q 615 707 622 707 q 593 717 607 707 q 534 770 579 728 q 474 824 489 813 q 283 733 317 750 q 242 717 250 717 q 233 729 233 717 q 261 764 233 742 q 329 807 267 768 q 500 893 469 893 z "},"_":{"ha":876,"x_min":0,"x_max":876,"o":"m 0 -92 l 0 -53 l 876 -53 l 876 -92 l 0 -92 z "},"`":{"ha":475,"x_min":86,"x_max":335,"o":"m 333 465 q 321 458 333 458 q 135 542 290 458 q 123 550 129 546 q 108 561 117 554 q 86 588 86 579 q 106 611 86 604 q 115 613 110 613 q 161 597 139 613 q 208 563 183 582 q 281 508 232 544 q 332 469 331 472 q 333 465 333 467 z "},"a":{"ha":635,"x_min":15,"x_max":728,"o":"m 125 -15 q 77 -2 103 -15 q 33 35 51 11 q 15 88 15 60 q 28 140 15 115 q 117 253 56 199 q 246 347 179 308 q 351 396 313 386 q 427 406 390 406 q 490 387 464 406 q 517 347 517 368 q 515 339 517 340 q 508 340 514 338 q 440 367 492 367 q 322 333 388 367 q 197 247 256 299 q 112 144 149 201 q 75 60 75 86 q 104 8 75 8 q 193 56 133 8 q 328 178 292 139 q 465 315 456 315 q 506 306 482 315 q 521 282 529 296 q 438 81 450 182 q 436 49 436 68 q 447 17 436 29 q 504 14 468 -6 q 605 92 540 33 q 708 206 669 150 q 721 209 714 213 q 728 203 728 206 q 662 112 728 182 q 561 17 596 42 q 440 -32 496 -32 q 369 21 388 -32 q 365 58 365 38 q 392 190 365 121 q 340 135 386 188 q 234 33 294 82 q 125 -15 174 -15 z "},"b":{"ha":542,"x_min":15,"x_max":604,"o":"m 444 375 q 504 349 469 375 q 543 299 539 324 q 544 281 544 289 q 483 147 544 218 q 346 25 422 75 q 111 -56 228 -56 q 36 -43 64 -56 q 92 -32 14 -32 q 311 68 176 -32 q 469 288 442 160 q 469 327 474 307 q 444 347 464 347 q 281 260 382 347 q 192 163 238 224 q 147 63 147 101 q 149 51 147 57 q 144 31 151 44 q 93 35 126 -6 q 85 78 85 56 q 104 213 85 142 q 80 178 99 207 q 36 122 61 150 q 17 122 24 108 q 15 130 15 125 q 21 142 15 135 q 147 317 129 276 q 224 498 172 386 q 318 676 275 610 q 501 817 407 817 q 536 813 518 817 l 564 803 q 604 742 604 779 q 582 663 604 706 q 426 477 546 589 q 194 288 307 365 q 151 157 167 238 q 285 304 203 233 q 444 375 368 375 m 400 500 q 565 747 565 667 q 540 781 565 781 q 488 756 521 781 q 210 343 344 646 q 400 500 304 406 z "},"c":{"ha":438,"x_min":26,"x_max":531,"o":"m 404 306 l 411 333 q 390 361 411 361 q 235 272 333 361 q 110 93 136 183 q 103 51 103 69 q 111 19 103 32 q 163 -6 128 -6 q 238 4 197 -6 q 385 76 326 29 q 510 206 444 122 q 523 210 515 213 q 531 202 531 207 q 526 188 531 197 q 387 41 460 97 q 218 -32 314 -15 q 167 -36 190 -36 q 63 -3 99 -36 q 28 71 28 31 q 47 158 28 111 q 196 321 82 238 q 376 404 310 404 q 408 400 393 404 q 447 356 447 386 q 432 308 447 335 q 409 290 417 282 q 404 306 401 297 z "},"d":{"ha":521,"x_min":15,"x_max":953,"o":"m 117 253 q 148 281 117 253 q 246 347 179 308 q 351 396 313 386 q 428 406 390 406 q 499 381 465 406 q 863 822 689 822 q 942 789 921 822 q 951 760 951 772 q 922 672 951 725 q 829 554 892 618 q 650 397 767 490 q 521 292 533 303 q 451 93 476 189 q 426 -50 426 -3 q 443 -125 426 -97 q 468 -147 451 -143 q 497 -142 485 -150 q 515 -129 508 -135 q 530 -119 521 -124 q 543 -117 539 -114 q 542 -132 547 -119 q 521 -156 531 -146 q 469 -171 499 -171 q 429 -169 439 -171 q 363 -72 363 -158 q 385 82 363 11 q 440 243 415 179 q 125 -15 218 -15 q 77 -2 103 -15 q 33 35 51 11 q 15 88 15 60 q 28 140 15 115 q 117 253 56 199 m 488 358 q 429 367 471 367 q 322 333 388 367 q 197 247 256 299 q 112 144 149 201 q 75 60 75 86 q 104 8 75 8 q 193 56 133 8 q 468 311 347 182 l 488 358 m 894 708 q 913 765 913 742 q 892 788 913 788 q 839 763 872 788 q 563 372 686 646 q 751 528 653 431 q 894 708 850 625 z "},"e":{"ha":443,"x_min":28,"x_max":536,"o":"m 376 404 q 451 332 451 404 q 431 271 451 294 q 318 181 396 219 q 186 139 240 143 q 165 150 167 138 q 169 157 164 156 q 176 158 174 158 q 258 189 208 161 q 394 292 351 239 q 413 340 413 317 q 390 363 413 363 q 342 347 372 363 q 204 241 276 317 q 110 93 132 165 q 103 49 103 71 q 121 8 103 28 q 176 -11 139 -11 q 272 11 218 -11 q 514 204 429 75 q 529 208 522 215 q 535 201 535 206 q 531 192 535 197 q 425 68 489 122 q 185 -37 301 -37 q 44 22 85 -37 q 29 79 29 46 q 47 158 29 113 q 196 321 82 238 q 376 404 310 404 z "},"f":{"ha":397,"x_min":-112,"x_max":665,"o":"m -10 -451 q -12 -454 -10 -451 q -17 -460 -14 -457 q -46 -476 -21 -462 q -91 -490 -71 -490 q -111 -481 -111 -490 q -108 -469 -111 -476 q 149 171 -83 -422 q 85 165 106 165 q 52 174 64 165 q 40 198 40 183 q 72 224 40 213 q 119 236 103 236 q 147 225 136 236 q 163 214 158 214 l 167 214 l 207 317 q 283 498 232 386 q 376 676 335 610 q 563 817 469 817 l 596 813 l 624 803 q 664 738 664 779 q 642 650 664 697 q 489 440 604 569 q 267 225 374 311 q 413 235 381 235 q 447 226 446 235 q 421 213 447 221 q 207 178 394 206 q 39 -303 42 -242 q 33 -347 38 -333 q 21 -377 28 -360 q 10 -403 14 -394 q 3 -424 7 -412 q -4 -440 -1 -435 q -10 -451 -7 -444 m 603 669 q 626 746 626 710 q 600 782 626 782 q 450 646 547 782 q 349 486 393 565 q 235 243 260 319 l 224 221 q 431 426 321 293 q 603 669 540 560 z "},"g":{"ha":578,"x_min":-81,"x_max":686,"o":"m 18 -529 q -10 -525 7 -529 q -81 -451 -81 -507 q -8 -310 -81 -394 q 300 -69 65 -225 q 439 254 400 135 q 328 124 361 160 q 126 -15 203 -15 q 78 -2 104 -15 q 35 35 53 11 q 17 88 17 60 q 119 253 17 161 q 247 347 181 308 q 353 396 314 386 q 428 406 392 406 q 492 386 464 406 q 519 347 519 367 q 508 340 519 336 q 441 367 493 367 q 323 333 389 367 q 204 252 257 299 q 115 147 151 206 q 78 60 78 88 q 106 11 78 11 q 225 75 144 11 q 454 301 344 168 q 529 300 472 328 q 547 281 551 289 q 481 141 529 240 q 410 -8 433 42 q 519 76 442 8 q 654 211 596 143 q 685 222 685 247 q 518 39 685 188 q 382 -69 422 -47 q 224 -375 264 -312 q 18 -529 119 -529 m 274 -122 q 35 -320 107 -247 q -37 -457 -37 -393 q -25 -485 -37 -476 q 1 -493 -12 -493 q 42 -472 15 -493 q 87 -431 68 -451 q 119 -394 106 -411 q 151 -349 133 -376 q 178 -307 168 -322 q 205 -259 188 -292 q 228 -215 222 -226 q 252 -167 235 -203 q 274 -122 269 -131 z "},"h":{"ha":633,"x_min":47,"x_max":726,"o":"m 532 813 q 575 822 557 822 q 656 789 636 822 q 667 760 667 772 q 508 522 667 665 q 250 310 368 399 q 169 94 211 222 q 296 236 219 156 q 511 396 450 396 q 543 365 542 396 q 530 304 546 333 q 500 250 514 275 q 435 57 435 142 q 446 17 435 29 q 501 14 465 -6 q 602 92 538 33 q 707 206 667 150 q 720 209 714 213 q 726 202 726 206 q 724 194 726 199 q 649 99 703 157 q 561 17 594 42 q 439 -32 497 -32 q 368 21 386 -32 q 364 51 364 33 q 367 88 364 68 q 440 269 374 146 q 454 305 454 294 q 443 315 454 315 q 357 260 421 315 q 230 108 314 219 q 135 -11 146 -4 q 73 -36 85 -36 q 60 -33 61 -36 q 61 -24 58 -29 q 83 38 64 -18 q 172 282 149 222 q 58 150 126 224 q 47 155 47 139 q 60 188 47 171 q 112 252 72 204 q 168 324 151 300 q 155 343 156 331 q 163 360 154 356 q 193 357 172 365 q 218 400 207 376 q 532 813 383 756 m 610 708 q 628 765 628 742 q 608 788 628 788 q 554 763 588 788 q 278 372 401 646 q 467 528 368 431 q 610 708 565 625 z "},"i":{"ha":314,"x_min":15,"x_max":407,"o":"m 189 385 q 231 363 224 385 q 227 338 233 350 q 218 319 221 326 q 214 308 215 313 q 200 282 207 294 q 117 81 121 124 q 115 49 115 68 q 126 17 115 29 q 182 14 146 -6 q 283 92 218 33 q 388 206 347 150 q 400 209 393 213 q 407 202 407 206 q 404 194 407 199 q 329 99 383 157 q 181 -19 240 3 q 122 -32 146 -32 q 49 21 67 -32 q 46 44 46 31 q 90 192 46 93 q 36 122 83 176 q 17 122 24 108 q 15 130 15 125 q 21 142 15 135 q 128 285 89 226 q 131 303 125 292 q 179 385 158 381 q 189 385 183 385 m 299 569 l 288 525 q 269 485 288 513 q 242 457 251 457 q 182 486 182 457 q 242 538 182 492 l 265 556 q 293 575 288 575 q 299 569 299 575 z "},"j":{"ha":299,"x_min":-361,"x_max":407,"o":"m -261 -529 q -289 -525 -272 -529 q -361 -449 -361 -506 q -287 -309 -361 -393 q 21 -69 -214 -225 q 168 285 121 138 q 122 230 157 271 q 78 175 88 189 q 60 174 68 161 q 64 193 57 183 q 135 285 90 225 q 189 357 179 346 q 267 350 217 382 q 281 329 285 338 q 131 -10 200 140 q 238 74 161 7 q 375 211 314 142 q 406 222 406 247 q 239 39 406 188 q 103 -69 142 -47 q -56 -375 -15 -312 q -261 -529 -162 -529 m -6 -122 q -244 -320 -172 -247 q -317 -457 -317 -393 q -304 -485 -317 -476 q -278 -493 -292 -493 q -237 -472 -264 -493 q -192 -431 -211 -451 q -160 -394 -174 -411 q -128 -349 -146 -376 q -101 -307 -111 -322 q -74 -259 -92 -292 q -51 -215 -57 -226 q -27 -167 -44 -203 q -6 -122 -10 -131 m 378 569 l 367 525 q 348 485 367 513 q 319 457 329 457 q 260 486 260 457 q 319 538 260 492 l 343 556 q 373 575 368 575 q 378 569 378 575 z "},"k":{"ha":478,"x_min":40,"x_max":654,"o":"m 119 -11 q 56 -36 69 -36 q 42 -32 42 -36 q 44 -23 42 -28 q 63 29 46 -18 q 107 149 81 76 q 153 269 133 221 q 78 174 121 235 q 59 168 71 164 q 67 197 47 172 q 182 357 113 253 q 161 378 161 368 q 164 394 161 389 q 189 401 171 411 q 200 399 197 399 q 353 686 261 560 q 457 790 403 757 q 558 822 511 822 q 622 806 592 822 q 653 754 653 790 q 533 553 653 685 q 390 428 469 485 q 250 344 311 371 q 154 94 196 225 l 244 213 q 243 239 243 225 q 261 290 243 281 q 274 274 271 294 l 279 254 q 433 401 386 379 q 474 413 456 413 q 506 403 492 413 q 519 382 519 393 q 488 347 519 363 q 286 222 335 274 q 351 39 319 106 q 452 -111 383 -28 q 578 -194 521 -194 q 617 -153 625 -194 q 594 -88 611 -115 q 590 -61 576 -61 q 617 -74 603 -62 q 636 -108 625 -83 q 647 -149 647 -132 q 610 -210 646 -187 q 540 -232 574 -232 q 413 -167 475 -232 q 308 -11 350 -103 q 250 176 267 81 q 194 93 225 142 q 119 -11 132 -3 m 574 675 q 592 706 574 675 q 611 763 611 738 q 590 788 611 788 q 538 763 569 788 q 388 608 449 694 q 267 392 326 521 q 501 572 396 451 q 574 675 536 613 z "},"l":{"ha":326,"x_min":39,"x_max":596,"o":"m 538 708 q 554 756 554 739 q 531 785 554 785 q 482 763 511 785 q 267 490 371 676 q 144 233 183 340 q 359 446 240 299 q 538 708 478 593 m 124 178 q 106 115 107 131 q 104 72 104 99 q 118 22 104 44 q 197 17 142 -15 q 303 98 239 39 q 401 206 367 157 q 410 210 404 210 q 417 192 422 210 q 340 96 396 154 q 238 3 283 38 q 146 -31 192 -31 q 40 72 40 -31 q 40 81 40 76 q 139 374 46 178 q 307 671 232 571 l 350 725 q 394 769 365 743 q 509 822 450 822 q 589 786 568 822 q 596 750 596 774 q 575 683 596 726 q 124 178 432 435 z "},"m":{"ha":811,"x_min":24,"x_max":904,"o":"m 238 361 q 222 319 238 351 q 135 94 207 286 q 261 236 185 156 q 474 397 415 397 q 498 390 486 397 q 510 359 510 383 q 494 305 510 335 q 460 232 479 275 q 433 178 440 189 q 610 306 550 283 q 689 329 669 329 q 708 315 708 329 q 688 275 708 307 q 642 181 667 243 q 614 93 617 118 q 611 49 611 68 q 622 17 611 29 q 679 14 643 -6 q 780 92 715 33 q 883 206 844 150 q 897 209 889 213 q 904 202 904 206 q 901 194 904 199 q 826 99 881 157 q 678 -19 738 3 q 583 -25 613 -42 q 547 13 554 -8 q 540 54 540 33 q 566 185 540 119 q 607 274 592 250 q 517 218 554 251 q 425 131 460 168 l 397 100 q 353 65 385 69 q 324 86 322 61 q 375 204 326 113 q 424 306 424 296 q 413 317 424 317 q 322 260 388 317 q 195 108 279 219 q 100 -11 111 -4 q 38 -36 50 -36 q 25 -32 25 -36 q 29 -19 25 -28 q 114 222 33 -11 q 58 150 83 175 q 47 155 47 138 q 57 185 47 172 q 149 324 119 267 q 182 381 157 372 q 217 381 197 386 q 238 361 238 375 z "},"n":{"ha":568,"x_min":-11,"x_max":661,"o":"m 442 394 q 474 360 474 394 q 442 267 474 326 q 394 169 410 207 q 368 67 368 106 q 379 17 368 29 q 436 15 400 -6 q 537 92 472 35 q 640 206 601 150 q 653 209 646 213 q 661 202 661 206 q 658 194 661 199 q 583 99 638 157 q 479 5 529 40 q 381 -31 429 -31 q 314 -9 333 -29 q 294 42 294 11 q 300 101 294 72 q 321 167 306 129 q 365 260 346 226 q 383 303 383 293 q 372 314 383 314 q 288 260 350 314 q 160 108 244 219 q 65 -11 76 -4 q 3 -36 15 -36 q -10 -32 -10 -36 q -7 -20 -10 -28 q 20 56 -4 -12 q 73 205 44 124 q 108 303 101 286 q 116 331 114 319 q 121 351 118 343 q 131 370 124 360 q 151 381 139 381 q 183 378 164 382 q 203 361 203 375 q 188 319 203 351 q 100 94 172 286 q 226 235 150 156 q 356 357 303 315 q 442 394 408 394 z "},"o":{"ha":488,"x_min":46,"x_max":581,"o":"m 343 153 q 368 232 368 204 q 362 276 368 260 q 367 303 356 292 q 397 311 379 314 q 425 249 425 304 q 360 103 425 193 q 399 65 361 65 q 513 146 436 65 q 558 200 549 188 q 574 209 567 213 q 581 203 581 206 q 531 131 581 189 q 390 33 451 33 q 333 68 350 33 q 279 14 306 39 q 158 -32 225 -32 q 96 -14 121 -32 q 47 90 47 15 q 103 257 47 172 q 178 344 135 307 q 307 404 246 404 q 336 400 322 404 q 378 347 378 386 q 361 315 378 315 q 354 336 354 318 q 326 361 354 361 q 201 272 278 361 q 110 93 125 183 q 107 59 107 78 q 119 16 107 40 q 166 -8 132 -8 q 240 22 200 -8 q 313 100 281 53 l 308 108 q 314 144 303 131 q 343 153 325 158 z "},"p":{"ha":514,"x_min":-197,"x_max":492,"o":"m 490 289 q 440 165 490 228 q 322 54 390 101 q 195 -8 260 14 q 98 -31 131 -31 q 44 -24 65 -31 q -40 -261 14 -94 q -47 -306 -46 -279 q -63 -380 -47 -333 q -94 -454 -79 -426 q -135 -481 -101 -471 q -182 -492 -168 -492 q -196 -478 -196 -492 q -192 -462 -196 -472 q -31 -78 -128 -332 q 76 203 67 175 q 104 283 86 231 q 138 417 135 372 q 182 433 138 433 q 226 401 226 433 q 199 335 226 378 q 119 167 172 293 q 250 326 200 289 q 379 381 317 381 q 429 372 404 381 q 489 310 483 353 q 490 289 490 299 m 422 308 q 385 357 422 357 q 313 331 363 357 q 213 251 263 304 q 135 152 163 199 q 85 56 108 106 q 57 -1 61 7 q 243 72 142 -1 q 394 232 344 146 q 422 308 422 275 z "},"q":{"ha":635,"x_min":14,"x_max":726,"o":"m 108 253 q 231 348 167 308 q 326 397 294 388 q 412 406 357 406 q 499 381 467 406 l 535 463 q 590 483 553 483 q 636 463 636 483 q 589 400 636 443 q 424 26 529 353 q 458 1 438 1 q 508 17 478 1 q 602 92 538 33 q 707 206 667 150 q 719 209 713 213 q 726 202 726 206 q 724 194 726 199 q 649 99 703 157 q 543 4 594 40 q 446 -31 501 -31 q 438 -31 442 -31 q 463 -197 454 -104 q 471 -322 471 -290 q 471 -364 471 -353 q 423 -498 461 -457 q 344 -539 385 -539 q 250 -482 289 -539 q 228 -386 228 -450 q 285 -161 228 -317 q 313 -83 301 -117 q 382 94 325 -50 q 440 243 439 238 q 125 -15 218 -15 q 77 -2 103 -15 q 33 36 51 11 q 15 89 15 61 q 108 253 15 165 m 488 358 q 429 367 471 367 q 322 333 388 367 q 197 247 256 299 q 112 144 149 201 q 75 60 75 86 q 104 8 75 8 q 193 56 133 8 q 468 311 347 182 l 488 358 m 411 -43 q 407 -32 411 -32 q 399 -44 403 -32 q 372 -113 394 -57 q 338 -200 349 -169 q 295 -343 300 -299 q 290 -406 290 -387 q 292 -442 290 -425 q 336 -501 296 -501 q 438 -301 438 -501 q 411 -43 438 -199 z "},"r":{"ha":438,"x_min":38,"x_max":531,"o":"m 239 -35 q 168 51 168 -35 q 290 261 168 136 q 304 276 300 271 l 314 290 q 332 324 333 317 l 328 336 q 282 360 322 353 q 217 368 242 368 q 72 167 92 192 q 46 146 53 142 q 39 156 39 150 q 47 172 39 161 q 176 368 122 264 q 151 380 160 371 q 150 410 143 389 q 192 468 157 432 q 254 517 228 504 q 288 532 281 529 q 303 535 294 535 q 292 485 319 535 l 238 399 q 344 394 300 394 l 393 396 q 428 390 417 396 q 433 368 439 383 q 385 297 424 342 q 260 90 301 200 q 250 44 250 64 q 279 4 250 4 q 316 19 289 4 q 407 92 343 35 q 510 206 471 150 q 523 209 515 213 q 531 202 531 206 q 528 194 531 199 q 453 99 507 157 q 347 4 399 40 q 239 -35 297 -35 z "},"s":{"ha":411,"x_min":15,"x_max":519,"o":"m 69 -14 q 62 -47 51 -35 q 85 -60 72 -60 q 113 -56 99 -60 q 228 16 172 -37 q 285 125 285 69 q 217 192 285 156 q 181 211 185 208 q 133 261 143 236 q 71 165 114 228 q 53 160 61 154 q 51 178 44 167 q 126 308 108 256 q 238 446 136 385 q 422 507 339 507 q 497 488 475 507 q 518 451 518 469 q 508 410 518 433 q 465 365 497 386 q 451 368 457 360 q 463 391 449 376 q 482 431 478 406 q 460 461 486 456 q 451 461 456 461 q 316 421 397 461 q 189 317 235 381 q 171 269 171 293 q 204 225 171 244 q 251 199 218 217 q 299 172 285 181 q 332 146 313 164 q 353 113 351 128 q 314 21 360 71 q 119 -81 249 -51 q 60 -87 90 -87 q 19 -65 31 -87 q 15 -48 15 -60 q 38 -10 15 -36 q 104 31 58 11 q 111 29 108 32 q 113 22 114 26 q 98 13 111 18 q 69 -14 85 7 z "},"t":{"ha":314,"x_min":15,"x_max":431,"o":"m 278 389 q 408 399 385 399 q 431 392 431 399 q 398 374 431 383 q 239 351 365 365 q 222 322 232 339 q 200 282 201 289 q 117 81 121 124 q 115 49 115 68 q 126 17 115 29 q 182 14 146 -6 q 283 92 218 33 q 388 206 347 150 q 401 208 393 213 q 329 99 422 199 q 181 -19 240 3 q 122 -32 146 -32 q 49 21 67 -32 q 46 44 46 31 q 90 192 46 93 q 36 122 83 176 q 17 122 24 108 q 15 130 15 125 q 21 142 15 135 q 128 285 89 226 q 158 343 128 286 q 130 340 144 340 q 108 349 115 340 q 107 371 101 358 q 181 396 117 393 q 186 399 182 399 l 256 528 q 268 551 261 539 q 278 569 275 563 q 286 582 282 575 q 293 592 290 589 q 299 597 296 594 q 331 606 304 606 q 368 590 358 606 q 372 572 372 585 q 363 542 372 558 q 342 519 353 526 q 326 504 331 513 l 260 388 l 278 389 z "},"u":{"ha":618,"x_min":44,"x_max":711,"o":"m 708 194 q 633 99 688 157 q 536 8 579 40 q 415 -32 481 -32 q 383 -20 403 -32 q 356 14 363 -8 q 349 57 349 36 q 376 200 349 129 q 338 141 372 197 q 255 35 304 85 q 156 -15 206 -15 q 101 -3 132 -15 q 46 89 46 22 q 102 258 46 171 q 174 350 158 344 q 213 356 194 356 q 251 348 232 356 q 246 322 271 340 q 110 128 150 235 q 94 58 94 86 q 109 21 94 29 q 138 13 124 13 q 228 59 171 13 q 388 253 286 106 q 436 334 401 274 q 478 406 471 394 q 530 395 500 406 q 550 368 560 385 q 456 204 483 257 q 419 81 429 151 q 418 49 418 68 q 429 17 418 29 q 487 15 450 -6 q 588 92 524 35 q 690 206 651 150 q 703 209 696 213 q 711 202 711 206 q 708 194 711 199 z "},"v":{"ha":438,"x_min":47,"x_max":649,"o":"m 128 310 q 89 376 128 376 q 72 374 81 376 q 63 378 63 372 q 71 392 63 383 q 128 403 79 399 q 201 386 186 403 q 215 353 215 369 q 190 270 215 336 q 163 201 164 204 q 125 44 121 76 q 289 254 250 213 q 406 378 371 344 q 547 479 486 453 q 579 486 565 486 q 642 458 625 486 q 647 445 647 451 q 643 431 647 439 q 628 431 639 422 q 578 440 617 440 q 364 290 514 440 q 198 96 274 197 q 117 -49 122 -6 q 96 -60 117 -60 q 65 -42 75 -60 q 54 -13 54 -25 q 56 8 54 -1 q 83 110 57 17 q 117 233 110 203 q 71 165 100 206 q 55 159 61 154 q 49 168 49 164 q 51 178 49 172 q 128 310 110 257 z "},"w":{"ha":764,"x_min":46,"x_max":818,"o":"m 269 347 q 259 339 269 347 q 195 260 249 331 q 122 136 142 190 q 101 47 101 82 q 131 13 101 13 q 215 56 161 13 q 413 324 303 128 q 433 333 418 333 q 473 326 447 333 q 499 306 499 318 q 496 297 499 301 q 422 83 438 203 q 436 18 417 43 q 510 24 454 -7 q 667 158 596 67 q 756 324 739 250 q 761 357 761 339 q 717 451 761 435 q 689 455 704 457 q 671 456 674 453 q 669 464 668 460 q 726 476 672 476 q 817 383 817 476 q 711 160 817 290 q 554 14 644 81 q 450 -21 504 -21 q 363 32 379 -21 q 353 111 353 57 q 367 200 353 165 q 285 74 329 125 q 209 3 240 22 q 146 -15 178 -15 q 68 15 90 -15 q 46 79 46 44 q 66 178 46 125 q 106 263 86 232 q 159 338 126 294 q 201 386 192 382 q 241 392 222 392 q 274 386 260 392 q 288 372 288 381 q 269 347 289 364 z "},"x":{"ha":569,"x_min":-42,"x_max":663,"o":"m 593 367 q 561 350 593 350 q 429 271 489 322 l 329 193 q 381 60 329 153 q 441 14 404 14 q 528 65 478 14 q 642 206 551 90 q 655 210 649 214 q 661 201 661 206 q 658 192 661 197 q 531 33 594 94 q 410 -26 465 -26 q 388 -24 399 -26 q 269 138 318 -8 q -19 -268 -14 -150 q -29 -285 -19 -285 l -36 -282 q -42 -268 -42 -276 q 32 -87 -42 -193 q 179 97 106 19 q 253 179 253 175 q 233 247 253 213 q 201 285 214 281 q 175 282 189 290 q 130 238 153 268 q 103 204 107 208 q 94 193 100 200 q 82 178 89 186 q 67 172 75 171 q 60 179 60 172 q 65 194 60 186 q 98 238 71 201 q 144 298 125 274 q 188 344 163 322 q 233 367 214 367 q 269 353 253 367 q 292 325 286 339 q 308 276 297 311 q 322 228 318 240 q 531 396 426 331 q 551 400 542 400 l 572 396 q 593 367 593 386 z "},"y":{"ha":578,"x_min":-81,"x_max":679,"o":"m 18 -529 q -10 -525 7 -529 q -81 -451 -81 -507 q -8 -310 -81 -394 q 300 -69 65 -225 q 465 304 431 197 q 400 220 449 285 q 314 110 351 156 q 224 25 276 65 q 126 -15 171 -15 q 58 5 82 -15 q 31 47 33 25 q 28 85 28 69 q 56 188 28 136 q 168 333 97 272 q 215 358 194 358 q 251 346 235 358 q 263 313 269 326 q 142 194 210 282 q 92 75 106 147 q 90 51 90 65 q 102 27 90 36 q 126 18 114 18 q 217 64 169 18 q 307 160 264 110 q 405 282 350 211 q 477 375 460 353 q 513 397 494 397 q 558 385 535 397 q 578 365 582 372 q 508 208 575 358 q 410 -8 440 57 q 523 77 443 10 q 658 214 603 144 q 676 217 672 231 q 678 208 678 214 q 669 190 678 201 q 532 47 626 133 q 382 -69 438 -39 q 224 -375 264 -312 q 18 -529 119 -529 m 274 -122 q 35 -319 107 -247 q -36 -444 -36 -392 q 0 -496 -36 -496 q 64 -467 28 -496 q 133 -392 100 -439 q 184 -310 167 -344 q 232 -210 201 -276 q 274 -122 263 -144 z "},"z":{"ha":586,"x_min":13,"x_max":685,"o":"m 419 294 q 270 325 321 325 q 174 283 219 325 q 90 188 128 240 q 60 168 68 161 q 61 190 51 175 l 154 318 q 219 376 181 356 q 243 383 232 383 q 267 383 254 383 q 288 381 279 382 q 326 373 297 381 q 361 364 356 365 l 468 339 q 516 369 490 360 q 556 379 542 379 q 576 364 569 379 q 538 307 578 331 q 481 283 499 283 q 457 285 464 283 q 263 121 336 186 q 181 49 189 56 l 222 28 q 367 -28 318 -28 q 438 -6 399 -28 q 549 84 476 17 q 660 206 621 151 q 676 212 667 215 q 685 206 685 208 q 599 99 685 186 q 472 -19 514 11 q 338 -71 403 -71 q 186 -17 272 -71 q 132 10 154 3 q 38 -37 69 -37 q 22 -35 29 -37 q 13 -8 13 -25 q 29 29 13 8 q 107 65 56 65 q 161 56 132 65 q 204 93 200 88 q 419 294 274 153 z "},"{":{"ha":575,"x_min":63,"x_max":571,"o":"m 557 760 q 571 747 571 760 q 557 733 571 733 q 459 726 489 733 q 410 703 429 719 q 376 663 392 686 q 350 616 360 639 q 335 578 340 593 q 322 533 331 563 q 263 412 293 433 q 165 379 232 390 q 226 289 226 347 q 201 221 226 251 q 183 194 200 218 q 162 162 167 169 q 145 133 157 154 q 129 99 133 111 q 123 22 118 65 q 175 -43 128 -21 q 231 -60 210 -60 q 263 -57 251 -60 q 274 -65 274 -54 q 258 -81 271 -78 q 219 -82 238 -82 q 188 -82 201 -82 q 108 -53 147 -81 q 63 38 63 -21 q 103 164 63 100 q 151 235 119 190 q 183 311 183 281 q 92 371 183 356 q 80 385 79 372 q 93 399 81 399 q 250 442 218 399 q 269 487 267 464 q 274 544 272 510 q 278 594 275 578 q 329 694 286 647 q 444 754 372 742 q 557 760 475 760 z "},"|":{"ha":357,"x_min":179,"x_max":225,"o":"m 225 -85 l 179 -85 l 179 794 l 225 794 l 225 -85 z "},"}":{"ha":647,"x_min":43,"x_max":633,"o":"m 181 -69 q 83 -85 122 -85 q 43 -75 43 -85 q 49 -62 43 -71 q 65 -57 56 -54 q 97 -60 75 -60 q 175 -40 118 -60 q 283 32 232 -21 q 331 103 313 64 q 352 160 349 142 q 363 221 356 178 q 410 308 368 264 q 531 379 453 351 q 475 396 490 388 q 460 427 460 404 q 474 476 460 450 q 511 544 488 503 q 561 681 564 639 q 553 710 558 703 q 543 721 547 717 q 528 727 539 725 q 513 731 518 729 q 492 733 507 732 q 469 733 478 733 q 439 733 454 733 q 436 746 424 733 q 460 760 449 758 q 568 754 543 760 q 632 686 632 742 q 600 594 632 640 q 560 544 588 578 q 517 487 533 510 q 499 442 500 464 q 518 411 497 421 q 618 399 549 399 q 622 385 633 399 q 597 371 611 372 q 472 326 510 358 q 424 229 433 294 q 337 26 406 99 q 181 -69 268 -46 z "},"~":{"ha":568,"x_min":185,"x_max":560,"o":"m 503 492 q 461 475 479 475 q 431 479 443 475 q 392 495 418 483 q 353 511 365 507 q 276 519 297 531 q 207 471 231 508 q 199 467 204 467 q 190 469 194 467 q 186 474 186 472 q 201 497 186 476 q 231 536 215 517 q 272 568 247 556 q 314 581 296 581 l 339 576 q 390 553 350 572 q 478 521 453 521 q 535 567 518 521 q 549 571 540 575 q 558 564 558 567 q 503 492 558 532 z "},"":{"ha":2083,"x_min":0,"x_max":0,"o":""},"":{"ha":304,"x_min":0,"x_max":0,"o":""},"":{"ha":397,"x_min":-21,"x_max":361,"o":"m 283 343 q 128 -57 200 110 q 49 -235 57 -224 q 31 -246 40 -246 q 1 -231 22 -246 q -21 -187 -21 -215 q 13 -104 -21 -160 q 28 -86 17 -96 q 43 -67 39 -76 q 236 351 194 224 q 265 367 242 364 q 286 353 288 371 l 283 343 m 361 544 q 329 509 361 535 q 292 483 297 483 q 283 482 288 482 q 278 487 279 482 q 278 501 278 492 l 278 517 q 292 546 278 524 q 314 568 307 568 q 361 544 361 568 z "},"":{"ha":640,"x_min":83,"x_max":643,"o":"m 568 628 l 542 625 q 260 122 379 372 q 301 121 272 121 q 374 135 329 121 q 592 247 501 169 q 619 253 619 269 q 599 219 619 238 q 336 93 479 115 q 279 86 303 86 q 243 88 256 86 q 201 -7 229 54 q 158 -33 190 -31 q 138 -18 136 -33 q 190 100 140 1 q 83 260 83 136 q 158 440 83 343 q 338 601 233 536 q 526 674 442 667 q 583 744 565 744 q 603 719 607 744 q 599 711 603 715 l 572 672 l 589 669 q 642 608 642 650 q 638 583 642 597 l 628 564 q 608 531 619 546 q 588 528 597 515 q 590 562 579 540 q 600 601 600 583 q 568 628 600 628 m 146 215 q 210 135 146 156 q 486 611 331 360 q 244 433 349 565 q 154 263 185 357 q 146 215 146 236 z "},"":{"ha":763,"x_min":22,"x_max":856,"o":"m 22 -11 q 50 62 24 26 q 114 104 76 97 q 200 324 174 258 q 90 311 106 311 q 63 321 75 311 q 50 345 50 331 q 81 372 50 360 q 129 385 113 385 q 157 373 146 385 q 172 361 168 361 q 217 365 175 361 q 426 728 319 606 q 539 803 475 781 q 602 813 571 813 q 665 801 633 813 q 749 688 750 767 q 721 608 743 640 q 703 597 713 597 q 692 604 694 596 q 697 628 690 613 q 710 695 711 650 q 682 758 710 740 q 635 775 654 775 q 528 739 582 775 q 281 372 432 672 q 413 382 365 382 q 461 376 461 382 q 263 331 461 357 q 154 107 185 172 q 181 99 164 104 q 204 93 197 94 q 482 26 342 46 q 543 22 514 22 q 710 73 646 22 q 835 206 775 124 q 848 209 840 213 q 856 202 856 206 q 853 194 856 199 q 778 99 832 157 q 670 2 724 40 q 532 -36 617 -36 q 455 -29 493 -36 q 289 12 417 -22 q 140 54 161 46 l 107 24 q 80 -6 89 -1 q 69 -8 71 -10 q 57 -14 61 -14 q 31 -24 40 -24 q 22 -11 22 -24 z "},"":{"ha":2083,"x_min":0,"x_max":0,"o":""},"":{"ha":707,"x_min":78,"x_max":683,"o":"m 210 65 q 319 161 210 97 q 582 353 482 257 q 479 485 540 426 q 426 533 457 506 q 383 572 396 560 q 369 595 369 585 q 376 613 369 606 q 396 621 383 621 q 444 594 414 621 q 551 509 475 567 q 646 432 626 451 q 669 408 665 413 q 676 397 674 403 q 681 390 679 392 q 682 384 682 388 q 681 377 682 381 q 674 368 679 374 q 668 361 669 363 q 658 353 667 360 q 628 324 650 346 q 543 257 606 303 q 439 183 481 211 q 239 60 332 113 q 211 60 218 46 q 210 65 210 63 m 604 -17 q 646 -35 646 -17 q 638 -47 646 -39 q 599 -57 629 -54 q 348 -64 569 -60 q 117 -69 126 -68 q 106 -69 108 -69 q 79 -56 79 -69 q 110 -21 79 -35 q 124 -18 117 -18 l 604 -17 z "},"":{"ha":739,"x_min":-35,"x_max":804,"o":"m 556 81 q 656 218 656 156 q 624 289 656 253 q 507 350 592 325 q 442 364 490 354 q 294 413 342 385 q 208 354 243 390 q 174 290 174 318 q 184 245 174 261 q 207 219 194 229 q 244 199 219 208 q 286 183 269 189 q 375 160 339 168 q 556 81 506 128 m 621 768 q 804 678 804 768 q 799 643 804 668 q 781 633 790 626 q 772 656 772 639 q 714 706 772 693 q 646 714 674 714 q 503 700 579 714 q 359 649 428 686 q 290 556 290 611 q 317 500 290 521 q 456 446 357 471 q 511 432 483 439 q 573 412 539 425 q 642 378 607 399 q 715 261 715 338 q 672 151 715 208 q 575 61 629 94 q 600 -15 600 25 q 528 -147 600 -85 q 258 -271 418 -246 q 119 -283 179 -283 q 12 -260 58 -283 q -35 -189 -35 -236 q -12 -101 -35 -142 q 1 -94 -6 -87 q 1 -119 7 -101 q -6 -160 -6 -136 q 24 -210 -6 -185 q 124 -236 56 -236 q 341 -209 258 -236 q 480 -135 424 -182 q 536 -39 536 -87 q 392 74 536 32 q 324 90 372 79 q 246 109 276 100 q 181 136 215 118 q 112 260 111 169 q 272 428 113 350 q 228 522 228 464 q 228 532 228 526 q 281 639 228 589 q 508 757 368 724 q 621 768 551 768 z "},"":{"ha":544,"x_min":250,"x_max":563,"o":"m 342 557 l 333 519 q 319 487 333 508 q 297 465 306 465 q 250 489 250 465 q 289 522 250 492 q 338 560 335 560 q 342 557 342 560 m 563 557 l 554 519 q 540 487 554 508 q 517 465 525 465 q 471 489 471 465 q 510 522 471 492 q 559 560 556 560 q 563 557 563 560 z "},"":{"ha":1022,"x_min":17,"x_max":1003,"o":"m 765 242 q 603 103 701 158 q 403 49 504 49 q 244 115 303 49 q 201 235 201 163 q 246 393 201 307 q 414 593 307 508 q 635 678 521 678 q 749 589 749 678 q 724 524 749 550 q 669 489 699 499 q 642 497 639 479 q 668 533 643 511 q 693 583 693 554 q 671 625 693 611 q 634 639 649 639 q 618 639 619 639 q 458 560 546 639 q 318 375 369 481 q 275 231 275 292 q 313 122 275 158 q 411 85 350 85 q 582 135 488 85 q 739 267 676 186 q 756 279 746 276 q 772 268 765 282 q 765 242 778 254 m 944 394 q 871 611 944 513 q 538 768 753 768 q 269 683 394 768 q 86 414 121 581 q 78 329 78 371 q 151 113 78 211 q 483 -46 269 -46 q 751 40 626 -46 q 936 310 901 143 q 944 394 944 353 m 999 361 q 812 40 972 172 q 449 -93 651 -93 q 122 39 247 -93 q 18 297 18 149 q 208 683 18 525 q 570 817 368 817 q 897 683 772 817 q 1003 419 1003 572 q 999 361 1003 392 z "},"":{"ha":903,"x_min":203,"x_max":915,"o":"m 528 798 q 505 772 528 798 q 422 697 482 746 q 310 649 361 649 q 224 694 258 649 q 203 750 203 722 q 306 917 203 826 q 433 1010 367 971 q 607 1068 533 1068 q 681 1047 651 1068 q 704 1011 704 1033 q 703 1002 704 1003 q 696 1004 701 1001 q 626 1031 678 1031 q 508 996 575 1031 q 389 913 442 961 q 299 806 336 864 q 263 722 263 749 q 292 672 263 672 q 392 729 321 672 q 515 840 463 786 q 653 978 643 978 q 694 969 671 978 q 708 944 717 960 q 625 743 638 843 q 624 712 624 731 q 635 681 624 693 q 660 668 647 668 q 700 682 674 668 q 791 754 726 696 q 896 868 856 813 q 908 873 901 876 q 915 867 915 869 q 849 776 915 846 q 749 681 783 706 q 629 632 683 632 q 557 685 575 632 q 553 722 553 701 q 579 853 553 783 q 528 798 574 850 z "},"":{"ha":526,"x_min":115,"x_max":529,"o":"m 528 475 q 367 294 528 449 q 442 144 426 179 q 444 99 457 108 q 440 97 443 97 q 422 114 432 97 q 304 257 379 182 q 297 269 297 264 q 300 278 297 275 q 304 284 303 282 q 325 305 306 286 q 403 381 344 324 q 490 461 463 438 q 523 485 518 485 q 528 475 528 485 m 203 362 q 221 380 203 362 q 266 422 239 397 q 315 466 293 447 q 342 485 338 485 q 346 474 346 485 q 328 443 346 464 q 186 294 268 371 q 267 128 258 150 q 263 99 276 106 q 258 97 261 97 q 242 114 251 97 q 132 247 200 179 q 117 272 117 263 q 119 283 117 281 q 144 306 121 285 q 203 362 167 326 z "},"":{"ha":1035,"x_min":49,"x_max":993,"o":"m 914 36 q 896 54 897 40 q 926 346 901 247 q 79 289 363 304 q 51 304 58 288 q 50 310 50 307 q 90 329 50 326 q 506 356 219 335 q 946 382 793 378 q 993 360 993 382 q 987 322 993 347 q 978 281 981 297 q 955 179 975 265 q 929 47 935 93 q 914 36 922 36 z "},"":{"ha":524,"x_min":199,"x_max":526,"o":"m 244 269 l 450 271 q 526 254 526 271 q 231 219 526 226 q 224 219 226 219 q 199 232 199 219 q 229 265 199 251 q 244 269 238 269 z "},"":{"ha":1022,"x_min":17,"x_max":1003,"o":"m 208 683 q 570 817 368 817 q 897 683 772 817 q 1003 419 1003 572 q 999 361 1003 392 q 812 40 972 172 q 449 -93 651 -93 q 122 39 247 -93 q 18 297 18 149 q 208 683 18 525 m 78 329 q 151 113 78 211 q 483 -46 269 -46 q 751 40 626 -46 q 936 310 901 143 q 944 394 944 353 q 871 611 944 513 q 538 768 753 768 q 269 683 394 768 q 86 414 121 581 q 78 329 78 371 m 726 506 q 743 558 743 536 q 653 653 743 632 q 616 660 638 660 q 558 654 594 660 q 490 640 521 649 q 417 617 458 632 q 374 603 376 603 q 356 613 364 600 q 349 633 349 626 q 381 658 349 650 q 549 686 486 686 q 753 631 690 686 q 785 558 785 600 q 753 461 785 506 q 675 392 721 417 q 489 322 585 342 q 582 197 522 257 q 615 165 608 172 q 656 128 622 158 q 697 92 690 99 q 697 81 703 86 q 676 72 690 72 q 551 165 640 72 q 425 313 461 258 q 382 310 389 307 l 371 315 q 299 90 315 192 q 276 83 290 85 q 257 93 263 82 q 340 351 254 133 q 451 601 425 568 q 487 599 460 610 q 508 576 514 589 q 446 460 489 539 q 382 339 403 381 q 640 417 529 342 q 726 506 699 457 z "},"":{"ha":524,"x_min":183,"x_max":510,"o":"m 474 505 q 456 502 474 505 q 342 494 438 500 q 215 489 247 489 q 183 501 183 489 q 214 535 183 522 l 228 539 l 433 540 q 510 524 507 540 q 474 505 510 510 z "},"":{"ha":492,"x_min":168,"x_max":419,"o":"m 368 761 q 371 797 371 775 q 347 841 371 818 q 275 864 322 864 q 240 844 253 864 q 228 806 228 824 q 258 751 228 771 q 319 731 289 731 q 368 761 363 731 m 351 688 q 303 683 333 683 q 228 711 272 683 q 168 810 168 749 q 193 874 168 843 q 244 910 218 906 q 289 915 271 915 q 377 887 336 915 q 418 789 418 858 q 351 688 418 704 z "},"":{"ha":854,"x_min":78,"x_max":754,"o":"m 124 -18 l 604 -17 q 642 -26 632 -17 q 640 -44 651 -35 q 599 -57 629 -54 q 348 -64 569 -60 q 117 -69 126 -68 q 106 -69 108 -69 q 79 -56 79 -69 q 110 -21 79 -35 q 124 -18 117 -18 m 711 340 q 753 322 753 340 q 745 311 753 318 q 708 301 738 304 q 486 296 679 299 l 383 56 q 338 28 371 28 q 332 65 313 28 q 436 294 388 183 q 218 289 228 289 q 186 303 186 288 q 214 336 186 322 q 231 340 224 340 l 457 340 q 553 546 542 524 q 578 568 564 568 q 593 553 593 568 q 585 524 593 542 l 507 340 l 711 340 z "},"":{"ha":251,"x_min":214,"x_max":457,"o":"m 414 561 l 440 553 q 457 528 457 543 q 447 506 457 510 q 334 444 425 488 q 228 401 243 401 q 214 404 214 400 q 217 413 214 408 q 236 428 221 417 q 272 452 251 439 q 301 472 292 465 q 333 497 310 479 q 401 558 386 536 q 414 561 410 561 z "},"":{"ha":618,"x_min":-197,"x_max":711,"o":"m -95 -451 q -97 -454 -95 -451 q -102 -460 -99 -457 q -131 -476 -106 -462 q -176 -490 -156 -490 q -196 -481 -196 -490 q -193 -469 -196 -476 q -57 -137 -144 -374 q 63 172 35 110 q 101 265 92 247 q 122 303 111 282 q 154 350 144 347 q 194 356 175 356 q 231 349 213 356 q 226 319 250 342 q 168 243 203 296 q 114 138 133 190 q 94 58 94 86 q 109 21 94 29 q 138 13 124 13 q 228 59 171 13 q 388 253 286 106 q 436 334 401 274 q 478 406 471 394 q 530 395 500 406 q 550 368 560 385 q 456 204 483 257 q 419 81 429 151 q 418 49 418 68 q 429 17 418 29 q 487 15 450 -6 q 588 92 524 35 q 690 206 651 150 q 703 209 696 213 q 711 202 711 206 q 708 194 711 199 q 633 99 688 157 q 485 -19 544 3 q 391 -25 419 -42 q 356 14 363 -8 q 349 57 349 36 q 376 200 349 129 q 338 141 372 197 q 255 35 304 85 q 156 -15 206 -15 q 106 -4 135 -15 q 64 25 78 7 q 22 -90 51 -10 q -27 -221 -8 -169 q -47 -303 -46 -272 q -53 -347 -47 -333 q -65 -378 -58 -360 q -74 -404 -71 -396 q -82 -424 -78 -412 q -89 -440 -86 -435 q -95 -451 -92 -444 z "},"":{"ha":735,"x_min":71,"x_max":742,"o":"m 586 747 q 394 344 442 453 q 501 357 450 347 q 665 754 614 664 q 585 761 596 761 q 586 747 592 754 m 388 -100 q 367 -78 367 -100 q 485 310 367 -15 q 435 308 463 308 q 378 311 408 308 q 249 -94 279 74 q 238 -100 243 -100 q 214 -83 217 -100 q 333 317 208 -25 q 242 336 292 321 q 115 412 160 360 q 71 522 71 464 q 111 638 71 579 q 458 790 200 764 q 563 794 501 794 q 696 775 625 794 q 728 768 714 775 q 742 756 742 761 q 738 742 742 750 q 698 664 733 735 q 652 572 663 593 q 609 483 642 550 q 563 384 576 417 q 524 291 550 351 q 483 190 497 231 q 451 97 469 150 q 401 -94 419 3 q 388 -100 396 -100 m 124 492 q 125 472 124 482 q 288 353 142 382 q 346 346 326 347 q 515 760 461 664 q 210 639 331 743 q 124 492 124 564 z "},"":{"ha":288,"x_min":163,"x_max":246,"o":"m 246 276 l 246 256 q 232 223 246 244 q 210 201 218 201 q 163 225 163 201 q 185 250 163 231 q 214 275 207 269 q 238 288 231 288 q 246 276 246 288 z "},"":{"ha":649,"x_min":65,"x_max":451,"o":"m 322 -153 l 242 -164 q 228 -158 229 -164 q 240 -138 228 -153 q 276 -81 251 -124 q 307 -17 300 -37 q 325 -4 313 -4 q 356 -12 354 -4 q 317 -69 356 -17 q 276 -126 279 -122 q 340 -121 306 -121 q 404 -139 374 -121 q 451 -217 451 -167 q 403 -312 451 -268 q 201 -392 315 -392 l 163 -389 q 72 -336 99 -381 q 67 -316 67 -324 q 76 -312 67 -308 q 92 -326 85 -315 q 186 -368 119 -368 q 350 -297 281 -368 q 388 -222 388 -260 q 367 -169 388 -185 q 322 -153 346 -153 z "},"":{"ha":801,"x_min":272,"x_max":806,"o":"m 332 756 q 394 681 332 681 q 466 711 426 681 q 538 789 506 742 q 535 797 535 794 q 540 834 529 819 q 569 843 550 849 q 596 922 596 894 q 591 960 596 949 q 586 978 586 971 q 603 999 586 993 q 622 1001 611 1001 q 645 982 639 1001 q 651 946 651 963 q 585 792 651 883 q 596 764 586 774 q 623 754 606 754 q 666 771 640 754 q 703 799 692 788 q 738 836 715 811 q 786 894 763 861 q 796 900 790 900 q 806 890 806 900 q 757 819 806 876 q 617 722 674 722 q 558 757 576 722 q 496 697 532 728 q 385 657 450 657 q 321 676 347 657 q 274 778 274 706 q 285 854 274 811 q 406 1038 311 953 q 533 1093 474 1093 q 563 1089 549 1093 q 603 1033 603 1074 q 588 1006 603 1006 q 578 1013 579 1007 q 576 1039 582 1026 q 551 1051 569 1051 q 426 961 503 1051 q 332 756 332 851 z "},"":{"ha":526,"x_min":117,"x_max":531,"o":"m 260 231 q 243 215 260 231 q 198 172 226 199 q 148 128 169 146 q 122 110 126 110 q 118 119 118 110 q 130 143 118 129 q 156 174 142 157 q 181 203 171 192 q 278 301 211 238 q 199 459 210 429 q 200 494 188 489 q 204 496 203 496 q 222 479 213 496 q 332 346 260 418 q 347 319 349 324 q 325 292 346 314 q 260 231 294 264 m 531 324 l 528 317 q 523 308 528 311 q 498 285 518 304 q 442 231 478 265 q 304 110 315 110 q 299 119 299 110 q 460 301 299 146 q 381 456 393 424 q 381 494 368 489 q 385 496 383 496 q 403 479 393 496 q 519 339 440 418 q 526 331 524 335 q 529 326 528 328 q 531 324 531 325 z "},"":{"ha":568,"x_min":31,"x_max":536,"o":"m 453 497 l 453 514 q 467 546 453 524 q 489 568 481 568 q 536 544 536 568 q 508 513 536 535 q 473 486 481 490 q 461 481 465 482 q 453 497 453 478 m 485 -126 q 403 -187 461 -179 q 351 -208 388 -189 q 267 -236 315 -226 l 199 -242 q 86 -208 129 -242 q 31 -79 31 -165 q 172 150 31 33 q 254 213 208 181 q 321 261 300 244 q 365 305 342 278 q 392 357 388 332 q 409 369 394 369 q 422 348 424 369 q 395 294 419 326 q 350 243 371 263 q 285 185 329 224 q 158 52 196 108 q 121 -101 121 -4 q 148 -185 121 -151 q 221 -218 175 -218 q 390 -129 299 -218 q 438 -69 403 -117 q 486 -19 474 -21 q 496 -58 496 -19 q 485 -126 496 -96 z "},"":{"ha":653,"x_min":15,"x_max":1297,"o":"m 978 257 q 949 70 949 147 q 987 -7 949 -7 q 1099 49 1025 -7 q 1253 207 1183 113 q 1265 209 1257 213 q 1267 188 1274 206 q 1189 93 1261 171 q 1096 8 1149 50 q 968 -35 1043 -35 q 906 4 925 -35 q 886 101 886 43 q 911 263 886 160 q 746 281 807 272 q 425 -50 551 42 q 197 -132 315 -132 q 69 -94 122 -132 q 15 17 15 -57 q 22 42 15 31 q 36 49 29 54 q 43 17 43 43 q 80 -54 43 -31 q 169 -78 117 -78 q 394 -3 283 -78 q 694 288 504 71 q 505 308 568 303 q 425 313 442 313 q 207 197 249 313 q 201 169 201 182 q 207 145 201 156 q 209 128 213 135 q 197 123 206 122 q 183 132 189 124 q 168 183 168 158 q 169 218 168 208 q 276 364 181 338 q 382 376 322 376 q 725 324 456 376 q 1104 790 800 410 q 1114 799 1108 796 q 1186 818 1147 818 q 1200 804 1200 818 q 1199 801 1200 803 q 1196 795 1197 799 q 1193 789 1194 792 q 986 292 1060 568 l 982 282 q 1000 281 989 282 q 1019 280 1011 281 q 1056 279 1028 279 q 1117 292 1085 279 q 1157 320 1149 306 q 1174 328 1165 335 q 1175 310 1182 321 q 1121 269 1160 282 q 1055 256 1088 256 q 1013 256 1022 256 l 978 257 m 1051 679 q 772 313 878 442 l 918 289 q 1044 664 957 440 l 1051 679 m 1290 914 q 1297 905 1297 911 q 1284 899 1297 899 q 1209 927 1271 899 q 1118 971 1147 956 q 1050 1032 1050 1007 q 1069 1051 1050 1044 q 1079 1053 1074 1053 q 1149 1018 1103 1053 q 1290 914 1196 983 z "},"":{"ha":1179,"x_min":15,"x_max":1424,"o":"m 968 -35 q 906 3 925 -35 q 886 101 886 42 q 911 263 886 160 q 746 282 863 267 q 425 -50 553 43 q 197 -132 315 -132 q 69 -94 122 -132 q 15 17 15 -57 q 22 42 15 31 q 36 49 29 54 q 43 17 43 43 q 80 -54 43 -31 q 169 -78 117 -78 q 394 -3 283 -78 q 694 288 504 71 q 425 313 490 313 q 207 197 249 313 q 201 169 201 182 q 207 145 201 156 q 209 128 213 135 q 197 123 206 122 q 183 132 189 124 q 168 183 168 158 q 199 310 168 269 q 272 363 231 351 q 389 376 322 376 q 725 324 456 376 q 1104 790 800 410 q 1114 799 1108 796 q 1186 818 1147 818 q 1200 804 1200 818 q 1199 801 1200 803 q 1196 795 1197 799 q 1193 789 1194 792 q 986 292 1060 568 l 982 282 l 1017 281 q 1056 279 1028 279 q 1117 292 1085 279 q 1158 321 1149 306 q 1174 328 1167 336 q 1175 310 1181 319 q 1121 269 1160 282 q 1055 256 1088 256 q 1013 256 1022 256 l 975 257 q 949 65 949 136 q 988 -7 949 -7 q 1104 53 1025 -7 q 1253 207 1183 113 q 1265 209 1257 213 q 1270 196 1274 206 q 1247 161 1267 186 q 1104 14 1189 83 q 968 -35 1043 -35 m 1044 664 q 1048 672 1046 667 q 1051 679 1050 676 q 772 313 878 442 l 918 289 q 1044 664 957 440 m 1415 1018 q 1302 957 1393 1000 q 1196 913 1211 914 q 1181 917 1181 913 q 1184 925 1181 921 q 1203 939 1188 929 q 1260 979 1244 965 q 1300 1008 1276 993 q 1368 1069 1350 1044 q 1384 1072 1379 1072 q 1408 1065 1389 1072 q 1424 1039 1424 1056 q 1415 1018 1424 1026 z "},"":{"ha":653,"x_min":15,"x_max":1356,"o":"m 978 257 q 949 70 949 147 q 987 -7 949 -7 q 1099 49 1025 -7 q 1253 207 1183 113 q 1265 209 1257 213 q 1267 188 1274 206 q 1189 93 1261 171 q 1096 8 1149 50 q 968 -35 1043 -35 q 906 4 925 -35 q 886 101 886 43 q 911 263 886 160 q 746 281 807 272 q 425 -50 551 42 q 197 -132 315 -132 q 69 -94 122 -132 q 15 17 15 -57 q 22 42 15 31 q 36 49 29 54 q 43 17 43 43 q 80 -54 43 -31 q 169 -78 117 -78 q 394 -3 283 -78 q 694 288 504 71 q 505 308 568 303 q 425 313 442 313 q 207 197 249 313 q 201 169 201 182 q 207 145 201 156 q 209 128 213 135 q 197 123 206 122 q 183 132 189 124 q 168 183 168 158 q 169 218 168 208 q 276 364 181 338 q 382 376 322 376 q 725 324 456 376 q 1104 790 800 410 q 1114 799 1108 796 q 1186 818 1147 818 q 1200 804 1200 818 q 1199 801 1200 803 q 1196 795 1197 799 q 1193 789 1194 792 q 986 292 1060 568 l 982 282 q 1000 281 989 282 q 1019 280 1011 281 q 1056 279 1028 279 q 1117 292 1085 279 q 1157 320 1149 306 q 1174 328 1165 335 q 1175 310 1182 321 q 1121 269 1160 282 q 1055 256 1088 256 q 1013 256 1022 256 l 978 257 m 1051 679 q 772 313 878 442 l 918 289 q 1044 664 957 440 l 1051 679 m 1238 1032 q 1292 981 1256 1025 q 1342 916 1328 938 q 1356 885 1356 894 q 1349 876 1356 876 q 1335 883 1343 876 q 1221 983 1229 975 q 1153 934 1194 968 q 1096 889 1111 900 q 1069 885 1069 875 q 1078 906 1069 899 q 1125 947 1086 913 q 1238 1032 1218 1032 z "},"":{"ha":653,"x_min":15,"x_max":1386,"o":"m 978 257 q 949 70 949 147 q 987 -7 949 -7 q 1099 49 1025 -7 q 1253 207 1183 113 q 1265 209 1257 213 q 1267 188 1274 206 q 1189 93 1261 171 q 1096 8 1149 50 q 968 -35 1043 -35 q 906 4 925 -35 q 886 101 886 43 q 911 263 886 160 q 746 281 807 272 q 425 -50 551 42 q 197 -132 315 -132 q 69 -94 122 -132 q 15 17 15 -57 q 22 42 15 31 q 36 49 29 54 q 43 17 43 43 q 80 -54 43 -31 q 169 -78 117 -78 q 394 -3 283 -78 q 694 288 504 71 q 505 308 568 303 q 425 313 442 313 q 207 197 249 313 q 201 169 201 182 q 207 145 201 156 q 209 128 213 135 q 197 123 206 122 q 183 132 189 124 q 168 183 168 158 q 169 218 168 208 q 276 364 181 338 q 382 376 322 376 q 725 324 456 376 q 1104 790 800 410 q 1106 794 1106 793 l 1107 794 q 1186 818 1146 818 q 1200 804 1200 818 q 1199 801 1200 803 q 1196 795 1197 799 q 1193 789 1194 792 q 986 292 1060 568 l 982 282 q 1000 281 989 282 q 1019 280 1011 281 q 1056 279 1028 279 q 1117 292 1085 279 q 1157 320 1149 306 q 1174 328 1165 335 q 1175 310 1182 321 q 1121 269 1160 282 q 1055 256 1088 256 q 1013 256 1022 256 l 978 257 m 1051 679 q 772 313 878 442 l 918 289 q 1044 664 957 440 l 1051 679 m 1331 914 q 1288 897 1306 897 q 1257 901 1269 897 q 1217 917 1244 906 q 1179 933 1190 929 q 1103 942 1118 951 q 1033 893 1058 932 q 1026 889 1031 889 q 1017 892 1021 889 q 1013 896 1013 894 q 1026 917 1013 897 q 1057 958 1040 938 q 1098 990 1074 978 q 1142 1003 1122 1003 l 1165 999 q 1217 974 1176 994 q 1310 943 1275 943 q 1361 989 1346 943 q 1376 993 1367 997 q 1385 986 1385 989 q 1331 914 1385 954 z "},"":{"ha":653,"x_min":15,"x_max":1353,"o":"m 978 257 q 949 70 949 147 q 987 -7 949 -7 q 1099 49 1025 -7 q 1253 207 1183 113 q 1265 209 1257 213 q 1267 188 1274 206 q 1189 93 1261 171 q 1096 8 1149 50 q 968 -35 1043 -35 q 906 4 925 -35 q 886 101 886 43 q 911 263 886 160 q 746 281 807 272 q 425 -50 551 42 q 197 -132 315 -132 q 69 -94 122 -132 q 15 17 15 -57 q 22 42 15 31 q 36 49 29 54 q 43 17 43 43 q 80 -54 43 -31 q 169 -78 117 -78 q 394 -3 283 -78 q 694 288 504 71 q 505 308 568 303 q 425 313 442 313 q 207 197 249 313 q 201 169 201 182 q 207 145 201 156 q 209 128 213 135 q 197 123 206 122 q 183 132 189 124 q 168 183 168 158 q 169 218 168 208 q 276 364 181 338 q 382 376 322 376 q 725 324 456 376 q 1104 790 800 410 q 1106 794 1106 793 l 1107 794 q 1186 818 1146 818 q 1200 804 1200 818 q 1199 801 1200 803 q 1196 795 1197 799 q 1193 789 1194 792 q 986 292 1060 568 l 982 282 q 1000 281 989 282 q 1019 280 1011 281 q 1056 279 1028 279 q 1117 292 1085 279 q 1157 320 1149 306 q 1174 328 1165 335 q 1175 310 1182 321 q 1121 269 1160 282 q 1055 256 1088 256 q 1013 256 1022 256 l 978 257 m 1051 679 q 772 313 878 442 l 918 289 q 1044 664 957 440 l 1051 679 m 1132 992 l 1124 954 q 1109 922 1124 943 q 1086 900 1094 900 q 1040 922 1040 900 q 1079 956 1040 925 q 1123 990 1118 988 q 1130 993 1128 993 q 1132 992 1132 993 m 1351 990 l 1343 954 q 1329 922 1343 943 q 1307 900 1315 900 q 1260 922 1260 900 q 1302 958 1260 925 q 1348 992 1344 992 q 1351 990 1351 992 z "},"":{"ha":653,"x_min":15,"x_max":1319,"o":"m 978 257 q 949 70 949 147 q 987 -7 949 -7 q 1099 49 1025 -7 q 1253 207 1183 113 q 1265 209 1257 213 q 1267 188 1274 206 q 1189 93 1261 171 q 1096 8 1149 50 q 968 -35 1043 -35 q 906 4 925 -35 q 886 101 886 43 q 911 263 886 160 q 746 281 807 272 q 425 -50 551 42 q 197 -132 315 -132 q 69 -94 122 -132 q 15 17 15 -57 q 22 42 15 31 q 36 49 29 54 q 43 17 43 43 q 80 -54 43 -31 q 169 -78 117 -78 q 394 -3 283 -78 q 694 288 504 71 q 505 308 568 303 q 425 313 442 313 q 207 197 249 313 q 201 169 201 182 q 207 145 201 156 q 209 128 213 135 q 197 123 206 122 q 183 132 189 124 q 168 183 168 158 q 169 218 168 208 q 276 364 181 338 q 382 376 322 376 q 725 324 456 376 q 1104 790 800 410 q 1106 794 1106 793 l 1107 794 q 1186 818 1146 818 q 1200 804 1200 818 q 1199 801 1200 803 q 1196 795 1197 799 q 1193 789 1194 792 q 986 292 1060 568 l 982 282 q 1000 281 989 282 q 1019 280 1011 281 q 1056 279 1028 279 q 1117 292 1085 279 q 1157 320 1149 306 q 1174 328 1165 335 q 1175 310 1182 321 q 1121 269 1160 282 q 1055 256 1088 256 q 1013 256 1022 256 l 978 257 m 1319 935 q 1258 839 1319 883 q 1200 819 1228 819 q 1149 829 1172 819 q 1104 888 1104 846 q 1106 901 1104 894 q 1160 972 1115 944 q 1229 993 1185 993 q 1319 935 1319 993 m 1051 679 q 772 313 878 442 l 918 289 q 1044 664 957 440 l 1051 679 m 1281 906 q 1288 925 1288 914 q 1239 976 1288 976 q 1171 941 1203 976 q 1142 875 1139 906 q 1193 839 1147 839 q 1248 860 1224 839 q 1281 906 1272 882 z "},"":{"ha":1186,"x_min":-1,"x_max":1186,"o":"m 1024 571 q 1083 715 1024 664 q 918 700 1000 713 q 804 669 836 688 q 715 540 782 657 q 607 339 649 424 q 810 338 724 338 q 906 335 896 338 q 912 322 915 332 q 843 307 908 311 q 836 307 839 307 l 821 306 q 590 299 686 299 q 564 178 564 225 q 567 106 564 131 q 612 26 574 57 q 717 -4 650 -4 q 966 51 838 -4 q 1169 194 1094 107 q 1185 190 1179 206 q 1186 181 1186 186 q 1182 172 1186 176 q 975 17 1110 85 q 676 -50 840 -50 q 567 -28 610 -50 q 488 119 488 13 q 526 297 488 197 q 411 296 432 297 l 174 296 q 83 94 124 214 q 38 -104 43 -26 q 31 -115 32 -115 q 14 -103 24 -115 q 0 -40 0 -85 q 37 114 0 6 q 117 290 74 222 l 90 290 q 62 310 63 290 q 90 338 61 331 l 106 340 q 147 344 122 340 q 361 594 217 450 q 510 714 432 665 q 646 763 588 763 q 694 754 665 763 q 729 729 724 746 q 919 747 796 747 q 1118 742 1042 747 q 1126 743 1125 743 q 1161 736 1149 747 q 1158 707 1174 725 q 1136 690 1157 706 q 1103 663 1115 675 q 1046 567 1046 608 q 1053 537 1046 550 q 1052 522 1061 524 q 1033 531 1043 519 q 1024 571 1024 538 m 264 340 l 543 339 q 597 440 558 372 q 658 561 636 507 q 683 673 683 624 q 653 740 683 722 q 196 340 426 676 l 264 340 z "},"":{"ha":667,"x_min":-6,"x_max":844,"o":"m 775 700 q 693 778 775 778 q 509 711 622 778 q 276 508 396 644 q 110 221 157 371 q 90 110 90 161 q 119 22 90 60 q 288 -46 171 -44 q 303 -46 296 -46 q 582 20 432 -46 q 822 214 732 86 q 837 218 829 224 q 844 208 844 213 q 842 201 844 204 q 589 -10 739 61 q 299 -81 439 -81 q 288 -81 293 -81 l 269 -81 q 234 -129 260 -96 q 204 -169 208 -162 q 268 -164 233 -164 q 333 -182 303 -164 q 381 -261 381 -210 q 332 -356 381 -312 q 131 -435 244 -435 l 92 -433 q 1 -379 28 -424 q -4 -359 -4 -367 q 5 -355 -4 -351 q 21 -369 14 -358 q 115 -411 49 -411 q 278 -340 208 -411 q 315 -265 315 -303 q 294 -212 315 -228 q 249 -196 274 -196 l 171 -207 q 158 -203 158 -207 q 180 -165 158 -194 q 229 -76 201 -135 q 63 24 117 -57 q 29 133 29 74 q 139 461 29 293 q 506 781 290 692 q 665 814 589 814 q 800 769 760 814 q 826 699 826 739 q 746 542 826 622 q 567 413 665 461 q 397 358 469 365 q 369 374 368 356 q 404 401 371 399 q 608 469 515 411 q 751 622 701 526 q 775 700 775 660 z "},"":{"ha":729,"x_min":33,"x_max":1004,"o":"m 624 819 q 630 817 624 819 q 645 812 636 815 q 662 805 654 808 q 678 796 669 801 q 692 786 686 790 q 706 774 697 782 q 722 760 714 767 q 743 740 731 753 q 783 711 764 715 q 796 708 786 708 q 813 700 806 707 q 837 653 821 693 q 853 588 853 614 q 847 534 853 563 q 826 506 840 506 q 783 575 804 506 q 765 631 772 617 q 682 750 726 713 q 600 788 642 788 q 564 781 582 788 q 482 672 497 753 q 475 600 475 639 q 492 501 475 561 q 543 394 508 440 q 617 381 550 386 q 657 356 651 376 q 640 325 663 336 q 581 325 633 315 q 544 333 567 326 q 515 340 522 339 q 346 307 440 339 q 172 209 251 275 q 93 64 93 143 q 142 -33 93 4 q 298 -69 190 -69 q 538 -36 406 -69 q 747 36 671 -3 q 896 146 822 75 q 969 268 969 217 q 969 282 969 276 q 973 291 968 288 q 985 288 978 294 q 1003 215 1003 253 q 961 125 1003 176 q 892 56 928 85 q 594 -72 786 -29 q 357 -104 451 -104 q 197 -87 263 -104 q 82 -21 131 -71 q 33 102 33 29 q 69 226 33 175 q 153 304 104 276 q 501 385 276 374 q 427 504 461 431 q 393 651 393 578 q 417 744 393 701 q 499 804 442 786 q 583 822 556 822 q 624 819 611 822 m 786 879 q 774 872 786 872 q 698 901 761 872 q 607 944 635 929 q 539 1006 539 982 q 558 1025 539 1018 q 568 1026 563 1026 q 639 993 593 1026 q 753 908 721 931 q 786 879 786 883 z "},"":{"ha":729,"x_min":33,"x_max":1004,"o":"m 624 819 q 630 817 624 819 q 645 812 636 815 q 662 805 654 808 q 678 796 669 801 q 692 786 686 790 q 706 774 697 782 q 722 760 714 767 q 743 740 731 753 q 783 711 764 715 q 796 708 786 708 q 813 700 806 707 q 837 653 821 693 q 853 588 853 614 q 847 534 853 563 q 826 506 840 506 q 783 575 804 506 q 765 631 772 617 q 682 750 726 713 q 600 788 642 788 q 564 781 582 788 q 482 672 497 753 q 475 600 475 639 q 492 501 475 561 q 543 394 508 440 q 617 381 550 386 q 657 356 651 376 q 640 325 663 336 q 581 325 633 315 q 544 333 567 326 q 515 340 522 339 q 346 307 440 339 q 172 209 251 275 q 93 64 93 143 q 142 -33 93 4 q 298 -69 190 -69 q 538 -36 406 -69 q 747 36 671 -3 q 896 146 822 75 q 969 268 969 217 q 969 282 969 276 q 973 291 968 288 q 985 288 978 294 q 1003 215 1003 253 q 961 125 1003 176 q 892 56 928 85 q 594 -72 786 -29 q 357 -104 451 -104 q 197 -87 263 -104 q 82 -21 131 -71 q 33 102 33 29 q 69 226 33 175 q 153 304 104 276 q 501 385 276 374 q 427 504 461 431 q 393 651 393 578 q 417 744 393 701 q 499 804 442 786 q 583 822 556 822 q 624 819 611 822 m 856 997 q 743 936 833 979 q 638 892 653 893 q 624 897 624 892 q 626 905 624 901 q 644 919 629 908 q 703 960 690 950 q 739 989 715 971 q 808 1049 792 1025 q 824 1051 819 1051 q 849 1044 829 1051 q 865 1019 865 1035 q 856 997 865 1007 z "},"":{"ha":729,"x_min":33,"x_max":1004,"o":"m 624 819 q 630 817 624 819 q 645 812 636 815 q 662 805 654 808 q 678 796 669 801 q 692 786 686 790 q 706 774 697 782 q 722 760 714 767 q 743 740 731 753 q 783 711 764 715 q 796 708 786 708 q 813 700 806 707 q 837 653 821 693 q 853 588 853 614 q 847 534 853 563 q 826 506 840 506 q 783 575 804 506 q 765 631 772 617 q 682 750 726 713 q 600 788 642 788 q 564 781 582 788 q 482 672 497 753 q 475 600 475 639 q 492 501 475 561 q 543 394 508 440 q 617 381 550 386 q 657 356 651 376 q 640 325 663 336 q 581 325 633 315 q 544 333 567 326 q 515 340 522 339 q 346 307 440 339 q 172 209 251 275 q 93 64 93 143 q 142 -33 93 4 q 298 -69 190 -69 q 538 -36 406 -69 q 747 36 671 -3 q 896 146 822 75 q 969 268 969 217 q 969 282 969 276 q 973 291 968 288 q 985 288 978 294 q 1003 215 1003 253 q 961 125 1003 176 q 892 56 928 85 q 594 -72 786 -29 q 357 -104 451 -104 q 197 -87 263 -104 q 82 -21 131 -71 q 33 102 33 29 q 69 226 33 175 q 153 304 104 276 q 501 385 276 374 q 427 504 461 431 q 393 651 393 578 q 417 744 393 701 q 499 804 442 786 q 583 822 556 822 q 624 819 611 822 m 819 892 q 825 873 825 882 q 819 864 825 864 q 806 872 814 864 q 747 922 797 879 q 690 971 697 964 q 626 925 667 957 q 539 872 540 854 q 549 894 539 885 q 596 936 560 903 q 708 1019 689 1019 q 819 892 743 1007 z "},"":{"ha":729,"x_min":33,"x_max":1004,"o":"m 624 819 q 630 817 624 819 q 645 812 636 815 q 662 805 654 808 q 678 796 669 801 q 692 786 686 790 q 706 774 697 782 q 722 760 714 767 q 743 740 731 753 q 783 711 764 715 q 796 708 786 708 q 813 700 806 707 q 837 653 821 693 q 853 588 853 614 q 847 534 853 563 q 826 506 840 506 q 783 575 804 506 q 765 631 772 617 q 682 750 726 713 q 600 788 642 788 q 564 781 582 788 q 482 672 497 753 q 475 600 475 639 q 492 501 475 561 q 543 394 508 440 q 617 381 550 386 q 657 356 651 376 q 640 325 663 336 q 581 325 633 315 q 544 333 567 326 q 515 340 522 339 q 346 307 440 339 q 172 209 251 275 q 93 64 93 143 q 142 -33 93 4 q 298 -69 190 -69 q 538 -36 406 -69 q 747 36 671 -3 q 896 146 822 75 q 969 268 969 217 q 969 282 969 276 q 973 291 968 288 q 985 288 978 294 q 1003 215 1003 253 q 961 125 1003 176 q 892 56 928 85 q 594 -72 786 -29 q 357 -104 451 -104 q 197 -87 263 -104 q 82 -21 131 -71 q 33 102 33 29 q 69 226 33 175 q 153 304 104 276 q 501 385 276 374 q 427 504 461 431 q 393 651 393 578 q 417 744 393 701 q 499 804 442 786 q 583 822 556 822 q 624 819 611 822 m 639 974 l 631 936 q 616 903 631 925 q 593 882 601 882 q 547 906 547 882 q 586 939 547 908 q 635 976 632 976 q 639 974 639 976 m 814 882 q 767 906 767 882 q 809 942 767 908 q 855 975 851 975 q 858 972 858 975 q 856 958 858 969 l 850 936 q 836 903 850 925 q 814 882 822 882 z "},"":{"ha":433,"x_min":11,"x_max":844,"o":"m 799 708 q 639 728 743 728 q 594 594 636 717 q 569 519 589 575 q 539 434 550 463 q 508 355 528 406 q 474 272 489 304 q 439 200 458 240 q 399 128 419 160 q 352 65 379 97 q 307 18 325 32 q 399 18 331 18 q 518 22 467 18 q 574 21 569 25 q 575 10 579 17 q 565 -1 571 4 q 549 -12 560 -7 q 349 -24 539 -18 q 91 -29 158 -29 q 17 -19 24 -29 q 11 -2 11 -12 q 19 31 11 8 q 58 59 29 53 q 97 54 86 65 q 193 17 147 17 q 333 94 274 17 q 569 726 446 244 q 357 674 442 715 q 272 567 272 633 q 284 528 272 544 q 306 504 296 511 q 335 488 317 497 q 360 473 353 478 q 365 464 367 468 q 353 463 364 460 q 282 503 319 469 q 243 579 244 536 q 239 606 239 594 q 288 708 239 665 q 585 789 382 789 q 589 803 585 794 q 610 817 590 813 q 649 817 631 821 q 665 803 667 814 q 658 785 660 792 q 811 746 760 778 q 843 708 843 726 q 833 700 843 700 q 799 708 822 700 m 757 888 q 757 886 757 888 q 744 885 757 885 q 669 913 731 885 q 578 958 607 942 q 510 1018 510 994 q 529 1038 510 1031 q 537 1039 533 1039 q 544 1039 540 1039 q 552 1038 547 1039 q 560 1035 557 1036 q 567 1032 563 1035 q 575 1028 572 1029 q 584 1023 578 1026 q 592 1018 590 1019 q 631 989 607 1008 q 705 933 656 969 q 756 894 754 897 q 757 888 757 892 z "},"":{"ha":433,"x_min":11,"x_max":844,"o":"m 799 708 q 639 728 743 728 q 594 594 636 717 q 569 519 589 575 q 539 434 550 463 q 508 355 528 406 q 474 272 489 304 q 439 200 458 240 q 399 128 419 160 q 352 65 379 97 q 307 18 325 32 q 399 18 331 18 q 518 22 467 18 q 574 21 569 25 q 575 10 579 17 q 565 -1 571 4 q 549 -12 560 -7 q 349 -24 539 -18 q 91 -29 158 -29 q 17 -19 24 -29 q 11 -2 11 -12 q 19 31 11 8 q 58 59 29 53 q 97 54 86 65 q 193 17 147 17 q 333 94 274 17 q 569 726 446 244 q 357 674 442 715 q 272 567 272 633 q 284 528 272 544 q 306 504 296 511 q 335 488 317 497 q 360 473 353 478 q 365 464 367 468 q 353 463 364 460 q 282 503 319 469 q 243 579 244 536 q 239 606 239 594 q 288 708 239 665 q 585 789 382 789 q 589 803 585 794 q 610 817 590 813 q 649 817 631 821 q 665 803 667 814 q 658 785 660 792 q 811 746 760 778 q 843 708 843 726 q 833 700 843 700 q 799 708 822 700 m 835 990 q 722 929 813 972 q 617 885 632 886 q 603 890 603 885 q 606 898 603 894 q 624 911 608 901 q 682 953 669 943 q 719 981 694 964 q 788 1042 771 1018 q 803 1044 799 1044 q 828 1038 808 1044 q 844 1013 844 1028 q 835 990 844 1000 z "},"":{"ha":433,"x_min":11,"x_max":844,"o":"m 799 708 q 639 728 743 728 q 594 594 636 717 q 569 519 589 575 q 539 434 550 463 q 508 355 528 406 q 474 272 489 304 q 439 200 458 240 q 399 128 419 160 q 352 65 379 97 q 307 18 325 32 q 399 18 331 18 q 518 22 467 18 q 574 21 569 25 q 575 10 579 17 q 565 -1 571 4 q 549 -12 560 -7 q 349 -24 539 -18 q 91 -29 158 -29 q 17 -19 24 -29 q 11 -2 11 -12 q 19 31 11 8 q 58 59 29 53 q 97 54 86 65 q 193 17 147 17 q 333 94 274 17 q 569 726 446 244 q 357 674 442 715 q 272 567 272 633 q 284 528 272 544 q 306 504 296 511 q 335 488 317 497 q 360 473 353 478 q 365 464 367 468 q 353 463 364 460 q 282 503 319 469 q 243 579 244 536 q 239 606 239 594 q 288 708 239 665 q 585 789 382 789 q 589 803 585 794 q 610 817 590 813 q 649 817 631 821 q 665 803 667 814 q 658 785 660 792 q 811 746 760 778 q 843 708 843 726 q 833 700 843 700 q 799 708 822 700 m 661 1025 q 715 974 679 1018 q 765 909 751 931 q 779 878 779 888 q 773 869 779 869 q 758 875 767 869 q 701 926 750 885 q 644 976 653 968 q 576 927 618 961 q 519 882 535 893 q 492 879 492 867 q 501 899 492 892 q 547 940 510 906 q 661 1025 642 1025 z "},"":{"ha":433,"x_min":11,"x_max":844,"o":"m 799 708 q 639 728 743 728 q 594 594 636 717 q 569 519 589 575 q 539 434 550 463 q 508 355 528 406 q 474 272 489 304 q 439 200 458 240 q 399 128 419 160 q 352 65 379 97 q 307 18 325 32 q 399 18 331 18 q 518 22 467 18 q 574 21 569 25 q 575 10 579 17 q 565 -1 571 4 q 549 -12 560 -7 q 349 -24 539 -18 q 91 -29 158 -29 q 17 -19 24 -29 q 11 -2 11 -12 q 19 31 11 8 q 58 59 29 53 q 97 54 86 65 q 193 17 147 17 q 333 94 274 17 q 569 726 446 244 q 357 674 442 715 q 272 567 272 633 q 284 528 272 544 q 306 504 296 511 q 335 488 317 497 q 360 473 353 478 q 365 464 367 468 q 353 463 364 460 q 282 503 319 469 q 243 579 244 536 q 239 606 239 594 q 288 708 239 665 q 585 789 382 789 q 589 803 585 794 q 610 817 590 813 q 649 817 631 821 q 665 803 667 814 q 658 785 660 792 q 811 746 760 778 q 843 708 843 726 q 833 700 843 700 q 799 708 822 700 m 501 917 q 531 944 501 921 q 573 977 560 967 q 590 988 586 988 q 590 972 594 988 q 585 947 585 956 q 571 916 585 938 q 549 894 557 894 q 501 917 501 894 m 814 985 l 806 949 q 791 916 806 938 q 769 894 776 894 q 722 917 722 894 q 750 944 722 921 q 809 988 804 988 q 814 985 814 988 z "},"":{"ha":788,"x_min":18,"x_max":828,"o":"m 44 28 q 19 75 19 57 q 26 99 19 93 q 42 94 33 106 l 57 75 q 128 278 89 171 q 64 275 78 275 q 32 290 31 272 q 60 322 33 308 q 76 326 69 326 l 147 326 q 294 657 258 611 q 324 660 306 663 q 359 648 343 658 q 369 628 375 638 q 288 473 342 572 q 211 326 235 374 l 283 326 q 357 310 357 326 q 285 289 360 289 l 189 282 q 104 38 132 156 q 242 -1 168 -1 q 381 16 315 -1 q 517 76 446 33 q 642 176 588 119 q 729 309 696 233 q 763 464 763 385 q 603 693 763 636 q 434 717 536 717 q 179 672 332 717 q 149 678 165 668 q 131 703 132 689 q 153 728 131 717 q 332 757 207 750 q 393 760 363 760 q 620 721 517 760 q 776 608 724 682 q 828 435 828 533 q 775 244 828 336 q 453 0 676 72 q 263 -32 356 -32 q 96 -3 169 -32 l 96 -8 q 66 -19 86 -17 q 42 -8 46 -21 q 44 28 40 1 z "},"":{"ha":722,"x_min":-240,"x_max":1163,"o":"m 1147 643 q 1163 629 1160 643 q 1153 610 1163 618 q 1132 601 1143 603 q 1043 650 1099 601 q 1044 607 1044 629 q 1000 336 1044 496 q 866 42 956 176 q 683 -93 776 -93 q 549 -32 606 -93 q 464 128 493 29 q 411 532 411 315 q 228 118 315 281 q -118 -196 50 -196 q -167 -190 -146 -196 q -237 -112 -224 -171 q -239 -100 -239 -106 q -237 -86 -239 -94 q -229 -81 -236 -78 q -215 -107 -222 -85 q -167 -154 -206 -144 q -121 -161 -143 -161 q -78 -154 -99 -161 q 186 125 56 -112 q 369 614 276 299 q 189 538 293 544 q 174 547 175 536 q 190 561 174 558 q 314 624 250 567 q 410 754 378 681 q 425 767 411 760 q 456 774 439 774 q 488 769 472 774 q 499 752 503 765 q 488 681 494 739 q 481 572 481 622 q 557 106 481 321 q 694 -46 611 -46 q 850 100 778 -46 q 949 389 922 246 q 976 590 976 532 q 971 676 976 647 q 933 797 965 704 q 943 812 932 801 q 960 824 954 822 q 1009 792 986 824 q 1056 717 1032 760 q 1131 639 1096 639 l 1147 643 m 614 899 q 607 894 611 894 q 598 897 603 894 q 593 901 593 900 q 606 922 593 903 q 638 963 619 942 q 680 996 656 983 q 719 1008 704 1008 q 744 1004 735 1008 q 796 979 754 1000 q 885 947 858 947 q 943 993 926 947 q 957 999 947 1003 q 967 992 967 994 q 911 919 967 960 q 863 903 888 903 l 839 907 q 799 923 826 911 q 761 939 772 935 q 683 947 701 957 q 614 899 642 938 z "},"":{"ha":853,"x_min":63,"x_max":996,"o":"m 996 468 q 853 97 996 261 q 426 -117 664 -117 q 306 -87 367 -117 q 149 125 185 -26 q 138 228 138 178 q 189 432 138 332 q 474 649 278 603 q 540 656 510 656 q 642 623 610 656 q 660 590 674 590 l 638 601 q 587 613 608 613 q 550 608 565 613 q 392 531 464 588 q 218 267 263 431 q 200 135 200 203 q 240 4 200 67 q 419 -86 299 -86 q 519 -74 465 -86 q 708 42 613 -53 q 865 267 804 138 q 926 508 926 396 q 844 722 926 656 q 646 786 765 786 q 607 785 628 786 q 322 681 453 775 q 161 515 226 614 q 89 319 96 417 q 75 308 88 300 q 64 344 64 317 q 123 541 64 444 q 281 708 182 638 q 440 788 350 758 q 611 819 529 818 q 889 726 782 819 q 996 468 996 633 m 806 881 q 806 880 806 881 q 792 878 806 878 q 717 906 779 878 q 626 950 656 935 q 558 1011 558 988 q 578 1031 558 1024 q 585 1032 582 1032 q 592 1032 589 1032 q 601 1031 596 1032 q 608 1028 606 1029 q 616 1025 611 1028 q 624 1021 621 1022 q 633 1016 626 1019 q 642 1011 639 1013 q 680 982 656 1001 q 753 926 704 963 q 804 888 803 890 q 806 881 806 885 z "},"":{"ha":853,"x_min":63,"x_max":996,"o":"m 996 468 q 853 97 996 261 q 426 -117 664 -117 q 306 -87 367 -117 q 149 125 185 -26 q 138 228 138 178 q 189 432 138 332 q 474 649 278 603 q 540 656 510 656 q 642 623 610 656 q 660 590 674 590 l 638 601 q 587 613 608 613 q 550 608 565 613 q 392 531 464 588 q 218 267 263 431 q 200 135 200 203 q 240 4 200 67 q 419 -86 299 -86 q 519 -74 465 -86 q 708 42 613 -53 q 865 267 804 138 q 926 508 926 396 q 844 722 926 656 q 646 786 765 786 q 607 785 628 786 q 322 681 453 775 q 161 515 226 614 q 89 319 96 417 q 75 308 88 300 q 64 344 64 317 q 123 541 64 444 q 281 708 182 638 q 440 788 350 758 q 611 819 529 818 q 889 726 782 819 q 996 468 996 633 m 818 965 q 704 904 794 947 q 599 860 614 861 q 585 865 585 860 q 588 873 585 869 q 606 888 590 876 q 642 911 622 899 q 668 930 661 924 q 715 967 675 936 q 771 1018 756 997 q 783 1021 779 1021 l 811 1013 q 826 988 826 1003 q 819 968 826 972 l 818 965 z "},"":{"ha":853,"x_min":63,"x_max":996,"o":"m 996 468 q 853 97 996 261 q 426 -117 664 -117 q 306 -87 367 -117 q 149 125 185 -26 q 138 228 138 178 q 189 432 138 332 q 474 649 278 603 q 540 656 510 656 q 642 623 610 656 q 660 590 674 590 l 638 601 q 587 613 608 613 q 550 608 565 613 q 392 531 464 588 q 218 267 263 431 q 200 135 200 203 q 240 4 200 67 q 419 -86 299 -86 q 519 -74 465 -86 q 708 42 613 -53 q 865 267 804 138 q 926 508 926 396 q 844 722 926 656 q 646 786 765 786 q 607 785 628 786 q 322 681 453 775 q 161 515 226 614 q 89 319 96 417 q 75 308 88 300 q 64 344 64 317 q 123 541 64 444 q 281 708 182 638 q 440 788 350 758 q 611 819 529 818 q 889 726 782 819 q 996 468 996 633 m 738 1017 q 792 966 756 1010 q 841 900 828 922 q 854 869 854 878 q 849 860 854 860 q 835 867 843 860 q 778 917 828 875 q 721 968 729 960 q 655 919 696 953 q 591 872 614 886 q 568 869 568 857 q 577 889 568 882 q 625 931 586 896 q 738 1017 714 1014 z "},"":{"ha":853,"x_min":63,"x_max":996,"o":"m 996 468 q 853 97 996 261 q 426 -117 664 -117 q 306 -87 367 -117 q 149 125 185 -26 q 138 228 138 178 q 189 432 138 332 q 474 649 278 603 q 540 656 510 656 q 642 623 610 656 q 660 590 674 590 l 638 601 q 587 613 608 613 q 550 608 565 613 q 392 531 464 588 q 218 267 263 431 q 200 135 200 203 q 240 4 200 67 q 419 -86 299 -86 q 519 -74 465 -86 q 708 42 613 -53 q 865 267 804 138 q 926 508 926 396 q 844 722 926 656 q 646 786 765 786 q 607 785 628 786 q 322 681 453 775 q 161 515 226 614 q 89 319 96 417 q 75 308 88 300 q 64 344 64 317 q 123 541 64 444 q 281 708 182 638 q 440 788 350 758 q 611 819 529 818 q 889 726 782 819 q 996 468 996 633 m 881 919 q 838 903 856 903 q 808 907 819 903 q 768 923 796 911 q 731 939 740 935 q 653 947 671 958 q 583 899 608 936 q 576 894 581 894 q 567 897 571 894 q 563 901 563 900 q 576 922 563 903 q 607 963 589 942 q 649 996 625 983 q 689 1008 674 1008 q 715 1004 704 1008 q 767 979 725 1000 q 854 947 828 947 q 911 993 894 947 q 926 999 917 1004 q 936 992 936 994 q 881 919 936 961 z "},"":{"ha":853,"x_min":63,"x_max":996,"o":"m 996 468 q 853 97 996 261 q 426 -117 664 -117 q 306 -87 367 -117 q 149 125 185 -26 q 138 228 138 178 q 189 432 138 332 q 474 649 278 603 q 540 656 510 656 q 642 623 610 656 q 660 590 674 590 l 638 601 q 587 613 608 613 q 550 608 565 613 q 392 531 464 588 q 218 267 263 431 q 200 135 200 203 q 240 4 200 67 q 419 -86 299 -86 q 519 -74 465 -86 q 708 42 613 -53 q 865 267 804 138 q 926 508 926 396 q 844 722 926 656 q 646 786 765 786 q 607 785 628 786 q 322 681 453 775 q 161 515 226 614 q 89 319 96 417 q 75 308 88 300 q 64 344 64 317 q 123 541 64 444 q 281 708 182 638 q 440 788 350 758 q 611 819 529 818 q 889 726 782 819 q 996 468 996 633 m 611 899 q 564 921 564 899 q 606 957 564 924 q 651 990 649 990 q 653 974 658 990 l 647 951 q 633 919 647 940 q 611 899 619 899 m 876 989 l 868 951 q 853 919 868 940 q 832 899 839 899 q 785 921 785 899 q 824 956 785 924 q 873 992 869 992 q 876 989 876 992 z "},"":{"ha":649,"x_min":28,"x_max":658,"o":"m 78 -3 q 45 -21 61 -21 q 29 -8 29 -21 q 35 7 29 -1 q 319 278 78 75 q 118 483 233 379 q 118 511 99 500 q 135 515 126 515 q 156 510 144 515 q 353 306 207 481 q 610 507 554 478 q 628 511 618 511 q 649 503 639 511 q 658 487 658 494 q 647 472 658 479 q 376 278 507 383 q 578 7 546 76 q 558 -17 586 -11 q 537 -18 550 -18 q 514 -1 524 -18 q 343 250 418 158 q 78 -3 214 143 z "},"":{"ha":853,"x_min":85,"x_max":863,"o":"m 238 -25 l 214 -64 q 169 -90 196 -90 q 160 -76 156 -90 q 201 -3 172 -49 q 111 200 111 64 q 139 338 111 268 q 85 437 85 360 q 136 582 85 514 q 297 708 203 671 q 519 754 401 754 q 714 711 622 754 q 736 736 731 733 q 764 750 751 750 q 782 749 776 750 q 790 732 804 746 l 751 686 l 753 685 q 863 444 863 597 q 822 269 863 360 q 637 35 760 124 q 374 -53 514 -53 q 238 -25 299 -53 m 818 500 q 742 664 818 613 l 736 667 q 488 345 631 538 q 253 3 346 153 q 342 -11 289 -11 q 591 83 467 -11 q 772 310 715 176 q 818 500 818 414 m 218 24 q 606 572 326 192 q 551 583 585 583 q 386 536 472 583 q 200 351 263 467 q 216 349 203 350 q 221 336 229 347 q 189 331 217 331 q 153 179 153 260 q 218 24 153 72 m 626 600 l 696 692 q 540 724 629 724 q 408 704 474 724 q 172 549 236 653 q 138 442 138 492 q 154 374 138 393 q 393 596 226 531 q 540 631 478 631 q 626 600 603 631 z "},"":{"ha":658,"x_min":15,"x_max":938,"o":"m 864 792 q 813 757 844 792 q 626 310 686 617 q 781 499 704 383 q 883 708 858 614 q 890 754 890 733 q 881 783 890 775 q 864 792 872 792 m 158 -44 q 60 78 60 -44 q 175 436 60 200 q 247 587 238 565 q 256 614 256 608 q 249 619 256 619 q 218 600 242 619 q 29 503 110 508 q 15 510 15 501 q 33 525 15 524 q 195 617 88 531 q 325 746 303 704 q 338 757 326 750 q 372 764 349 764 q 413 746 419 764 q 142 171 174 343 q 135 101 135 132 q 204 4 135 4 q 540 219 318 4 q 836 825 633 825 q 936 733 936 825 q 926 686 936 711 q 853 535 904 613 q 712 351 803 458 q 604 221 621 243 q 579 -28 585 122 q 579 -43 579 -36 q 625 -231 579 -175 q 662 -253 644 -253 q 693 -236 679 -253 q 710 -215 700 -225 q 727 -208 721 -204 q 729 -225 733 -211 q 711 -251 715 -247 q 633 -279 689 -279 q 624 -279 629 -279 q 521 -143 543 -278 q 515 -27 515 -100 q 533 169 515 46 q 158 -44 311 -44 m 675 833 q 663 826 675 826 q 478 910 631 826 q 428 961 428 939 q 447 979 428 974 q 458 981 453 981 q 528 949 483 981 q 642 864 610 886 q 675 833 675 838 z "},"":{"ha":658,"x_min":15,"x_max":938,"o":"m 864 792 q 813 757 844 792 q 626 310 686 617 q 781 499 704 383 q 883 708 858 614 q 890 754 890 733 q 881 783 890 775 q 864 792 872 792 m 158 -44 q 60 78 60 -44 q 175 436 60 200 q 247 587 238 565 q 256 614 256 608 q 249 619 256 619 q 218 600 242 619 q 29 503 110 508 q 15 510 15 501 q 33 525 15 524 q 195 617 88 531 q 325 746 303 704 q 338 757 326 750 q 372 764 349 764 q 413 746 419 764 q 142 171 174 343 q 135 101 135 132 q 204 4 135 4 q 540 219 318 4 q 836 825 633 825 q 936 733 936 825 q 926 686 936 711 q 853 535 904 613 q 712 351 803 458 q 604 221 621 243 q 579 -28 585 122 q 579 -43 579 -36 q 625 -231 579 -175 q 662 -253 644 -253 q 693 -236 679 -253 q 710 -215 700 -225 q 727 -208 721 -204 q 729 -225 733 -211 q 711 -251 715 -247 q 633 -279 689 -279 q 624 -279 629 -279 q 521 -143 543 -278 q 515 -27 515 -100 q 533 169 515 46 q 158 -44 311 -44 m 742 931 q 628 869 718 913 q 523 826 538 826 q 508 830 508 825 q 511 838 508 835 q 530 853 514 842 q 565 876 546 864 q 592 895 585 889 q 639 932 599 901 q 694 983 679 963 q 707 986 703 986 l 735 978 q 750 953 750 968 q 743 933 750 938 l 742 931 z "},"":{"ha":658,"x_min":15,"x_max":938,"o":"m 864 792 q 813 757 844 792 q 626 310 686 617 q 781 499 704 383 q 883 708 858 614 q 890 754 890 733 q 881 783 890 775 q 864 792 872 792 m 158 -44 q 60 78 60 -44 q 175 436 60 200 q 247 587 238 565 q 256 614 256 608 q 249 619 256 619 q 218 600 242 619 q 29 503 110 508 q 15 510 15 501 q 33 525 15 524 q 195 617 88 531 q 325 746 303 704 q 338 757 326 750 q 372 764 349 764 q 413 746 419 764 q 142 171 174 343 q 135 101 135 132 q 204 4 135 4 q 540 219 318 4 q 836 825 633 825 q 936 733 936 825 q 926 686 936 711 q 853 535 904 613 q 712 351 803 458 q 604 221 621 243 q 579 -28 585 122 q 579 -43 579 -36 q 625 -231 579 -175 q 662 -253 644 -253 q 693 -236 679 -253 q 710 -215 700 -225 q 727 -208 721 -204 q 729 -225 733 -211 q 711 -251 715 -247 q 633 -279 689 -279 q 624 -279 629 -279 q 521 -143 543 -278 q 515 -27 515 -100 q 533 169 515 46 q 158 -44 311 -44 m 613 993 q 666 943 631 986 q 715 878 701 900 q 729 847 729 856 q 724 838 729 838 q 710 844 718 838 q 653 894 703 853 q 596 944 604 936 q 530 897 571 929 q 466 849 489 864 q 443 847 443 835 q 451 867 443 860 q 499 908 460 874 q 613 993 590 993 z "},"":{"ha":658,"x_min":15,"x_max":938,"o":"m 864 792 q 813 757 844 792 q 626 310 686 617 q 781 499 704 383 q 883 708 858 614 q 890 754 890 733 q 881 783 890 775 q 864 792 872 792 m 158 -44 q 60 78 60 -44 q 175 436 60 200 q 247 587 238 565 q 256 614 256 608 q 249 619 256 619 q 218 600 242 619 q 29 503 110 508 q 15 510 15 501 q 33 525 15 524 q 195 617 88 531 q 325 746 303 704 q 338 757 326 750 q 372 764 349 764 q 413 746 419 764 q 142 171 174 343 q 135 101 135 132 q 204 4 135 4 q 540 219 318 4 q 836 825 633 825 q 936 733 936 825 q 926 686 936 711 q 853 535 904 613 q 712 351 803 458 q 604 221 621 243 q 579 -28 585 122 q 579 -43 579 -36 q 625 -231 579 -175 q 662 -253 644 -253 q 693 -236 679 -253 q 710 -215 700 -225 q 727 -208 721 -204 q 729 -225 733 -211 q 711 -251 715 -247 q 633 -279 689 -279 q 624 -279 629 -279 q 521 -143 543 -278 q 515 -27 515 -100 q 533 169 515 46 q 158 -44 311 -44 m 668 988 l 660 950 q 646 917 660 939 q 624 896 632 896 q 576 919 576 896 q 615 953 576 922 q 665 990 661 990 q 668 988 668 990 m 889 988 l 881 950 q 866 917 881 939 q 843 896 851 896 q 797 919 797 896 q 836 953 797 922 q 885 990 882 990 q 889 988 889 990 z "},"":{"ha":731,"x_min":10,"x_max":979,"o":"m 158 -44 q 60 83 60 -44 q 175 436 60 200 q 249 592 238 565 q 250 618 261 619 q 218 600 239 615 q 29 503 110 508 q 15 510 15 501 q 33 525 18 522 q 195 617 88 531 q 325 746 303 704 q 378 763 331 763 q 413 746 414 760 q 142 171 174 344 q 135 101 135 132 q 204 4 135 4 q 335 63 261 4 q 481 214 408 122 q 744 657 651 436 q 783 726 769 715 q 872 774 807 765 q 934 772 906 778 q 964 767 963 767 q 979 754 979 764 q 978 750 979 753 q 963 740 974 739 q 946 740 951 740 q 868 704 901 740 q 810 600 835 668 q 715 310 785 532 q 638 65 646 88 q 734 83 710 83 q 765 79 758 83 q 769 64 775 71 q 758 60 764 57 q 737 63 753 63 q 674 51 721 63 q 618 17 626 39 q 282 -472 479 -335 q 124 -533 194 -533 q 75 -525 97 -533 q 10 -429 10 -501 q 97 -246 10 -346 q 558 44 269 -49 q 604 201 568 67 q 658 396 640 336 q 401 82 535 208 q 158 -44 268 -44 m 85 -411 q 89 -442 85 -428 q 158 -496 103 -496 q 329 -386 240 -496 q 550 18 464 -224 q 165 -239 310 -61 q 85 -411 85 -337 m 828 957 q 820 950 828 957 q 721 900 813 943 q 614 856 629 857 q 599 859 599 854 q 602 868 599 864 q 622 883 606 872 q 678 921 665 911 q 731 961 690 931 q 786 1013 771 992 q 799 1014 790 1014 q 826 1007 808 1014 q 843 982 843 997 q 828 957 843 971 z "},"":{"ha":631,"x_min":15,"x_max":732,"o":"m 732 451 q 732 422 732 451 q 691 335 732 393 q 578 243 650 278 q 420 192 506 208 q 292 176 335 176 q 226 185 250 176 q 210 206 201 193 q 230 209 214 213 q 274 206 246 206 q 322 207 301 206 q 569 314 461 222 q 678 486 678 406 q 515 618 678 588 q 424 626 468 626 q 343 622 381 626 q 96 -8 135 203 q 65 -19 83 -19 q 42 -8 46 -19 q 108 222 39 29 q 257 607 176 415 q 35 519 143 576 q 17 531 17 510 q 90 609 17 571 q 279 658 164 647 q 356 822 343 808 q 370 826 363 826 q 390 824 378 826 q 418 811 401 822 q 431 790 435 800 l 367 664 q 557 639 469 664 q 688 562 644 614 q 732 451 732 510 z "},"":{"ha":728,"x_min":-211,"x_max":701,"o":"m 151 365 q 231 374 181 365 l 243 374 l 272 454 q 331 579 296 518 q 429 696 367 640 q 569 753 493 753 q 679 708 644 753 q 701 643 701 683 q 669 551 701 594 q 535 438 629 492 q 464 390 474 404 q 447 364 454 376 q 472 310 436 339 q 646 151 615 197 q 665 84 665 117 q 638 21 665 51 q 517 -65 589 -35 q 383 -86 469 -86 q 265 -51 283 -86 q 271 -40 260 -40 q 286 -46 278 -40 q 326 -62 304 -62 q 376 -60 347 -62 q 454 -40 406 -57 q 540 17 503 -24 q 576 101 576 58 q 547 180 576 144 q 480 240 517 215 q 413 300 443 265 q 383 367 383 335 q 442 419 383 392 q 525 459 500 446 q 588 501 550 472 q 649 565 626 531 q 671 626 671 600 q 661 669 671 651 q 575 715 639 715 q 571 715 572 715 q 449 656 517 715 q 324 469 382 596 q 231 220 265 342 q 147 -31 197 99 q 42 -222 97 -160 q -79 -285 -14 -285 q -132 -275 -104 -285 q -210 -185 -210 -249 q -188 -155 -210 -165 q -162 -169 -167 -144 q -161 -194 -161 -174 q -147 -230 -161 -214 q -108 -246 -133 -246 q 4 -169 -54 -246 q 116 34 63 -92 q 232 344 169 160 l 229 344 q 103 326 131 326 q 56 351 56 326 q 79 373 56 364 q 116 382 103 382 q 138 374 129 382 q 151 365 147 365 z "},"":{"ha":635,"x_min":15,"x_max":728,"o":"m 392 190 q 340 135 386 188 q 234 33 294 82 q 125 -15 174 -15 q 77 -2 103 -15 q 33 35 51 11 q 15 88 15 60 q 28 140 15 115 q 117 253 56 199 q 246 347 179 308 q 351 396 313 386 q 427 406 390 406 q 490 387 464 406 q 517 347 517 368 q 515 339 517 340 q 508 340 514 338 q 440 367 492 367 q 322 333 388 367 q 197 247 256 299 q 112 144 149 201 q 75 60 75 86 q 84 21 75 33 q 106 8 93 8 q 193 56 133 8 q 328 178 292 139 q 465 315 456 315 q 506 306 482 315 q 521 282 529 296 q 436 49 436 161 q 448 17 436 29 q 474 4 460 4 q 606 92 508 4 q 708 206 669 150 q 721 209 714 213 q 728 202 728 206 q 725 194 728 199 q 651 100 706 158 q 552 9 596 42 q 463 -31 508 -24 q 433 -32 446 -32 q 400 -20 421 -32 q 372 15 379 -8 q 365 79 365 38 q 392 190 365 121 m 507 511 q 494 504 507 504 q 419 533 481 504 q 328 578 357 561 q 260 638 260 614 q 279 657 260 650 q 287 658 283 658 q 294 658 290 658 q 302 657 297 658 q 310 655 307 656 q 317 651 313 654 q 325 647 322 649 q 334 642 328 646 q 342 638 340 639 q 381 608 357 628 q 455 553 406 589 q 506 515 504 518 q 507 511 507 513 z "},"":{"ha":635,"x_min":15,"x_max":728,"o":"m 125 -15 q 77 -2 103 -15 q 33 35 51 11 q 15 88 15 60 q 28 140 15 115 q 117 253 56 199 q 246 347 179 308 q 351 396 313 386 q 427 406 390 406 q 490 387 464 406 q 517 347 517 368 q 515 339 517 340 q 508 340 514 338 q 440 367 492 367 q 322 333 388 367 q 197 247 256 299 q 112 144 149 201 q 75 60 75 86 q 104 8 75 8 q 193 56 133 8 q 328 178 292 139 q 465 315 456 315 q 506 306 482 315 q 521 282 529 296 q 438 81 450 182 q 436 49 436 68 q 447 17 436 29 q 504 14 468 -6 q 605 92 540 33 q 708 206 669 150 q 721 209 714 213 q 728 203 728 206 q 662 112 728 182 q 561 17 596 42 q 440 -32 496 -32 q 369 21 388 -32 q 365 58 365 38 q 392 190 365 121 q 340 135 386 188 q 234 33 294 82 q 125 -15 174 -15 m 638 611 q 524 550 614 593 q 419 506 433 507 q 404 510 404 506 q 407 519 404 515 q 426 533 410 522 q 461 557 442 544 q 488 576 481 569 q 535 613 494 582 q 590 664 575 643 q 603 667 599 667 l 631 658 q 646 633 646 649 q 639 614 646 618 l 638 611 z "},"":{"ha":635,"x_min":15,"x_max":728,"o":"m 125 -15 q 77 -2 103 -15 q 33 35 51 11 q 15 88 15 60 q 28 140 15 115 q 117 253 56 199 q 246 347 179 308 q 351 396 313 386 q 427 406 390 406 q 490 387 464 406 q 517 347 517 368 q 515 339 517 340 q 508 340 514 338 q 440 367 492 367 q 322 333 388 367 q 197 247 256 299 q 112 144 149 201 q 75 60 75 86 q 104 8 75 8 q 193 56 133 8 q 328 178 292 139 q 465 315 456 315 q 506 306 482 315 q 521 282 529 296 q 438 81 450 182 q 436 49 436 68 q 447 17 436 29 q 504 14 468 -6 q 605 92 540 33 q 708 206 669 150 q 721 209 714 213 q 728 203 728 206 q 662 112 728 182 q 561 17 596 42 q 440 -32 496 -32 q 369 21 388 -32 q 365 58 365 38 q 392 190 365 121 q 340 135 386 188 q 234 33 294 82 q 125 -15 174 -15 m 467 644 q 520 594 485 638 q 569 529 556 551 q 583 498 583 507 q 578 489 583 489 q 564 497 572 489 q 507 546 556 504 q 450 596 458 588 q 384 548 425 581 q 320 501 343 515 q 297 499 297 486 q 308 519 297 511 q 354 561 318 528 q 467 644 447 644 z "},"":{"ha":635,"x_min":15,"x_max":728,"o":"m 125 -15 q 77 -2 103 -15 q 33 35 51 11 q 15 88 15 60 q 28 140 15 115 q 117 253 56 199 q 246 347 179 308 q 351 396 313 386 q 427 406 390 406 q 490 387 464 406 q 517 347 517 368 q 515 339 517 340 q 508 340 514 338 q 440 367 492 367 q 322 333 388 367 q 197 247 256 299 q 112 144 149 201 q 75 60 75 86 q 104 8 75 8 q 193 56 133 8 q 328 178 292 139 q 465 315 456 315 q 506 306 482 315 q 521 282 529 296 q 438 81 450 182 q 436 49 436 68 q 447 17 436 29 q 504 14 468 -6 q 605 92 540 33 q 708 206 669 150 q 721 209 714 213 q 728 203 728 206 q 662 112 728 182 q 561 17 596 42 q 440 -32 496 -32 q 369 21 388 -32 q 365 58 365 38 q 392 190 365 121 q 340 135 386 188 q 234 33 294 82 q 125 -15 174 -15 m 606 601 q 619 606 608 606 q 631 599 631 606 q 575 528 631 567 q 533 510 551 510 q 502 514 514 510 q 463 530 490 518 q 425 544 436 542 q 347 554 363 564 q 278 506 301 543 q 270 501 275 501 q 261 504 265 501 q 257 509 257 507 q 271 531 257 511 q 302 570 285 550 q 344 603 319 590 q 383 615 368 615 q 410 611 397 615 q 461 586 422 607 q 549 556 524 556 q 606 601 589 556 z "},"":{"ha":635,"x_min":15,"x_max":728,"o":"m 392 190 q 340 135 386 188 q 234 33 294 82 q 125 -15 174 -15 q 77 -2 103 -15 q 33 35 51 11 q 15 88 15 60 q 28 140 15 115 q 117 253 56 199 q 246 347 179 308 q 351 396 313 386 q 427 406 390 406 q 490 387 464 406 q 517 347 517 368 q 515 339 517 340 q 508 340 514 338 q 440 367 492 367 q 322 333 388 367 q 197 247 256 299 q 112 144 149 201 q 75 60 75 86 q 84 21 75 33 q 106 8 93 8 q 193 56 133 8 q 328 178 292 139 q 465 315 456 315 q 506 306 482 315 q 521 282 529 296 q 436 49 436 161 q 448 17 436 29 q 474 4 460 4 q 606 92 508 4 q 708 206 669 150 q 721 209 714 213 q 728 202 728 206 q 725 194 728 199 q 651 100 706 158 q 552 9 596 42 q 463 -31 508 -24 q 433 -32 446 -32 q 400 -20 421 -32 q 372 15 379 -8 q 365 79 365 38 q 392 190 365 121 m 285 528 q 326 566 285 533 q 373 599 368 599 q 373 583 378 599 q 368 558 368 567 q 354 527 368 549 q 332 506 340 506 q 285 528 285 506 m 597 596 l 589 560 q 574 527 589 549 q 551 506 560 506 q 506 528 506 506 q 533 556 506 532 q 592 599 588 599 q 597 596 597 599 z "},"":{"ha":635,"x_min":15,"x_max":728,"o":"m 392 190 q 340 135 386 188 q 234 33 294 82 q 125 -15 174 -15 q 77 -2 103 -15 q 33 35 51 11 q 15 88 15 60 q 28 140 15 115 q 117 253 56 199 q 246 347 179 308 q 351 396 313 386 q 427 406 390 406 q 490 387 464 406 q 517 347 517 368 q 515 339 517 340 q 508 340 514 338 q 440 367 492 367 q 322 333 388 367 q 197 247 256 299 q 112 144 149 201 q 75 60 75 86 q 84 21 75 33 q 106 8 93 8 q 193 56 133 8 q 328 178 292 139 q 465 315 456 315 q 506 306 482 315 q 521 282 529 296 q 436 49 436 161 q 448 17 436 29 q 474 4 460 4 q 606 92 508 4 q 708 206 669 150 q 721 209 714 213 q 728 202 728 206 q 725 194 728 199 q 651 100 706 158 q 552 9 596 42 q 463 -31 508 -24 q 433 -32 446 -32 q 400 -20 421 -32 q 372 15 379 -8 q 365 79 365 38 q 392 190 365 121 m 592 615 q 543 664 592 664 q 476 630 507 664 q 446 572 446 596 q 496 526 446 526 q 552 548 528 526 q 585 593 576 569 q 592 615 592 601 m 624 622 q 563 526 624 571 q 504 507 532 507 q 453 517 476 507 q 408 575 408 533 q 464 660 408 625 q 533 681 489 681 q 624 622 624 681 z "},"":{"ha":785,"x_min":15,"x_max":876,"o":"m 867 210 q 875 201 875 210 q 871 192 875 197 q 768 69 832 124 q 638 -13 704 14 q 523 -40 572 -40 q 432 -18 474 -40 q 369 88 369 14 q 392 190 369 131 q 340 135 386 188 q 234 33 294 82 q 125 -15 174 -15 q 77 -2 103 -15 q 33 35 51 11 q 15 88 15 60 q 28 140 15 115 q 117 253 56 199 q 246 347 179 308 q 351 396 313 386 q 427 406 390 406 q 490 387 464 406 q 517 347 517 368 q 515 339 517 340 q 508 340 514 338 q 440 367 492 367 q 322 333 388 367 q 197 247 256 299 q 112 144 149 201 q 75 60 75 86 q 104 8 75 8 q 193 56 133 8 q 328 178 292 139 q 465 315 456 315 q 513 303 492 315 q 630 381 576 357 q 717 406 683 406 q 792 332 792 406 q 771 271 792 294 q 659 181 736 219 q 526 139 582 143 q 506 150 507 138 q 509 157 504 156 q 517 158 514 158 q 690 249 586 165 q 733 292 714 267 q 753 340 753 317 q 731 363 753 363 q 682 347 713 363 q 544 241 617 317 q 450 93 472 165 q 443 49 443 71 q 461 8 443 28 q 517 -11 479 -11 q 613 11 558 -11 q 856 204 757 69 q 867 210 861 210 z "},"":{"ha":438,"x_min":-42,"x_max":531,"o":"m 404 306 l 411 333 q 390 361 411 361 q 235 272 333 361 q 110 93 136 183 q 103 51 103 69 q 111 19 103 32 q 163 -6 128 -6 q 238 4 197 -6 q 385 76 326 29 q 510 206 444 122 q 523 210 515 213 q 531 202 531 207 q 526 188 531 197 q 236 -29 396 6 q 249 -42 251 -29 q 208 -100 244 -53 q 169 -150 172 -147 q 233 -144 199 -144 q 299 -162 268 -144 q 346 -242 346 -190 q 297 -337 346 -293 q 96 -417 210 -417 l 57 -414 q -33 -361 -7 -406 q -40 -343 -40 -349 q -33 -335 -40 -337 q -14 -350 -26 -332 q 82 -393 14 -393 q 244 -321 174 -393 q 281 -246 281 -283 q 260 -193 281 -208 q 217 -178 239 -178 l 136 -187 q 123 -183 125 -187 q 145 -146 121 -178 q 185 -75 169 -114 q 207 -35 201 -36 q 169 -37 188 -37 q 56 6 96 -37 q 28 74 28 35 q 47 158 28 113 q 196 321 82 238 q 376 404 310 404 q 408 400 393 404 q 447 356 447 386 q 432 308 447 335 q 409 290 417 282 q 404 306 401 297 z "},"":{"ha":443,"x_min":28,"x_max":536,"o":"m 451 332 q 431 271 451 294 q 318 181 396 219 q 186 139 240 143 q 166 147 171 138 q 176 158 161 157 q 258 188 208 161 q 350 249 308 215 q 413 339 413 296 q 390 363 413 363 q 342 347 372 363 q 204 242 276 317 q 103 50 103 135 q 121 8 103 28 q 178 -11 139 -11 q 272 11 218 -11 q 514 204 429 75 q 529 208 522 215 q 535 201 535 206 q 531 192 535 197 q 426 68 489 122 q 290 -17 363 14 l 196 -39 q 182 -39 189 -39 q 28 81 28 -28 q 196 321 28 199 q 376 404 310 404 q 451 332 451 404 m 475 521 q 482 512 482 518 q 469 506 482 506 q 394 534 457 506 q 303 578 331 563 q 235 639 235 618 q 256 658 235 651 q 265 660 260 660 q 335 628 290 660 q 475 521 353 613 z "},"":{"ha":443,"x_min":28,"x_max":553,"o":"m 376 404 q 451 332 451 404 q 431 271 451 294 q 318 181 396 219 q 186 139 240 143 q 165 150 167 138 q 169 157 164 156 q 176 158 174 158 q 258 189 208 161 q 394 292 351 239 q 413 340 413 317 q 390 363 413 363 q 342 347 372 363 q 204 241 276 317 q 110 93 132 165 q 103 49 103 71 q 121 8 103 28 q 176 -11 139 -11 q 272 11 218 -11 q 514 204 429 75 q 529 208 522 215 q 531 192 540 204 q 425 68 489 122 q 185 -37 301 -37 q 44 22 85 -37 q 29 79 29 46 q 47 158 29 113 q 196 321 82 238 q 376 404 310 404 m 510 665 l 536 657 q 553 632 553 647 q 543 610 553 619 q 430 549 521 592 q 325 505 339 506 q 311 509 311 504 q 314 517 311 514 q 332 532 317 521 q 366 556 347 543 q 394 575 385 568 q 428 600 403 582 q 496 663 475 635 q 510 665 504 665 z "},"":{"ha":443,"x_min":28,"x_max":549,"o":"m 376 404 q 451 332 451 404 q 431 271 451 294 q 318 181 396 219 q 186 139 240 143 q 165 150 167 138 q 169 157 164 156 q 176 158 174 158 q 258 189 208 161 q 394 292 351 239 q 413 340 413 317 q 390 363 413 363 q 342 347 372 363 q 204 241 276 317 q 110 93 132 165 q 103 49 103 71 q 121 8 103 28 q 176 -11 139 -11 q 272 11 218 -11 q 514 204 429 75 q 529 208 522 215 q 531 192 540 204 q 425 68 489 122 q 185 -37 301 -37 q 44 22 85 -37 q 29 79 29 46 q 47 158 29 113 q 196 321 82 238 q 376 404 310 404 m 542 544 q 547 526 547 535 q 542 517 547 517 q 528 524 536 517 q 469 574 519 532 q 413 624 419 617 q 349 577 389 610 q 285 529 308 544 q 261 526 261 514 q 272 547 261 538 q 318 589 282 556 q 431 672 411 672 q 542 544 465 660 z "},"":{"ha":443,"x_min":28,"x_max":574,"o":"m 451 332 q 431 271 451 294 q 318 181 396 219 q 186 139 240 143 q 166 147 171 138 q 176 158 161 157 q 258 188 208 161 q 350 249 308 215 q 413 339 413 296 q 390 363 413 363 q 342 347 372 363 q 204 242 276 317 q 103 50 103 135 q 121 8 103 28 q 178 -11 139 -11 q 272 11 218 -11 q 514 204 429 75 q 529 208 522 215 q 531 192 540 204 q 426 68 489 122 q 290 -17 363 14 l 196 -39 q 182 -39 189 -39 q 28 81 28 -28 q 196 321 28 199 q 376 404 310 404 q 451 332 451 404 m 307 504 q 260 526 260 504 q 302 563 260 529 q 349 596 344 596 q 348 581 353 596 q 343 556 343 565 q 329 526 343 547 q 307 504 315 504 m 572 594 l 564 558 q 549 526 564 547 q 528 504 535 504 q 481 526 481 504 q 523 563 481 529 q 569 596 565 596 q 572 594 572 596 z "},"":{"ha":314,"x_min":15,"x_max":407,"o":"m 404 194 q 329 99 383 157 q 231 8 275 40 q 113 -32 176 -32 q 79 -21 100 -32 q 46 46 46 -1 q 90 192 46 93 q 36 122 83 176 q 17 122 24 108 q 15 130 15 125 q 21 142 15 135 q 128 285 89 226 q 131 303 125 292 q 179 385 158 381 q 189 385 183 385 q 231 363 224 385 q 227 338 233 350 q 218 319 221 326 q 214 308 215 313 q 200 282 207 294 q 117 81 121 124 q 115 49 115 68 q 126 17 115 29 q 182 14 146 -6 q 283 92 218 33 q 388 206 347 150 q 400 209 393 213 q 407 202 407 206 q 404 194 407 199 m 336 521 q 343 512 343 518 q 331 506 343 506 q 255 534 318 506 q 164 578 192 563 q 96 639 96 618 q 117 658 96 651 q 126 660 121 660 q 196 628 151 660 q 336 521 214 613 z "},"":{"ha":314,"x_min":15,"x_max":424,"o":"m 329 99 q 231 8 275 40 q 113 -32 176 -32 q 79 -21 100 -32 q 46 46 46 -1 q 90 192 46 93 q 36 122 83 176 q 17 122 24 108 q 15 130 15 125 q 21 142 15 135 q 128 285 89 226 q 131 303 125 292 q 179 385 158 381 q 189 385 183 385 q 231 363 224 385 q 227 338 233 350 q 218 319 221 326 q 214 308 215 313 q 200 282 207 294 q 117 81 121 124 q 115 49 115 68 q 126 17 115 29 q 182 14 146 -6 q 283 92 218 33 q 388 206 347 150 q 401 208 393 213 q 329 99 422 199 m 381 665 l 408 657 q 424 632 424 647 q 415 610 424 618 q 301 549 392 592 q 196 505 211 506 q 181 508 181 504 q 184 517 181 513 q 203 532 188 521 q 239 556 219 543 q 267 576 258 568 q 300 600 276 583 q 368 663 353 640 q 381 665 376 665 z "},"":{"ha":314,"x_min":15,"x_max":407,"o":"m 404 194 q 329 99 383 157 q 231 8 275 40 q 113 -32 176 -32 q 79 -21 100 -32 q 46 46 46 -1 q 90 192 46 93 q 36 122 83 176 q 17 122 24 108 q 15 130 15 125 q 21 142 15 135 q 128 285 89 226 q 131 303 125 292 q 179 385 158 381 q 189 385 183 385 q 231 363 224 385 q 227 338 233 350 q 218 319 221 326 q 214 308 215 313 q 200 282 207 294 q 117 81 121 124 q 115 49 115 68 q 126 17 115 29 q 182 14 146 -6 q 283 92 218 33 q 388 206 347 150 q 400 209 393 213 q 407 202 407 206 q 404 194 407 199 m 274 674 q 327 624 292 667 q 377 558 363 581 q 392 527 392 536 q 385 518 392 518 q 371 525 379 518 q 314 575 364 533 q 257 625 264 617 q 191 577 232 610 q 127 530 150 544 q 104 528 104 515 q 115 549 104 540 q 161 590 125 557 q 274 674 254 674 z "},"":{"ha":314,"x_min":15,"x_max":417,"o":"m 329 99 q 231 8 275 40 q 113 -32 176 -32 q 79 -21 100 -32 q 46 46 46 -1 q 90 192 46 93 q 36 122 83 176 q 17 122 24 108 q 15 130 15 125 q 21 142 15 135 q 128 285 89 226 q 131 303 125 292 q 179 385 158 381 q 189 385 183 385 q 231 363 224 385 q 227 338 233 350 q 218 319 221 326 q 214 308 215 313 q 200 282 207 294 q 117 81 121 124 q 115 49 115 68 q 126 17 115 29 q 182 14 146 -6 q 283 92 218 33 q 388 206 347 150 q 401 208 393 213 q 329 99 422 199 m 196 594 l 188 558 q 174 526 188 547 q 151 504 160 504 q 104 526 104 504 q 143 560 104 529 q 187 594 182 592 q 194 597 192 597 q 196 594 196 597 m 417 594 l 408 558 q 394 526 408 547 q 371 504 379 504 q 325 526 325 504 q 364 560 325 529 q 408 594 403 592 q 415 597 414 597 q 417 594 417 597 z "},"":{"ha":600,"x_min":28,"x_max":725,"o":"m 29 82 q 47 158 29 111 q 196 321 82 238 q 376 404 310 404 q 408 400 393 404 q 447 356 447 386 q 444 338 447 347 q 426 332 432 317 q 425 340 425 335 q 413 353 425 344 q 390 361 401 361 q 235 272 333 361 q 110 93 136 183 q 103 44 103 69 q 128 3 103 19 q 188 -14 153 -14 q 265 10 224 -14 q 496 292 421 94 q 544 510 533 385 l 447 479 q 428 475 435 475 q 411 494 411 475 q 438 529 411 513 q 446 532 442 531 l 547 560 q 547 586 547 568 q 510 734 547 690 q 436 778 474 778 q 370 745 397 778 q 329 713 343 713 q 306 720 315 713 q 297 740 297 728 q 328 792 297 774 q 395 811 358 811 q 469 797 432 811 q 539 744 506 782 q 599 572 593 679 l 646 583 q 704 593 685 593 q 724 584 724 593 q 710 568 724 575 q 688 558 696 561 q 658 547 663 547 l 600 526 q 554 297 597 417 q 439 93 511 176 q 292 -17 379 21 q 194 -39 239 -39 q 29 82 29 -39 z "},"":{"ha":568,"x_min":-11,"x_max":661,"o":"m 442 394 q 474 360 474 394 q 442 267 474 326 q 394 169 410 207 q 368 67 368 106 q 379 17 368 29 q 436 15 400 -6 q 537 92 472 35 q 640 206 601 150 q 653 209 646 213 q 661 202 661 206 q 658 194 661 199 q 583 99 638 157 q 479 5 529 40 q 381 -31 429 -31 q 314 -9 333 -29 q 294 42 294 11 q 300 101 294 72 q 321 167 306 129 q 365 260 346 226 q 383 303 383 293 q 372 314 383 314 q 288 260 350 314 q 160 108 244 219 q 65 -11 76 -4 q 3 -36 15 -36 q -10 -32 -10 -36 q -7 -20 -10 -28 q 20 56 -4 -12 q 73 205 44 124 q 108 303 101 286 q 116 331 114 319 q 121 351 118 343 q 131 370 124 360 q 151 381 139 381 q 183 378 164 382 q 203 361 203 375 q 188 319 203 351 q 100 94 172 286 q 226 235 150 156 q 356 357 303 315 q 442 394 408 394 m 519 525 q 478 507 496 507 q 448 511 460 507 q 409 527 436 515 q 371 542 382 539 q 293 551 310 561 q 224 503 249 540 q 216 499 221 499 q 207 501 211 499 q 203 506 203 504 q 216 526 203 507 q 247 567 229 546 q 290 600 265 588 q 329 613 314 613 q 355 608 344 613 q 406 583 365 604 q 494 551 468 551 q 551 597 535 551 q 567 603 557 608 q 576 596 576 599 q 519 525 576 565 z "},"":{"ha":488,"x_min":46,"x_max":581,"o":"m 166 -8 q 183 -8 166 -8 q 240 22 200 -8 q 313 100 281 53 l 308 108 q 314 144 303 131 q 343 153 325 158 q 368 232 368 204 q 362 276 368 260 q 367 303 356 292 q 397 311 379 314 q 425 256 425 304 q 360 103 425 193 q 399 65 361 65 q 513 146 436 65 q 558 200 549 188 q 574 209 567 213 q 581 197 581 206 q 531 131 581 189 q 390 33 451 33 q 333 68 350 33 q 279 14 306 39 q 144 -32 225 -32 q 96 -14 121 -32 q 47 90 47 15 q 190 356 47 229 q 306 404 244 404 q 336 400 322 404 q 378 353 378 386 q 364 315 378 319 q 353 324 353 313 q 354 336 354 331 q 326 361 354 361 q 192 262 278 361 q 107 58 107 163 q 119 16 107 40 q 166 -8 132 -8 m 443 521 q 449 513 449 519 q 436 506 449 506 q 362 534 424 506 q 271 578 300 563 q 203 640 203 615 q 222 658 203 653 q 232 660 226 660 q 301 628 257 660 q 443 521 349 590 z "},"":{"ha":488,"x_min":46,"x_max":581,"o":"m 343 153 q 368 232 368 204 q 362 276 368 260 q 367 303 356 292 q 397 311 379 314 q 425 249 425 304 q 360 103 425 193 q 399 65 361 65 q 513 146 436 65 q 558 200 549 188 q 574 209 567 213 q 581 203 581 206 q 531 131 581 189 q 390 33 451 33 q 333 68 350 33 q 279 14 306 39 q 158 -32 225 -32 q 96 -14 121 -32 q 47 90 47 15 q 103 257 47 172 q 178 344 135 307 q 307 404 246 404 q 336 400 322 404 q 378 347 378 386 q 361 315 378 315 q 354 336 354 318 q 326 361 354 361 q 201 272 278 361 q 110 93 125 183 q 107 59 107 78 q 119 16 107 40 q 166 -8 132 -8 q 240 22 200 -8 q 313 100 281 53 l 308 108 q 314 144 303 131 q 343 153 325 158 m 525 667 l 551 658 q 568 633 568 649 q 558 611 568 621 q 445 550 536 593 q 336 506 354 507 q 325 512 325 507 q 328 519 325 517 q 347 533 332 522 q 383 558 363 544 q 410 576 403 571 q 457 613 417 582 q 513 664 497 643 q 525 667 521 667 z "},"":{"ha":488,"x_min":46,"x_max":581,"o":"m 343 153 q 368 232 368 204 q 362 276 368 260 q 367 303 356 292 q 397 311 379 314 q 425 249 425 304 q 360 103 425 193 q 399 65 361 65 q 513 146 436 65 q 558 200 549 188 q 574 209 567 213 q 581 203 581 206 q 531 131 581 189 q 390 33 451 33 q 333 68 350 33 q 279 14 306 39 q 158 -32 225 -32 q 96 -14 121 -32 q 47 90 47 15 q 103 257 47 172 q 178 344 135 307 q 307 404 246 404 q 336 400 322 404 q 378 347 378 386 q 361 315 378 315 q 354 336 354 318 q 326 361 354 361 q 201 272 278 361 q 110 93 125 183 q 107 59 107 78 q 119 16 107 40 q 166 -8 132 -8 q 240 22 200 -8 q 313 100 281 53 l 308 108 q 314 144 303 131 q 343 153 325 158 m 378 674 q 431 624 396 667 q 481 558 467 581 q 496 527 496 536 q 490 518 496 518 q 475 526 483 518 q 418 575 467 533 q 361 625 369 617 q 295 577 336 610 q 231 530 254 544 q 208 528 208 515 q 219 549 208 540 q 267 590 229 557 q 378 674 358 674 z "},"":{"ha":488,"x_min":46,"x_max":581,"o":"m 343 153 q 368 232 368 204 q 362 276 368 260 q 367 303 356 292 q 397 311 379 314 q 425 249 425 304 q 360 103 425 193 q 399 65 361 65 q 513 146 436 65 q 558 200 549 188 q 574 209 567 213 q 581 203 581 206 q 531 131 581 189 q 390 33 451 33 q 333 68 350 33 q 279 14 306 39 q 158 -32 225 -32 q 96 -14 121 -32 q 47 90 47 15 q 103 257 47 172 q 178 344 135 307 q 307 404 246 404 q 336 400 322 404 q 378 347 378 386 q 361 315 378 315 q 354 336 354 318 q 326 361 354 361 q 201 272 278 361 q 110 93 125 183 q 107 59 107 78 q 119 16 107 40 q 166 -8 132 -8 q 240 22 200 -8 q 313 100 281 53 l 308 108 q 314 144 303 131 q 343 153 325 158 m 510 594 q 524 599 513 599 q 535 592 535 599 q 479 519 535 560 q 437 503 456 503 q 406 507 418 503 q 367 523 394 511 q 329 539 340 535 q 291 549 318 543 q 251 547 264 554 q 182 499 206 536 q 170 496 179 496 q 161 503 161 496 q 175 523 161 503 q 206 563 189 543 q 248 596 224 583 q 287 608 272 608 q 314 604 301 608 q 367 581 326 600 q 453 549 428 549 q 510 594 493 549 z "},"":{"ha":488,"x_min":46,"x_max":581,"o":"m 166 -8 q 183 -8 166 -8 q 240 22 200 -8 q 313 100 281 53 l 308 108 q 314 144 303 131 q 343 153 325 158 q 368 232 368 204 q 362 276 368 260 q 367 303 356 292 q 397 311 379 314 q 425 256 425 304 q 360 103 425 193 q 399 65 361 65 q 513 146 436 65 q 558 200 549 188 q 574 209 567 213 q 581 197 581 206 q 531 131 581 189 q 390 33 451 33 q 333 68 350 33 q 279 14 306 39 q 144 -32 225 -32 q 96 -14 121 -32 q 47 90 47 15 q 190 356 47 229 q 306 404 244 404 q 336 400 322 404 q 378 353 378 386 q 364 315 378 319 q 353 324 353 313 q 354 336 354 331 q 326 361 354 361 q 192 262 278 361 q 107 58 107 163 q 119 16 107 40 q 166 -8 132 -8 m 265 506 q 218 528 218 506 q 247 555 218 532 q 290 588 276 578 q 306 599 303 599 q 307 582 311 599 l 301 560 q 288 527 301 549 q 265 506 274 506 m 486 506 q 439 528 439 506 q 468 555 439 532 q 510 588 497 578 q 527 599 524 599 q 531 596 531 599 q 528 582 531 593 l 522 560 q 508 527 522 549 q 486 506 493 506 z "},"":{"ha":651,"x_min":129,"x_max":653,"o":"m 578 271 q 653 253 653 271 q 579 232 653 236 q 161 219 575 232 q 129 232 129 218 q 160 265 129 253 q 174 269 168 269 l 578 271 m 378 142 q 381 131 381 138 l 381 114 q 366 81 381 103 q 343 60 351 60 q 297 82 297 60 q 342 129 297 85 q 378 142 374 153 m 481 422 l 481 401 q 466 369 481 390 q 444 347 451 347 q 397 371 397 347 q 419 396 397 376 q 447 419 442 415 q 473 433 465 433 q 481 422 481 433 z "},"":{"ha":488,"x_min":46,"x_max":581,"o":"m 181 347 q 318 404 244 404 q 367 379 349 404 q 440 470 429 461 q 460 479 450 479 q 479 477 469 479 q 481 465 489 475 q 376 343 454 436 l 376 333 q 368 318 375 322 q 357 317 361 314 q 131 4 213 133 q 174 -8 149 -8 q 240 22 200 -8 q 313 100 281 53 l 308 108 q 314 144 303 131 q 343 153 325 158 q 368 232 368 204 q 362 276 368 260 q 367 303 356 292 q 397 311 379 314 q 425 249 425 304 q 360 103 425 193 q 399 65 361 65 q 513 146 436 65 q 558 200 549 188 q 574 209 567 213 q 581 203 581 206 q 531 131 581 189 q 390 33 451 33 q 333 68 350 33 q 274 10 306 39 q 161 -32 226 -32 q 114 -22 135 -32 l 85 -71 q 60 -89 75 -89 q 46 -83 46 -89 q 89 -8 46 -71 q 46 88 46 22 q 58 165 46 121 q 181 347 90 267 m 326 361 q 201 272 278 361 q 107 63 107 163 q 113 28 107 43 q 347 353 211 175 q 326 361 342 361 z "},"":{"ha":618,"x_min":44,"x_max":711,"o":"m 708 194 q 633 99 688 157 q 536 8 579 40 q 415 -32 481 -32 q 383 -20 403 -32 q 356 14 363 -8 q 349 57 349 36 q 376 200 349 129 q 338 141 372 197 q 255 35 304 85 q 156 -15 206 -15 q 101 -3 132 -15 q 46 89 46 22 q 102 258 46 171 q 174 350 158 344 q 213 356 194 356 q 251 348 232 356 q 246 322 271 340 q 110 128 150 235 q 94 58 94 86 q 109 21 94 29 q 138 13 124 13 q 228 59 171 13 q 388 253 286 106 q 436 334 401 274 q 478 406 471 394 q 530 395 500 406 q 550 368 560 385 q 456 204 483 257 q 419 81 429 151 q 418 49 418 68 q 429 17 418 29 q 487 15 450 -6 q 588 92 524 35 q 690 206 651 150 q 703 209 696 213 q 711 202 711 206 q 708 194 711 199 m 500 511 q 487 504 500 504 q 412 533 474 504 q 321 578 350 561 q 253 638 253 614 q 272 657 253 650 q 280 658 276 658 q 287 658 283 658 q 295 657 290 658 q 303 655 300 656 q 310 651 306 654 q 318 647 315 649 q 327 642 321 646 q 336 638 333 639 q 374 608 350 628 q 448 553 399 589 q 499 515 497 518 q 500 511 500 513 z "},"":{"ha":618,"x_min":44,"x_max":711,"o":"m 708 194 q 633 99 688 157 q 536 8 579 40 q 415 -32 481 -32 q 383 -20 403 -32 q 356 14 363 -8 q 349 57 349 36 q 376 200 349 129 q 338 141 372 197 q 255 35 304 85 q 156 -15 206 -15 q 101 -3 132 -15 q 46 89 46 22 q 102 258 46 171 q 174 350 158 344 q 213 356 194 356 q 251 348 232 356 q 246 322 271 340 q 110 128 150 235 q 94 58 94 86 q 109 21 94 29 q 138 13 124 13 q 228 59 171 13 q 388 253 286 106 q 436 334 401 274 q 478 406 471 394 q 530 395 500 406 q 550 368 560 385 q 456 204 483 257 q 419 81 429 151 q 418 49 418 68 q 429 17 418 29 q 487 15 450 -6 q 588 92 524 35 q 690 206 651 150 q 703 209 696 213 q 711 202 711 206 q 708 194 711 199 m 593 610 q 585 603 593 610 q 487 553 578 596 q 381 508 396 510 q 365 512 365 507 q 369 521 365 517 q 388 535 372 525 q 422 559 403 546 q 451 580 442 572 q 483 604 460 588 q 551 665 532 639 q 565 667 556 667 q 592 660 574 667 q 608 635 608 650 q 593 610 608 624 z "},"":{"ha":618,"x_min":44,"x_max":711,"o":"m 708 194 q 633 99 688 157 q 536 8 579 40 q 415 -32 481 -32 q 383 -20 403 -32 q 356 14 363 -8 q 349 57 349 36 q 376 200 349 129 q 338 141 372 197 q 255 35 304 85 q 156 -15 206 -15 q 101 -3 132 -15 q 46 89 46 22 q 102 258 46 171 q 174 350 158 344 q 213 356 194 356 q 251 348 232 356 q 246 322 271 340 q 110 128 150 235 q 94 58 94 86 q 109 21 94 29 q 138 13 124 13 q 228 59 171 13 q 388 253 286 106 q 436 334 401 274 q 478 406 471 394 q 530 395 500 406 q 550 368 560 385 q 456 204 483 257 q 419 81 429 151 q 418 49 418 68 q 429 17 418 29 q 487 15 450 -6 q 588 92 524 35 q 690 206 651 150 q 703 209 696 213 q 711 202 711 206 q 708 194 711 199 m 554 544 q 560 526 560 535 q 554 517 560 517 q 541 524 549 517 q 483 573 533 531 q 425 624 433 615 q 361 575 401 608 q 272 526 272 506 q 288 551 272 539 q 331 589 294 557 q 443 672 422 672 q 554 544 478 658 z "},"":{"ha":618,"x_min":44,"x_max":711,"o":"m 708 194 q 633 99 688 157 q 536 8 579 40 q 415 -32 481 -32 q 383 -20 403 -32 q 356 14 363 -8 q 349 57 349 36 q 376 200 349 129 q 338 141 372 197 q 255 35 304 85 q 156 -15 206 -15 q 101 -3 132 -15 q 46 89 46 22 q 102 258 46 171 q 174 350 158 344 q 213 356 194 356 q 251 348 232 356 q 246 322 271 340 q 110 128 150 235 q 94 58 94 86 q 109 21 94 29 q 138 13 124 13 q 228 59 171 13 q 388 253 286 106 q 436 334 401 274 q 478 406 471 394 q 530 395 500 406 q 550 368 560 385 q 456 204 483 257 q 419 81 429 151 q 418 49 418 68 q 429 17 418 29 q 487 15 450 -6 q 588 92 524 35 q 690 206 651 150 q 703 209 696 213 q 711 202 711 206 q 708 194 711 199 m 349 594 l 340 558 q 326 526 340 547 q 304 504 313 504 q 257 526 257 504 q 296 560 257 529 q 340 594 335 592 q 347 597 344 597 q 349 594 349 597 m 569 594 l 561 558 q 547 526 561 547 q 524 504 532 504 q 478 526 478 504 q 517 560 478 529 q 561 594 556 592 q 568 597 567 597 q 569 594 569 597 z "},"":{"ha":578,"x_min":-81,"x_max":679,"o":"m 18 -529 q -10 -525 7 -529 q -81 -451 -81 -507 q -8 -310 -81 -394 q 300 -69 65 -225 q 465 304 431 197 q 400 220 449 285 q 314 110 351 156 q 224 25 276 65 q 126 -15 171 -15 q 58 5 82 -15 q 31 47 33 25 q 28 85 28 69 q 56 188 28 136 q 168 333 97 272 q 215 358 194 358 q 251 346 235 358 q 263 313 269 326 q 142 194 210 282 q 92 75 106 147 q 90 51 90 65 q 102 27 90 36 q 126 18 114 18 q 217 64 169 18 q 307 160 264 110 q 405 282 350 211 q 478 376 460 353 q 517 397 496 399 q 560 383 539 394 q 578 365 582 372 q 508 208 575 358 q 410 -8 440 57 q 523 77 443 10 q 658 214 603 144 q 676 217 672 231 q 678 208 678 214 q 669 190 678 201 q 532 47 626 133 q 382 -69 438 -39 q 224 -375 264 -312 q 18 -529 119 -529 m 274 -122 q 35 -319 107 -247 q -36 -444 -36 -392 q 0 -496 -36 -496 q 64 -467 28 -496 q 133 -392 100 -439 q 184 -310 167 -344 q 232 -210 201 -276 q 274 -122 263 -144 m 590 665 l 618 657 q 635 632 635 647 q 625 610 635 619 q 512 549 603 592 q 406 505 421 506 q 390 508 390 504 q 394 517 390 513 q 413 532 397 521 q 449 556 429 543 q 477 576 468 568 q 508 600 486 583 q 578 663 563 640 q 590 665 586 665 z "},"":{"ha":488,"x_min":-197,"x_max":492,"o":"m 422 308 q 385 357 422 357 q 313 331 363 357 q 213 251 263 304 q 135 152 163 199 q 85 56 108 106 q 57 -1 61 7 q 243 72 142 -1 q 394 232 344 146 q 422 308 422 275 m 490 288 q 440 164 490 228 q 181 -14 347 43 q 98 -31 131 -31 q 44 -24 65 -31 q -40 -261 14 -94 q -47 -306 -46 -279 q -63 -380 -47 -333 q -94 -454 -79 -426 q -135 -481 -101 -471 q -182 -492 -168 -492 q -196 -478 -196 -492 q -192 -462 -196 -472 q -33 -85 -133 -343 q 82 215 68 174 q 144 386 96 257 q 260 728 260 699 q 305 743 260 743 q 350 713 350 743 q 328 656 350 689 q 264 522 307 622 q 171 296 221 421 q 119 167 121 171 q 250 326 200 289 q 379 381 317 381 q 429 372 404 381 q 489 310 483 353 q 490 288 490 299 z "},"":{"ha":2083,"x_min":0,"x_max":0,"o":""},"":{"ha":653,"x_min":15,"x_max":1367,"o":"m 968 -35 q 906 3 925 -35 q 886 101 886 42 q 911 263 886 160 q 746 282 863 267 q 425 -50 553 43 q 197 -132 315 -132 q 69 -94 122 -132 q 15 17 15 -57 q 22 42 15 31 q 36 49 29 54 q 43 17 43 43 q 80 -54 43 -31 q 169 -78 117 -78 q 394 -3 283 -78 q 694 288 504 71 q 425 313 490 313 q 207 197 249 313 q 201 169 201 182 q 207 145 201 156 q 209 128 213 135 q 197 123 206 122 q 183 132 189 124 q 168 183 168 158 q 199 310 168 269 q 272 363 231 351 q 389 376 322 376 q 725 324 456 376 q 953 601 800 410 q 1106 794 1106 792 l 1107 794 q 1114 799 1108 796 q 1186 818 1147 818 q 1200 804 1200 818 q 1199 801 1200 803 q 1196 795 1197 799 q 1193 789 1194 792 q 986 292 1060 568 l 982 282 l 1017 281 q 1056 279 1028 279 q 1117 292 1085 279 q 1158 321 1149 306 q 1174 328 1167 336 q 1175 310 1181 319 q 1121 269 1160 282 q 1055 256 1088 256 q 1013 256 1022 256 l 975 257 q 949 65 949 136 q 988 -7 949 -7 q 1104 53 1025 -7 q 1253 207 1183 113 q 1265 209 1257 213 q 1270 196 1274 206 q 1247 161 1267 186 q 1104 14 1189 83 q 968 -35 1043 -35 m 1044 664 q 1048 672 1046 667 q 1051 679 1050 676 q 772 313 878 442 l 918 289 q 1044 664 957 440 m 1083 958 l 1290 961 q 1367 943 1361 961 q 1350 929 1367 933 q 1071 908 1261 913 q 1065 908 1068 908 q 1039 922 1039 908 q 1069 956 1039 942 q 1083 958 1078 958 z "},"":{"ha":635,"x_min":15,"x_max":728,"o":"m 125 -15 q 77 -2 103 -15 q 33 35 51 11 q 15 88 15 60 q 28 140 15 115 q 117 253 56 199 q 246 347 179 308 q 351 396 313 386 q 427 406 390 406 q 490 387 464 406 q 517 347 517 368 q 515 339 517 340 q 508 340 514 338 q 440 367 492 367 q 322 333 388 367 q 197 247 256 299 q 112 144 149 201 q 75 60 75 86 q 104 8 75 8 q 193 56 133 8 q 328 178 292 139 q 465 315 456 315 q 506 306 482 315 q 521 282 529 296 q 438 81 450 182 q 436 49 436 68 q 447 17 436 29 q 504 14 468 -6 q 605 92 540 33 q 708 206 669 150 q 721 209 714 213 q 728 203 728 206 q 662 112 728 182 q 561 17 596 42 q 440 -32 496 -32 q 369 21 388 -32 q 365 58 365 38 q 392 190 365 121 q 340 135 386 188 q 234 33 294 82 q 125 -15 174 -15 m 571 505 q 553 502 571 505 q 440 494 535 500 q 313 489 344 489 q 281 501 281 489 q 311 535 281 522 l 325 539 q 531 540 325 539 q 607 524 604 540 q 571 505 607 510 z "},"":{"ha":653,"x_min":15,"x_max":1440,"o":"m 968 -35 q 906 3 925 -35 q 886 101 886 42 q 911 263 886 160 q 746 282 863 267 q 425 -50 553 43 q 197 -132 315 -132 q 69 -94 122 -132 q 15 17 15 -57 q 22 42 15 31 q 36 49 29 54 q 43 17 43 43 q 80 -54 43 -31 q 169 -78 117 -78 q 394 -3 283 -78 q 694 288 504 71 q 425 313 490 313 q 207 197 249 313 q 201 169 201 182 q 207 145 201 156 q 209 128 213 135 q 197 123 206 122 q 183 132 189 124 q 168 183 168 158 q 199 310 168 269 q 272 363 231 351 q 389 376 322 376 q 725 324 456 376 q 1104 790 800 410 q 1114 799 1108 796 q 1186 818 1147 818 q 1200 804 1200 818 q 1199 801 1200 803 q 1196 795 1197 799 q 1193 789 1194 792 q 986 292 1060 568 l 982 282 l 1017 281 q 1056 279 1028 279 q 1117 292 1085 279 q 1158 321 1149 306 q 1174 328 1167 336 q 1175 310 1181 319 q 1121 269 1160 282 q 1055 256 1088 256 q 1013 256 1022 256 l 975 257 q 949 65 949 136 q 988 -7 949 -7 q 1104 53 1025 -7 q 1253 207 1183 113 q 1265 209 1257 213 q 1270 196 1274 206 q 1247 161 1267 186 q 1104 14 1189 83 q 968 -35 1043 -35 m 1044 664 q 1048 672 1046 667 q 1051 679 1050 676 q 772 313 878 442 l 918 289 q 1044 664 957 440 m 1315 913 q 1222 888 1263 888 q 1147 903 1181 888 q 1081 1014 1081 933 q 1096 1071 1081 1064 q 1122 1071 1111 1078 q 1132 1049 1132 1064 q 1189 943 1132 975 q 1250 926 1218 926 q 1319 944 1282 926 q 1422 1074 1392 979 q 1426 1079 1424 1079 q 1432 1075 1428 1079 q 1440 1060 1440 1072 q 1315 913 1417 960 z "},"":{"ha":635,"x_min":15,"x_max":728,"o":"m 125 -15 q 77 -2 103 -15 q 33 35 51 11 q 15 88 15 60 q 28 140 15 115 q 117 253 56 199 q 246 347 179 308 q 351 396 313 386 q 427 406 390 406 q 490 387 464 406 q 517 347 517 368 q 515 339 517 340 q 508 340 514 338 q 440 367 492 367 q 322 333 388 367 q 197 247 256 299 q 112 144 149 201 q 75 60 75 86 q 104 8 75 8 q 193 56 133 8 q 328 178 292 139 q 465 315 456 315 q 506 306 482 315 q 521 282 529 296 q 438 81 450 182 q 436 49 436 68 q 447 17 436 29 q 504 14 468 -6 q 605 92 540 33 q 708 206 669 150 q 721 209 714 213 q 728 203 728 206 q 662 112 728 182 q 561 17 596 42 q 440 -32 496 -32 q 369 21 388 -32 q 365 58 365 38 q 392 190 365 121 q 340 135 386 188 q 234 33 294 82 q 125 -15 174 -15 m 579 524 q 485 499 526 499 q 411 514 444 499 q 344 625 344 544 q 360 682 344 675 q 385 682 375 689 q 396 660 396 675 q 453 554 396 586 q 514 538 482 538 q 583 556 546 538 q 686 685 656 590 q 690 690 688 690 q 696 686 692 690 q 704 671 704 683 q 579 524 681 571 z "},"":{"ha":1179,"x_min":15,"x_max":1271,"o":"m 946 -31 q 885 104 885 -10 q 911 263 885 158 q 746 282 863 267 q 425 -50 553 43 q 197 -132 315 -132 q 69 -94 122 -132 q 15 17 15 -57 q 22 42 15 31 q 36 49 29 54 q 43 17 43 43 q 80 -54 43 -31 q 169 -78 117 -78 q 394 -3 283 -78 q 694 288 504 71 q 425 313 490 313 q 207 197 249 313 q 201 169 201 182 q 207 145 201 156 q 209 128 213 135 q 197 123 206 122 q 183 132 189 124 q 168 183 168 158 q 199 310 168 269 q 272 363 231 351 q 389 376 322 376 q 725 324 456 376 q 1104 790 800 410 q 1114 799 1108 796 q 1186 818 1147 818 q 1200 804 1200 818 q 1199 801 1200 803 q 1196 795 1197 799 q 1193 789 1194 792 q 986 292 1060 568 l 982 282 l 1017 281 q 1056 279 1028 279 q 1117 292 1085 279 q 1158 321 1149 306 q 1174 328 1167 336 q 1175 310 1181 319 q 1121 269 1160 282 q 1055 256 1088 256 q 1013 256 1022 256 l 975 257 q 949 65 949 136 q 988 -7 949 -7 q 1104 53 1025 -7 q 1253 207 1183 113 q 1264 210 1257 213 q 1271 203 1271 207 q 1269 192 1271 199 q 1247 161 1267 186 q 1104 14 1189 83 q 989 -32 1051 -26 q 894 -103 963 -58 q 784 -185 826 -147 q 705 -283 742 -224 q 668 -368 668 -342 q 679 -410 668 -394 q 729 -409 697 -428 q 783 -375 761 -390 q 830 -339 804 -360 q 875 -301 856 -318 q 932 -251 924 -258 q 959 -242 953 -232 q 950 -268 965 -251 l 933 -289 q 822 -403 869 -369 q 715 -442 767 -442 q 628 -396 663 -442 q 608 -340 608 -368 q 622 -286 608 -312 q 721 -178 650 -226 q 847 -94 765 -146 q 946 -31 929 -42 m 1044 664 q 1048 672 1046 667 q 1051 679 1050 676 q 772 313 878 442 l 918 289 q 1044 664 957 440 z "},"":{"ha":635,"x_min":15,"x_max":728,"o":"m 408 -24 q 365 58 365 -7 q 392 190 365 121 q 340 135 386 188 q 234 33 294 82 q 125 -15 174 -15 q 77 -2 103 -15 q 33 35 51 11 q 15 88 15 60 q 28 140 15 115 q 117 253 56 199 q 246 347 179 308 q 351 396 313 386 q 427 406 390 406 q 490 387 464 406 q 517 347 517 368 q 515 339 517 340 q 508 340 514 338 q 440 367 492 367 q 322 333 388 367 q 197 247 256 299 q 112 144 149 201 q 75 60 75 86 q 104 8 75 8 q 193 56 133 8 q 328 178 292 139 q 465 315 456 315 q 506 306 482 315 q 521 282 529 296 q 438 81 450 182 q 436 49 436 68 q 447 17 436 29 q 504 14 468 -6 q 605 92 540 33 q 708 206 669 150 q 721 209 714 213 q 728 203 728 206 q 662 112 728 182 q 544 4 596 42 q 440 -31 503 -31 q 370 -81 422 -46 q 285 -144 318 -115 q 222 -223 251 -174 q 192 -293 192 -272 q 200 -326 192 -314 q 242 -324 218 -339 q 283 -298 267 -310 q 322 -269 300 -286 q 358 -239 343 -251 q 409 -194 401 -201 q 423 -187 417 -187 q 428 -196 429 -187 q 419 -211 428 -204 q 386 -255 419 -217 q 338 -305 353 -293 q 306 -329 322 -317 q 228 -354 269 -354 q 158 -315 188 -354 q 143 -271 143 -293 q 235 -139 143 -203 q 358 -56 321 -79 q 408 -24 396 -32 z "},"":{"ha":667,"x_min":28,"x_max":874,"o":"m 775 700 q 693 778 775 778 q 509 711 622 778 q 276 508 396 644 q 110 221 157 371 q 90 110 90 161 q 119 22 90 60 q 288 -46 171 -44 q 303 -46 296 -46 q 582 20 432 -46 q 822 214 732 86 q 838 217 829 224 q 842 201 847 210 q 589 -10 739 61 q 299 -81 439 -81 q 76 3 151 -81 q 28 144 28 57 q 139 461 28 292 q 506 781 290 692 q 665 814 589 814 q 800 769 760 814 q 826 699 826 739 q 746 542 826 622 q 567 413 665 461 q 397 358 469 365 q 369 374 368 356 q 404 401 371 399 q 608 469 515 411 q 751 622 701 526 q 775 700 775 660 m 831 1047 l 857 1039 q 874 1014 874 1029 q 864 992 874 996 q 751 931 842 974 q 645 887 660 888 q 631 890 631 886 q 634 899 631 894 q 653 914 638 903 q 688 938 668 925 q 717 958 708 951 q 750 983 726 965 q 818 1044 803 1022 q 831 1047 826 1047 z "},"":{"ha":438,"x_min":26,"x_max":610,"o":"m 404 306 l 411 333 q 390 361 411 361 q 235 272 333 361 q 110 93 136 183 q 103 51 103 69 q 111 19 103 32 q 163 -6 128 -6 q 238 4 197 -6 q 385 76 326 29 q 510 206 444 122 q 525 209 515 213 q 526 188 535 206 q 387 41 460 97 q 218 -32 314 -15 q 167 -36 190 -36 q 63 -3 99 -36 q 28 71 28 31 q 47 158 28 111 q 196 321 82 238 q 376 404 310 404 q 408 400 393 404 q 447 356 447 386 q 432 308 447 335 q 409 290 417 282 q 404 306 401 297 m 567 660 l 593 651 q 610 626 610 642 q 600 604 610 614 q 487 543 578 586 q 378 499 396 500 q 367 505 367 500 q 370 513 367 510 q 389 526 374 515 q 424 551 404 538 q 451 569 444 564 q 499 606 458 575 q 554 657 539 636 q 567 660 563 660 z "},"":{"ha":667,"x_min":28,"x_max":860,"o":"m 775 700 q 693 778 775 778 q 509 711 622 778 q 276 508 396 644 q 110 221 157 371 q 90 110 90 161 q 119 22 90 60 q 288 -46 171 -44 q 303 -46 296 -46 q 582 20 432 -46 q 822 214 732 86 q 838 217 829 224 q 842 201 847 210 q 589 -10 739 61 q 299 -81 439 -81 q 76 3 151 -81 q 28 144 28 57 q 139 461 28 292 q 506 781 290 692 q 665 814 589 814 q 800 769 760 814 q 826 699 826 739 q 746 542 826 622 q 567 413 665 461 q 397 358 469 365 q 369 374 368 356 q 404 401 371 399 q 608 469 515 411 q 751 622 701 526 q 775 700 775 660 m 853 885 q 858 866 858 875 q 853 857 858 857 q 840 864 847 857 q 782 913 832 871 q 724 964 732 956 q 658 917 700 949 q 571 867 571 846 q 586 892 571 879 q 628 929 593 897 q 742 1013 721 1013 q 853 885 776 999 z "},"":{"ha":438,"x_min":26,"x_max":533,"o":"m 404 306 l 411 333 q 390 361 411 361 q 235 272 333 361 q 110 93 136 183 q 103 51 103 69 q 111 19 103 32 q 163 -6 128 -6 q 238 4 197 -6 q 385 76 326 29 q 510 206 444 122 q 523 210 515 213 q 531 202 531 207 q 526 188 531 197 q 387 41 460 97 q 218 -32 314 -15 q 167 -36 190 -36 q 63 -3 99 -36 q 28 71 28 31 q 47 158 28 111 q 196 321 82 238 q 376 404 310 404 q 408 400 393 404 q 447 356 447 386 q 432 308 447 335 q 409 290 417 282 q 404 306 401 297 m 415 614 q 468 563 432 607 q 518 497 504 519 q 532 466 532 475 q 526 457 532 457 q 513 465 521 457 q 455 514 504 472 q 397 565 406 556 q 333 517 374 550 q 244 467 244 446 q 255 488 244 479 q 303 529 265 496 q 415 614 393 611 z "},"":{"ha":667,"x_min":28,"x_max":844,"o":"m 775 700 q 693 778 775 778 q 509 711 622 778 q 276 508 396 644 q 110 221 157 371 q 90 110 90 161 q 119 22 90 60 q 288 -46 171 -44 q 303 -46 296 -46 q 582 20 432 -46 q 822 214 732 86 q 837 218 829 224 q 844 208 844 213 q 842 201 844 204 q 589 -10 739 61 q 299 -81 439 -81 q 76 3 151 -81 q 28 144 28 57 q 139 461 28 292 q 506 781 290 692 q 665 814 589 814 q 800 769 760 814 q 826 699 826 739 q 746 542 826 622 q 567 413 665 461 q 397 358 469 365 q 369 374 368 356 q 404 401 371 399 q 608 469 515 411 q 751 622 701 526 q 775 700 775 660 m 744 997 q 786 1019 774 1019 q 799 1003 799 1019 l 799 975 q 778 931 799 961 q 746 901 758 901 q 682 935 682 901 q 708 964 682 939 q 744 997 735 989 z "},"":{"ha":438,"x_min":26,"x_max":531,"o":"m 404 306 l 411 333 q 390 361 411 361 q 235 272 333 361 q 110 93 136 183 q 103 51 103 69 q 111 19 103 32 q 163 -6 128 -6 q 238 4 197 -6 q 385 76 326 29 q 510 206 444 122 q 523 210 515 213 q 531 202 531 207 q 526 188 531 197 q 387 41 460 97 q 218 -32 314 -15 q 167 -36 190 -36 q 63 -3 99 -36 q 28 71 28 31 q 47 158 28 111 q 196 321 82 238 q 376 404 310 404 q 408 400 393 404 q 447 356 447 386 q 432 308 447 335 q 409 290 417 282 q 404 306 401 297 m 467 586 l 467 561 q 452 529 467 551 q 429 507 438 507 q 382 532 382 507 q 401 554 382 536 q 429 579 421 572 q 457 594 447 594 q 467 586 467 594 z "},"":{"ha":667,"x_min":28,"x_max":874,"o":"m 775 700 q 693 778 775 778 q 509 711 622 778 q 276 508 396 644 q 110 221 157 371 q 90 110 90 161 q 119 22 90 60 q 288 -46 171 -44 q 303 -46 296 -46 q 582 20 432 -46 q 822 214 732 86 q 838 217 829 224 q 842 201 847 210 q 589 -10 739 61 q 299 -81 439 -81 q 76 3 151 -81 q 28 144 28 57 q 139 461 28 292 q 506 781 290 692 q 665 814 589 814 q 800 769 760 814 q 826 699 826 739 q 746 542 826 622 q 567 413 665 461 q 397 358 469 365 q 369 374 368 356 q 404 401 371 399 q 608 469 515 411 q 751 622 701 526 q 775 700 775 660 m 592 1013 q 586 1031 586 1022 q 592 1040 586 1040 q 604 1035 599 1040 q 639 1007 610 1031 q 722 935 707 950 q 785 981 744 949 q 874 1032 872 1050 q 864 1012 874 1019 q 817 969 854 1004 q 704 885 725 885 q 592 1013 674 896 z "},"":{"ha":438,"x_min":26,"x_max":568,"o":"m 404 306 l 411 333 q 390 361 411 361 q 235 272 333 361 q 110 93 136 183 q 103 51 103 69 q 111 19 103 32 q 163 -6 128 -6 q 238 4 197 -6 q 385 76 326 29 q 510 206 444 122 q 525 209 515 213 q 526 188 535 206 q 387 41 460 97 q 218 -32 314 -15 q 167 -36 190 -36 q 63 -3 99 -36 q 28 71 28 31 q 47 158 28 111 q 196 321 82 238 q 376 404 310 404 q 408 400 393 404 q 447 356 447 386 q 432 308 447 335 q 409 290 417 282 q 404 306 401 297 m 286 617 q 281 635 281 626 q 287 644 281 644 q 299 640 293 644 q 333 611 304 635 q 417 539 401 554 q 479 585 439 553 q 544 632 519 617 q 568 635 568 647 q 558 615 568 622 q 511 572 549 608 q 399 489 419 489 q 286 617 368 500 z "},"":{"ha":788,"x_min":110,"x_max":1260,"o":"m 113 429 l 110 451 q 194 625 110 549 q 683 792 346 760 q 803 796 735 796 q 978 776 872 796 q 1151 701 1083 756 q 1260 469 1260 613 q 1174 203 1260 325 q 957 15 1089 82 q 675 -51 825 -51 q 432 19 525 -51 q 419 -4 431 18 q 394 -47 407 -26 q 281 -75 331 -149 q 251 28 251 -32 q 264 172 251 88 q 253 211 265 181 q 263 239 249 225 q 294 253 274 247 q 322 253 314 258 q 318 223 329 247 q 307 178 307 199 q 350 116 307 157 q 403 72 393 75 q 544 379 436 154 q 557 417 557 404 q 554 436 557 429 q 642 564 561 476 q 774 651 724 651 q 822 638 793 651 q 856 601 851 625 q 854 592 856 593 q 847 594 853 592 q 839 597 842 597 q 734 533 794 597 q 614 364 674 468 q 444 44 508 183 q 632 -18 531 -18 q 885 50 764 -18 q 1079 207 1006 118 q 1199 494 1199 353 q 1116 681 1199 599 q 854 768 1033 763 q 838 768 846 768 q 539 722 696 768 q 271 589 382 675 q 160 410 160 503 q 174 368 160 386 q 205 343 189 350 q 245 328 221 336 q 277 316 269 319 q 286 308 285 313 q 267 297 289 297 q 163 335 215 301 q 111 415 111 369 q 113 429 111 422 m 300 125 q 326 -62 300 -62 q 382 35 346 -62 q 385 40 385 39 q 344 81 375 49 q 300 125 313 114 m 783 993 q 776 1012 776 1003 q 783 1021 776 1021 q 795 1016 790 1021 q 852 969 800 1011 q 913 915 904 926 q 978 963 938 931 q 1040 1009 1018 994 q 1064 1013 1063 1024 q 1053 990 1064 1000 q 1006 949 1042 981 q 896 865 914 865 q 783 993 860 878 z "},"":{"ha":978,"x_min":15,"x_max":1078,"o":"m 117 253 q 148 281 117 253 q 246 347 179 308 q 351 396 313 386 q 428 406 390 406 q 499 381 465 406 q 863 822 689 822 q 942 789 921 822 q 951 760 951 772 q 922 672 951 725 q 829 554 892 618 q 650 397 767 490 q 521 292 533 303 q 451 93 476 189 q 426 -50 426 -3 q 443 -125 426 -97 q 468 -147 451 -143 q 497 -142 485 -150 q 515 -129 508 -135 q 530 -119 521 -124 q 543 -117 539 -114 q 542 -132 547 -119 q 521 -156 531 -146 q 469 -171 499 -171 q 429 -169 439 -171 q 363 -72 363 -158 q 385 82 363 11 q 440 243 415 179 q 125 -15 218 -15 q 77 -2 103 -15 q 33 35 51 11 q 15 88 15 60 q 28 140 15 115 q 117 253 56 199 m 488 358 q 429 367 471 367 q 322 333 388 367 q 197 247 256 299 q 112 144 149 201 q 75 60 75 86 q 104 8 75 8 q 193 56 133 8 q 468 311 347 182 l 488 358 m 894 708 q 913 765 913 742 q 892 788 913 788 q 839 763 872 788 q 563 372 686 646 q 751 528 653 431 q 894 708 850 625 m 1078 725 q 1019 624 1078 697 q 938 535 950 544 q 920 526 925 526 q 915 535 915 526 q 956 589 915 543 q 1010 683 996 635 q 1011 724 1021 706 q 1003 756 1001 743 q 1035 769 1014 769 q 1067 754 1057 769 q 1078 725 1078 739 z "},"":{"ha":788,"x_min":110,"x_max":1260,"o":"m 113 429 l 110 451 q 194 625 110 549 q 683 792 346 760 q 803 796 735 796 q 978 776 872 796 q 1151 701 1083 756 q 1260 469 1260 613 q 1174 203 1260 325 q 957 15 1089 82 q 675 -51 825 -51 q 432 19 525 -51 q 419 -4 431 18 q 394 -47 407 -26 q 281 -75 331 -149 q 251 28 251 -32 q 264 172 251 88 q 253 211 265 181 q 263 239 249 225 q 294 253 274 247 q 322 253 314 258 q 318 223 329 247 q 307 178 307 199 q 350 116 307 157 q 403 72 393 75 q 479 240 435 144 q 412 238 450 239 q 376 254 374 236 q 404 285 378 272 q 419 289 413 289 l 501 289 q 525 338 510 308 q 549 386 540 368 q 557 417 557 404 q 554 436 557 429 q 642 564 561 476 q 774 651 724 651 q 822 638 793 651 q 856 601 851 625 q 854 592 856 593 q 847 594 853 592 q 839 597 842 597 q 569 290 742 597 l 626 290 q 703 274 700 290 q 650 253 703 260 l 628 250 l 544 243 q 444 44 497 157 q 632 -18 531 -18 q 885 50 764 -18 q 1079 207 1006 118 q 1199 494 1199 353 q 1116 681 1199 599 q 854 768 1033 763 q 838 768 846 768 q 539 722 696 768 q 271 589 382 675 q 160 410 160 503 q 174 368 160 386 q 205 343 189 350 q 245 328 221 336 q 277 316 269 319 q 286 308 285 313 q 267 297 289 297 q 163 335 215 301 q 111 415 111 369 q 113 429 111 422 m 300 125 q 326 -62 300 -62 q 382 35 346 -62 q 385 40 385 39 q 344 81 375 49 q 300 125 313 114 z "},"":{"ha":651,"x_min":15,"x_max":957,"o":"m 951 753 q 885 618 951 703 q 957 603 957 615 q 856 579 957 588 l 849 579 q 662 408 774 497 q 521 292 550 318 q 451 93 476 189 q 426 -50 426 -3 q 443 -125 426 -97 q 468 -147 451 -143 q 497 -142 485 -150 q 515 -129 508 -135 q 530 -119 521 -124 q 543 -117 539 -114 q 542 -132 547 -119 q 521 -156 531 -146 q 469 -171 499 -171 q 429 -169 439 -171 q 363 -72 363 -158 q 385 82 363 11 q 440 243 415 179 q 125 -15 218 -15 q 77 -2 103 -15 q 33 35 51 11 q 15 88 15 60 q 28 140 15 115 q 117 253 56 199 q 246 347 179 308 q 351 396 313 386 q 428 406 390 406 q 499 381 465 406 q 589 567 532 463 q 547 565 576 565 q 518 579 518 565 q 557 614 518 599 l 578 618 l 618 618 q 861 822 740 822 q 942 789 921 822 q 951 753 951 772 m 488 358 q 429 367 471 367 q 322 333 388 367 q 197 247 256 299 q 112 144 149 201 q 75 60 75 86 q 104 8 75 8 q 193 56 133 8 q 468 311 347 182 l 488 358 m 701 618 l 833 621 q 892 705 871 668 q 913 765 913 742 q 892 788 913 788 q 839 763 872 788 q 701 618 758 701 m 563 372 q 794 575 688 456 l 667 569 q 563 372 610 482 z "},"":{"ha":729,"x_min":33,"x_max":1004,"o":"m 783 711 q 796 708 786 708 q 813 700 806 707 q 837 654 821 693 q 853 590 853 615 q 847 535 853 564 q 826 507 840 507 q 788 562 803 507 q 765 631 772 617 q 682 750 726 713 q 600 788 642 788 q 564 781 582 788 q 475 606 475 743 q 492 501 475 561 q 543 394 508 440 q 617 381 550 386 q 657 356 651 376 q 640 325 663 336 q 544 333 628 310 q 515 340 522 339 q 346 307 440 339 q 172 209 251 275 q 93 64 93 143 q 142 -33 93 4 q 298 -69 190 -69 q 538 -36 406 -69 q 747 36 671 -3 q 896 146 822 75 q 969 268 969 217 q 969 282 969 276 q 971 289 968 288 q 985 288 979 293 q 1003 233 1003 253 q 965 131 1003 176 q 818 6 900 51 q 594 -72 736 -40 q 357 -104 451 -104 q 197 -87 263 -104 q 82 -21 131 -71 q 33 102 33 29 q 69 226 33 175 q 153 304 104 276 q 272 350 203 332 q 501 385 375 378 q 394 622 411 488 q 393 651 393 638 q 417 744 393 701 q 499 804 442 786 q 583 822 556 822 q 624 819 611 822 q 647 812 638 815 q 667 802 657 808 q 683 792 676 796 q 700 778 690 788 q 714 766 710 769 q 729 752 718 763 q 743 740 740 742 q 783 711 764 715 m 556 938 l 763 940 q 839 922 833 940 q 822 908 839 913 q 543 888 733 892 q 538 888 540 888 q 511 901 511 888 q 542 935 511 921 l 556 938 z "},"":{"ha":443,"x_min":28,"x_max":576,"o":"m 376 404 q 451 332 451 404 q 431 271 451 294 q 318 181 396 219 q 186 139 240 143 q 165 150 167 138 q 169 157 164 156 q 176 158 174 158 q 258 189 208 161 q 394 292 351 239 q 413 340 413 317 q 390 363 413 363 q 342 347 372 363 q 204 241 276 317 q 110 93 132 165 q 103 49 103 71 q 121 8 103 28 q 176 -11 139 -11 q 272 11 218 -11 q 514 204 429 75 q 529 208 522 215 q 531 192 540 204 q 425 68 489 122 q 185 -37 301 -37 q 44 22 85 -37 q 29 79 29 46 q 47 158 29 113 q 196 321 82 238 q 376 404 310 404 m 293 539 l 500 540 q 576 524 574 540 q 524 503 576 510 l 501 500 q 283 489 318 489 q 249 501 249 489 q 279 535 249 522 l 293 539 z "},"":{"ha":729,"x_min":33,"x_max":1004,"o":"m 783 711 q 796 708 786 708 q 813 700 806 707 q 837 654 821 693 q 853 590 853 615 q 847 535 853 564 q 826 507 840 507 q 788 562 803 507 q 765 631 772 617 q 682 750 726 713 q 600 788 642 788 q 564 781 582 788 q 475 606 475 743 q 492 501 475 561 q 543 394 508 440 q 617 381 550 386 q 657 356 651 376 q 640 325 663 336 q 544 333 628 310 q 515 340 522 339 q 346 307 440 339 q 172 209 251 275 q 93 64 93 143 q 142 -33 93 4 q 298 -69 190 -69 q 538 -36 406 -69 q 747 36 671 -3 q 896 146 822 75 q 969 268 969 217 q 969 282 969 276 q 971 289 968 288 q 985 288 979 293 q 1003 233 1003 253 q 965 131 1003 176 q 818 6 900 51 q 594 -72 736 -40 q 357 -104 451 -104 q 197 -87 263 -104 q 82 -21 131 -71 q 33 102 33 29 q 69 226 33 175 q 153 304 104 276 q 272 350 203 332 q 501 385 375 378 q 394 622 411 488 q 393 651 393 638 q 417 744 393 701 q 499 804 442 786 q 583 822 556 822 q 624 819 611 822 q 647 812 638 815 q 667 802 657 808 q 683 792 676 796 q 700 778 690 788 q 714 766 710 769 q 729 752 718 763 q 743 740 740 742 q 783 711 764 715 m 760 903 q 666 878 707 878 q 593 890 625 878 q 524 1003 524 921 q 539 1061 524 1054 q 565 1061 554 1068 q 575 1038 575 1054 q 632 932 575 964 q 693 915 661 915 q 761 933 725 915 q 864 1063 833 968 q 869 1068 867 1068 q 878 1064 872 1068 q 883 1049 883 1060 q 760 903 860 950 z "},"":{"ha":443,"x_min":28,"x_max":632,"o":"m 376 404 q 451 332 451 404 q 431 271 451 294 q 318 181 396 219 q 186 139 240 143 q 165 150 167 138 q 169 157 164 156 q 176 158 174 158 q 258 189 208 161 q 394 292 351 239 q 413 340 413 317 q 390 363 413 363 q 342 347 372 363 q 204 241 276 317 q 110 93 132 165 q 103 49 103 71 q 121 8 103 28 q 176 -11 139 -11 q 272 11 218 -11 q 514 204 429 75 q 529 208 522 215 q 531 192 540 204 q 425 68 489 122 q 185 -37 301 -37 q 44 22 85 -37 q 29 79 29 46 q 47 158 29 113 q 196 321 82 238 q 376 404 310 404 m 271 613 q 299 675 271 675 q 314 669 306 675 q 322 647 322 663 q 381 542 322 574 q 441 525 408 525 q 511 543 474 525 q 613 672 582 578 q 617 678 614 678 q 624 674 619 678 q 632 658 632 671 q 507 513 608 560 q 413 486 454 486 q 339 501 371 486 q 271 613 271 532 z "},"":{"ha":729,"x_min":33,"x_max":1004,"o":"m 783 711 q 796 708 786 708 q 813 700 806 707 q 837 654 821 693 q 853 590 853 615 q 847 535 853 564 q 826 507 840 507 q 788 562 803 507 q 765 631 772 617 q 682 750 726 713 q 600 788 642 788 q 564 781 582 788 q 475 606 475 743 q 492 501 475 561 q 543 394 508 440 q 617 381 550 386 q 657 356 651 376 q 640 325 663 336 q 544 333 628 310 q 515 340 522 339 q 346 307 440 339 q 172 209 251 275 q 93 64 93 143 q 142 -33 93 4 q 298 -69 190 -69 q 538 -36 406 -69 q 747 36 671 -3 q 896 146 822 75 q 969 268 969 217 q 969 282 969 276 q 971 289 968 288 q 985 288 979 293 q 1003 233 1003 253 q 965 131 1003 176 q 818 6 900 51 q 594 -72 736 -40 q 357 -104 451 -104 q 197 -87 263 -104 q 82 -21 131 -71 q 33 102 33 29 q 69 226 33 175 q 153 304 104 276 q 272 350 203 332 q 501 385 375 378 q 394 622 411 488 q 393 651 393 638 q 417 744 393 701 q 499 804 442 786 q 583 822 556 822 q 624 819 611 822 q 647 812 638 815 q 667 802 657 808 q 683 792 676 796 q 700 778 690 788 q 714 766 710 769 q 729 752 718 763 q 743 740 740 742 q 783 711 764 715 m 728 1025 q 728 1008 728 1017 l 728 989 q 706 942 728 974 q 669 910 683 910 q 600 944 600 910 q 640 989 600 954 q 713 1038 699 1038 q 728 1025 726 1038 z "},"":{"ha":443,"x_min":28,"x_max":536,"o":"m 376 404 q 451 332 451 404 q 431 271 451 294 q 318 181 396 219 q 186 139 240 143 q 165 150 167 138 q 169 157 164 156 q 176 158 174 158 q 258 189 208 161 q 394 292 351 239 q 413 340 413 317 q 390 363 413 363 q 342 347 372 363 q 204 241 276 317 q 110 93 132 165 q 103 49 103 71 q 121 8 103 28 q 176 -11 139 -11 q 272 11 218 -11 q 514 204 429 75 q 529 208 522 215 q 535 201 535 206 q 531 192 535 197 q 425 68 489 122 q 185 -37 301 -37 q 44 22 85 -37 q 29 79 29 46 q 47 158 29 113 q 196 321 82 238 q 376 404 310 404 m 457 599 q 464 590 464 599 l 464 565 q 449 533 464 556 q 425 511 433 511 q 378 535 378 511 q 406 567 378 544 q 457 599 447 599 z "},"":{"ha":729,"x_min":31,"x_max":1004,"o":"m 211 -246 q 126 -349 163 -292 q 89 -446 89 -407 q 122 -483 89 -485 q 251 -404 160 -481 q 324 -342 299 -364 q 356 -315 349 -321 q 369 -306 363 -308 q 378 -305 375 -303 q 381 -311 381 -307 q 371 -335 383 -322 l 350 -361 q 139 -508 235 -508 q 50 -461 86 -508 q 31 -406 31 -433 q 44 -351 31 -378 q 142 -244 72 -293 q 357 -104 183 -215 l 349 -104 q 197 -87 263 -104 q 82 -21 131 -71 q 33 102 33 29 q 69 226 33 175 q 153 304 104 276 q 272 350 203 332 q 501 385 375 378 q 394 622 411 488 q 393 651 393 638 q 417 744 393 701 q 499 804 442 786 q 583 822 556 822 q 624 819 611 822 q 647 812 638 815 q 667 802 657 808 q 683 792 676 796 q 700 778 690 788 q 714 766 710 769 q 729 752 718 763 q 743 740 740 742 q 783 711 764 715 q 796 708 786 708 q 813 700 806 707 q 837 654 821 693 q 853 590 853 615 q 847 535 853 564 q 826 507 840 507 q 788 562 803 507 q 765 631 772 617 q 682 750 726 713 q 600 788 642 788 q 564 781 582 788 q 475 606 475 743 q 492 501 475 561 q 543 394 508 440 q 617 381 550 386 q 657 356 651 376 q 640 325 663 336 q 544 333 628 310 q 515 340 522 339 q 346 307 440 339 q 172 209 251 275 q 93 64 93 143 q 142 -33 93 4 q 298 -69 190 -69 q 538 -36 406 -69 q 747 36 671 -3 q 896 146 822 75 q 969 268 969 217 q 969 282 969 276 q 971 289 968 288 q 985 288 979 293 q 1003 233 1003 253 q 965 131 1003 176 q 824 9 900 51 q 631 -62 749 -33 q 410 -100 513 -92 q 314 -171 382 -126 q 211 -246 246 -215 z "},"":{"ha":443,"x_min":-157,"x_max":536,"o":"m 376 404 q 451 332 451 404 q 431 271 451 294 q 318 181 396 219 q 186 139 240 143 q 165 150 167 138 q 169 157 164 156 q 176 158 174 158 q 258 189 208 161 q 394 292 351 239 q 413 340 413 317 q 390 363 413 363 q 342 347 372 363 q 204 241 276 317 q 110 93 132 165 q 103 49 103 71 q 121 8 103 28 q 176 -11 139 -11 q 272 11 218 -11 q 514 204 429 75 q 529 208 522 215 q 535 201 535 206 q 531 192 535 197 q 426 68 489 122 q 299 -12 363 14 q 185 -37 236 -37 q 154 -36 169 -37 l 154 -37 q 76 -95 133 -58 q -16 -165 19 -132 q -81 -244 -51 -199 q -110 -311 -110 -290 q -101 -344 -110 -332 q -25 -322 -76 -361 q 61 -255 22 -289 q 112 -211 100 -221 q 128 -209 124 -201 q 125 -224 132 -217 q 106 -247 118 -232 q 83 -276 94 -262 q 53 -308 72 -289 q 15 -339 33 -326 q -72 -371 -31 -371 q -134 -340 -112 -371 q -156 -287 -156 -310 q -67 -157 -156 -218 q 42 -86 -28 -131 q 118 -37 113 -42 q 131 -32 124 -32 q 42 28 65 -18 q 31 81 31 49 q 47 158 31 113 q 196 321 82 238 q 376 404 310 404 z "},"":{"ha":729,"x_min":33,"x_max":1004,"o":"m 783 711 q 796 708 786 708 q 813 700 806 707 q 837 654 821 693 q 853 590 853 615 q 847 535 853 564 q 826 507 840 507 q 788 562 803 507 q 765 631 772 617 q 682 750 726 713 q 600 788 642 788 q 564 781 582 788 q 475 606 475 743 q 492 501 475 561 q 543 394 508 440 q 617 381 550 386 q 657 356 651 376 q 640 325 663 336 q 544 333 628 310 q 515 340 522 339 q 346 307 440 339 q 172 209 251 275 q 93 64 93 143 q 142 -33 93 4 q 298 -69 190 -69 q 538 -36 406 -69 q 747 36 671 -3 q 896 146 822 75 q 969 268 969 217 q 969 282 969 276 q 971 289 968 288 q 985 288 979 293 q 1003 233 1003 253 q 965 131 1003 176 q 818 6 900 51 q 594 -72 736 -40 q 357 -104 451 -104 q 197 -87 263 -104 q 82 -21 131 -71 q 33 102 33 29 q 69 226 33 175 q 153 304 104 276 q 272 350 203 332 q 501 385 375 378 q 394 622 411 488 q 393 651 393 638 q 417 744 393 701 q 499 804 442 786 q 583 822 556 822 q 624 819 611 822 q 647 812 638 815 q 667 802 657 808 q 683 792 676 796 q 700 778 690 788 q 714 766 710 769 q 729 752 718 763 q 743 740 740 742 q 783 711 764 715 m 579 1007 q 574 1026 574 1017 q 580 1035 574 1035 q 592 1030 586 1035 q 626 1001 597 1025 q 678 958 654 978 q 710 929 703 938 q 775 976 735 944 q 838 1023 815 1008 q 861 1026 860 1038 q 846 1000 861 1014 q 803 963 838 994 q 693 879 713 879 q 579 1007 661 890 z "},"":{"ha":443,"x_min":28,"x_max":593,"o":"m 376 404 q 451 332 451 404 q 431 271 451 294 q 318 181 396 219 q 186 139 240 143 q 165 150 167 138 q 169 157 164 156 q 176 158 174 158 q 258 189 208 161 q 394 292 351 239 q 413 340 413 317 q 390 363 413 363 q 342 347 372 363 q 204 241 276 317 q 110 93 132 165 q 103 49 103 71 q 121 8 103 28 q 176 -11 139 -11 q 272 11 218 -11 q 514 204 429 75 q 529 208 522 215 q 531 192 540 204 q 425 68 489 122 q 185 -37 301 -37 q 44 22 85 -37 q 29 79 29 46 q 47 158 29 113 q 196 321 82 238 q 376 404 310 404 m 424 506 q 370 555 406 513 q 319 621 335 597 q 304 653 304 644 q 310 663 304 663 q 324 656 317 663 q 382 607 332 649 q 440 556 432 565 q 506 603 465 571 q 569 651 547 636 q 592 652 592 665 q 581 631 592 639 q 533 589 569 622 q 424 506 443 506 z "},"":{"ha":863,"x_min":103,"x_max":1125,"o":"m 468 -4 q 382 -12 425 -12 q 160 78 242 -12 q 103 240 103 142 q 294 629 103 453 q 815 819 508 819 q 967 786 903 819 q 1018 703 1018 758 q 1004 676 1018 679 q 985 697 986 672 q 843 789 979 789 q 692 759 782 789 q 507 674 603 729 q 328 551 411 618 q 191 399 244 483 q 138 229 138 314 q 197 99 138 144 q 342 54 256 54 q 561 88 436 54 q 693 147 631 108 q 789 214 756 185 q 915 331 851 267 q 1025 429 949 415 q 1094 429 1057 435 l 1111 426 q 1124 419 1124 424 q 1106 407 1124 406 q 1103 407 1104 407 q 979 267 1028 407 q 908 65 942 154 q 1006 82 982 82 q 1039 76 1029 82 q 1042 64 1049 71 q 1030 60 1036 57 q 1008 63 1024 63 q 945 51 992 63 q 890 17 899 39 q 554 -472 751 -335 q 396 -533 465 -533 q 346 -525 369 -533 q 282 -431 282 -501 q 369 -246 282 -346 q 832 44 539 -50 q 899 263 868 154 q 468 -4 650 28 m 357 -411 q 361 -442 357 -426 q 431 -496 375 -496 q 603 -386 513 -496 q 822 18 738 -218 q 438 -239 579 -61 q 357 -411 357 -337 m 876 1031 q 931 980 894 1024 q 980 914 967 936 q 993 883 993 892 q 988 874 993 874 q 974 881 982 874 q 917 931 967 889 q 860 982 867 974 q 794 933 835 967 q 730 885 753 900 q 707 883 707 871 q 716 903 707 896 q 764 944 725 910 q 876 1031 853 1028 z "},"":{"ha":578,"x_min":-81,"x_max":686,"o":"m 18 -529 q -10 -525 7 -529 q -81 -451 -81 -507 q -8 -310 -81 -394 q 300 -69 65 -225 q 439 254 400 135 q 328 124 361 160 q 126 -15 203 -15 q 78 -2 104 -15 q 35 35 53 11 q 17 88 17 60 q 119 253 17 161 q 247 347 181 308 q 353 396 314 386 q 428 406 392 406 q 492 386 464 406 q 519 347 519 367 q 508 340 519 336 q 441 367 493 367 q 323 333 389 367 q 204 252 257 299 q 115 147 151 206 q 78 60 78 88 q 106 11 78 11 q 225 75 144 11 q 454 301 344 168 q 529 300 472 328 q 547 281 551 289 q 481 141 529 240 q 410 -8 433 42 q 519 76 442 8 q 654 211 596 143 q 685 222 685 247 q 518 39 685 188 q 382 -69 422 -47 q 224 -375 264 -312 q 18 -529 119 -529 m 274 -122 q 35 -320 107 -247 q -37 -457 -37 -393 q -25 -485 -37 -476 q 1 -493 -12 -493 q 42 -472 15 -493 q 87 -431 68 -451 q 119 -394 106 -411 q 151 -349 133 -376 q 178 -307 168 -322 q 205 -259 188 -292 q 228 -215 222 -226 q 252 -167 235 -203 q 274 -122 269 -131 m 576 496 q 582 477 582 486 q 576 468 582 468 q 563 476 571 468 q 504 526 554 483 q 447 575 454 568 q 383 528 424 561 q 319 481 343 496 q 296 477 296 465 q 306 498 296 489 q 353 539 317 507 q 465 624 446 624 q 576 496 500 611 z "},"":{"ha":863,"x_min":103,"x_max":1125,"o":"m 468 -4 q 382 -12 425 -12 q 160 78 242 -12 q 103 240 103 142 q 294 629 103 453 q 815 819 508 819 q 967 786 903 819 q 1018 703 1018 758 q 1004 676 1018 679 q 985 697 986 672 q 843 789 979 789 q 692 759 782 789 q 507 674 603 729 q 328 551 411 618 q 191 399 244 483 q 138 229 138 314 q 197 99 138 144 q 342 54 256 54 q 561 88 436 54 q 693 147 631 108 q 789 214 756 185 q 915 331 851 267 q 1025 429 949 415 q 1094 429 1057 435 l 1111 426 q 1124 419 1124 424 q 1106 407 1124 406 q 1103 407 1104 407 q 979 267 1028 407 q 908 65 942 154 q 1006 82 982 82 q 1039 76 1029 82 q 1042 64 1049 71 q 1030 60 1036 57 q 1008 63 1024 63 q 945 51 992 63 q 890 17 899 39 q 554 -472 751 -335 q 396 -533 465 -533 q 346 -525 369 -533 q 282 -431 282 -501 q 369 -246 282 -346 q 832 44 539 -50 q 899 263 868 154 q 468 -4 650 28 m 357 -411 q 361 -442 357 -426 q 431 -496 375 -496 q 603 -386 513 -496 q 822 18 738 -218 q 438 -239 579 -61 q 357 -411 357 -337 m 928 910 q 834 885 875 885 q 761 897 793 885 q 692 1010 692 928 q 707 1068 692 1061 q 733 1068 722 1075 q 743 1044 743 1061 q 800 939 743 971 q 861 922 829 922 q 931 940 893 922 q 1033 1069 1003 975 q 1038 1076 1035 1076 q 1046 1072 1040 1076 q 1051 1056 1051 1067 q 928 910 1028 957 z "},"":{"ha":578,"x_min":-81,"x_max":696,"o":"m 18 -529 q -10 -525 7 -529 q -81 -451 -81 -507 q -8 -310 -81 -394 q 300 -69 65 -225 q 439 254 400 135 q 328 124 361 160 q 126 -15 203 -15 q 78 -2 104 -15 q 35 35 53 11 q 17 88 17 60 q 119 253 17 161 q 247 347 181 308 q 353 396 314 386 q 428 406 392 406 q 492 386 464 406 q 519 347 519 367 q 508 340 519 336 q 441 367 493 367 q 323 333 389 367 q 204 252 257 299 q 115 147 151 206 q 78 60 78 88 q 106 11 78 11 q 225 75 144 11 q 454 301 344 168 q 529 300 472 328 q 547 281 551 289 q 481 141 529 240 q 410 -8 433 42 q 519 76 442 8 q 654 211 596 143 q 685 222 685 247 q 518 39 685 188 q 382 -69 422 -47 q 224 -375 264 -312 q 18 -529 119 -529 m 274 -122 q 35 -320 107 -247 q -37 -457 -37 -393 q -25 -485 -37 -476 q 1 -493 -12 -493 q 42 -472 15 -493 q 87 -431 68 -451 q 119 -394 106 -411 q 151 -349 133 -376 q 178 -307 168 -322 q 205 -259 188 -292 q 228 -215 222 -226 q 252 -167 235 -203 q 274 -122 269 -131 m 571 518 q 476 493 518 493 q 403 508 435 493 q 336 619 336 539 q 351 678 336 671 q 377 677 367 685 q 388 654 388 669 q 444 549 388 581 q 506 532 474 532 q 575 550 538 532 q 676 679 646 585 q 683 683 679 683 q 688 681 686 683 q 696 665 696 678 q 571 518 672 567 z "},"":{"ha":863,"x_min":103,"x_max":1125,"o":"m 468 -4 q 382 -12 425 -12 q 160 78 242 -12 q 103 240 103 142 q 294 629 103 453 q 815 819 508 819 q 967 786 903 819 q 1018 703 1018 758 q 1004 676 1018 679 q 985 697 986 672 q 843 789 979 789 q 692 759 782 789 q 507 674 603 729 q 328 551 411 618 q 191 399 244 483 q 138 229 138 314 q 197 99 138 144 q 342 54 256 54 q 561 88 436 54 q 693 147 631 108 q 789 214 756 185 q 915 331 851 267 q 1025 429 949 415 q 1094 429 1057 435 l 1111 426 q 1124 419 1124 424 q 1106 407 1124 406 q 1103 407 1104 407 q 979 267 1028 407 q 908 65 942 154 q 1006 82 982 82 q 1039 76 1029 82 q 1042 64 1049 71 q 1030 60 1036 57 q 1008 63 1024 63 q 945 51 992 63 q 890 17 899 39 q 554 -472 751 -335 q 396 -533 465 -533 q 346 -525 369 -533 q 282 -431 282 -501 q 369 -246 282 -346 q 832 44 539 -50 q 899 263 868 154 q 468 -4 650 28 m 357 -411 q 361 -442 357 -426 q 431 -496 375 -496 q 603 -386 513 -496 q 822 18 738 -218 q 438 -239 579 -61 q 357 -411 357 -337 m 921 981 l 919 961 q 901 919 919 947 q 871 892 882 892 q 811 922 811 892 q 846 960 811 932 q 890 995 881 989 q 906 1001 900 1001 l 914 1001 q 921 981 921 1001 z "},"":{"ha":578,"x_min":-81,"x_max":686,"o":"m 18 -529 q -10 -525 7 -529 q -81 -451 -81 -507 q -8 -310 -81 -394 q 300 -69 65 -225 q 439 254 400 135 q 328 124 361 160 q 126 -15 203 -15 q 78 -2 104 -15 q 35 35 53 11 q 17 88 17 60 q 119 253 17 161 q 247 347 181 308 q 353 396 314 386 q 428 406 392 406 q 492 386 464 406 q 519 347 519 367 q 508 340 519 336 q 441 367 493 367 q 323 333 389 367 q 204 252 257 299 q 115 147 151 206 q 78 60 78 88 q 106 11 78 11 q 225 75 144 11 q 454 301 344 168 q 529 300 472 328 q 547 281 551 289 q 481 141 529 240 q 410 -8 433 42 q 519 76 442 8 q 654 211 596 143 q 685 222 685 247 q 518 39 685 188 q 382 -69 422 -47 q 224 -375 264 -312 q 18 -529 119 -529 m 274 -122 q 35 -320 107 -247 q -37 -457 -37 -393 q -25 -485 -37 -476 q 1 -493 -12 -493 q 42 -472 15 -493 q 87 -431 68 -451 q 119 -394 106 -411 q 151 -349 133 -376 q 178 -307 168 -322 q 205 -259 188 -292 q 228 -215 222 -226 q 252 -167 235 -203 q 274 -122 269 -131 m 529 590 q 536 582 536 590 l 536 556 q 522 525 536 547 q 499 503 507 503 q 451 526 451 503 q 479 558 451 536 q 529 590 519 590 z "},"":{"ha":863,"x_min":103,"x_max":1125,"o":"m 468 -4 q 382 -12 425 -12 q 160 78 242 -12 q 103 240 103 142 q 294 629 103 453 q 815 819 508 819 q 967 786 903 819 q 1018 703 1018 758 q 1004 676 1018 679 q 985 697 986 672 q 843 789 979 789 q 692 759 782 789 q 507 674 603 729 q 328 551 411 618 q 191 399 244 483 q 138 229 138 314 q 197 99 138 144 q 342 54 256 54 q 561 88 436 54 q 693 147 631 108 q 789 214 756 185 q 915 331 851 267 q 1025 429 949 415 q 1094 429 1057 435 l 1111 426 q 1124 419 1124 424 q 1106 407 1124 406 q 1103 407 1104 407 q 979 267 1028 407 q 908 65 942 154 q 1006 82 982 82 q 1039 76 1029 82 q 1042 64 1049 71 q 1030 60 1036 57 q 1008 63 1024 63 q 945 51 992 63 q 890 17 899 39 q 554 -472 751 -335 q 396 -533 465 -533 q 346 -525 369 -533 q 282 -431 282 -501 q 369 -246 282 -346 q 832 44 539 -50 q 899 263 868 154 q 468 -4 650 28 m 357 -411 q 361 -442 357 -426 q 431 -496 375 -496 q 603 -386 513 -496 q 822 18 738 -218 q 438 -239 579 -61 q 357 -411 357 -337 m 279 -78 q 292 -78 279 -78 q 315 -93 304 -78 q 325 -127 325 -108 q 267 -222 325 -146 q 176 -317 208 -297 q 166 -321 171 -321 q 161 -312 161 -321 q 193 -271 161 -303 q 254 -122 279 -164 q 249 -92 244 -107 q 279 -78 254 -78 z "},"":{"ha":578,"x_min":-81,"x_max":686,"o":"m 472 500 q 460 500 472 500 q 437 516 447 500 q 426 551 426 532 q 488 646 426 571 q 583 743 563 743 q 590 735 590 743 q 558 693 590 728 q 497 546 472 588 q 502 515 507 529 q 472 500 497 500 m 18 -529 q -10 -525 7 -529 q -81 -451 -81 -507 q -8 -310 -81 -394 q 300 -69 65 -225 q 439 254 400 135 q 328 124 361 160 q 126 -15 203 -15 q 78 -2 104 -15 q 35 35 53 11 q 17 88 17 60 q 119 253 17 161 q 247 347 181 308 q 353 396 314 386 q 428 406 392 406 q 492 386 464 406 q 519 347 519 367 q 508 340 519 336 q 441 367 493 367 q 323 333 389 367 q 204 252 257 299 q 115 147 151 206 q 78 60 78 88 q 106 11 78 11 q 225 75 144 11 q 454 301 344 168 q 529 300 472 328 q 547 281 551 289 q 481 141 529 240 q 410 -8 433 42 q 519 76 442 8 q 654 211 596 143 q 685 222 685 247 q 518 39 685 188 q 382 -69 422 -47 q 224 -375 264 -312 q 18 -529 119 -529 m 274 -122 q 35 -320 107 -247 q -37 -457 -37 -393 q -25 -485 -37 -476 q 1 -493 -12 -493 q 42 -472 15 -493 q 87 -431 68 -451 q 119 -394 106 -411 q 151 -349 133 -376 q 178 -307 168 -322 q 205 -259 188 -292 q 228 -215 222 -226 q 252 -167 235 -203 q 274 -122 269 -131 z "},"":{"ha":735,"x_min":-128,"x_max":1199,"o":"m 819 304 l 475 350 q 65 -190 264 -129 q 1 -203 29 -203 q -126 -115 -103 -203 q -128 -103 -128 -110 q -126 -88 -128 -97 q -117 -82 -124 -79 q -103 -108 -110 -85 q -50 -160 -90 -149 q 3 -165 -19 -165 q 43 -160 26 -165 q 422 357 246 -96 l 349 361 q 313 363 329 363 q 96 249 136 363 q 89 219 89 233 q 97 192 89 206 q 92 174 106 178 q 71 183 79 171 q 56 235 56 211 q 87 360 56 319 q 160 414 118 401 q 271 428 210 428 l 356 419 q 440 407 400 415 q 521 646 474 496 q 340 569 447 581 q 326 579 326 568 q 342 593 325 590 q 465 654 401 599 q 561 785 528 710 q 607 801 564 801 q 649 785 650 801 q 587 624 640 764 q 494 396 533 485 q 600 372 531 389 q 829 331 742 340 q 930 549 910 501 q 950 610 950 597 q 946 629 950 622 q 1006 731 950 668 q 1113 794 1063 794 q 1166 778 1135 794 q 1197 738 1197 763 q 1190 736 1197 732 q 1181 740 1183 740 q 1100 691 1146 740 q 1010 564 1054 642 q 889 325 942 443 q 1049 375 1008 325 q 1063 378 1056 388 q 1058 352 1069 369 q 1006 318 1046 335 q 878 301 965 301 q 813 60 813 147 q 852 -8 813 -8 q 970 53 892 -8 q 1118 207 1049 114 q 1131 209 1122 213 q 1135 197 1139 206 q 1114 161 1132 188 q 971 14 1056 82 q 835 -35 908 -35 q 777 -12 797 -35 q 755 29 757 10 q 753 65 753 49 q 758 117 753 82 q 819 304 772 206 m 1019 871 q 1025 852 1025 861 q 1019 843 1025 843 q 1006 850 1014 843 q 949 899 999 857 q 890 950 899 942 q 825 903 867 935 q 738 853 738 832 q 753 878 738 865 q 794 915 760 883 q 908 999 888 999 q 1019 871 943 985 z "},"":{"ha":633,"x_min":47,"x_max":726,"o":"m 532 813 q 575 822 557 822 q 656 789 636 822 q 667 760 667 772 q 508 522 667 665 q 250 310 368 399 q 169 94 211 222 q 296 236 219 156 q 511 396 450 396 q 543 365 542 396 q 530 304 546 333 q 500 250 514 275 q 435 57 435 142 q 446 17 435 29 q 501 14 465 -6 q 602 92 538 33 q 707 206 667 150 q 720 209 714 213 q 726 202 726 206 q 724 194 726 199 q 649 99 703 157 q 561 17 594 42 q 439 -32 497 -32 q 368 21 386 -32 q 364 51 364 33 q 367 88 364 68 q 440 269 374 146 q 454 305 454 294 q 443 315 454 315 q 357 260 421 315 q 230 108 314 219 q 135 -11 146 -4 q 73 -36 85 -36 q 60 -33 61 -36 q 61 -24 58 -29 q 83 38 64 -18 q 172 282 149 222 q 58 150 126 224 q 47 155 47 139 q 60 188 47 171 q 112 252 72 204 q 168 324 151 300 q 155 343 156 331 q 163 360 154 356 q 193 357 172 365 q 218 400 207 376 q 532 813 383 756 m 610 708 q 628 765 628 742 q 608 788 628 788 q 554 763 588 788 q 278 372 401 646 q 467 528 368 431 q 610 708 565 625 m 582 989 q 635 938 599 982 q 685 872 671 894 q 699 841 699 850 q 693 832 699 832 q 679 840 688 832 q 622 889 671 847 q 564 940 572 931 q 500 892 540 925 q 411 842 411 821 q 422 863 411 854 q 469 904 432 871 q 582 989 560 986 z "},"":{"ha":735,"x_min":-128,"x_max":1199,"o":"m 599 657 l 947 658 l 954 658 q 1024 750 976 706 q 1113 794 1071 794 q 1166 778 1135 794 q 1197 738 1197 763 q 1190 736 1197 732 q 1181 740 1183 740 q 1068 651 1133 740 q 1114 639 1111 647 q 1044 621 1114 626 q 889 325 969 510 q 1049 375 1008 325 q 1063 378 1056 388 q 1058 352 1069 369 q 1006 318 1046 335 q 878 301 965 301 q 813 60 813 147 q 852 -8 813 -8 q 970 53 892 -8 q 1118 207 1049 114 q 1131 209 1122 213 q 1135 197 1139 206 q 1114 161 1132 188 q 971 14 1056 82 q 835 -35 908 -35 q 777 -12 797 -35 q 755 29 757 10 q 753 65 753 49 q 758 117 753 82 q 819 304 772 206 l 475 350 q 65 -190 264 -129 q 1 -203 29 -203 q -126 -115 -103 -203 q -128 -103 -128 -110 q -126 -88 -128 -97 q -117 -82 -124 -79 q -103 -108 -110 -85 q -50 -160 -90 -149 q 3 -165 -19 -165 q 43 -160 26 -165 q 422 357 246 -96 l 349 361 q 313 363 329 363 q 96 249 136 363 q 89 219 89 233 q 97 192 89 206 q 92 174 106 178 q 71 183 79 171 q 56 235 56 211 q 87 360 56 319 q 160 414 118 401 q 271 428 210 428 l 356 419 q 440 407 400 415 q 506 600 463 467 l 450 600 q 340 569 403 578 q 326 579 326 568 q 349 592 325 590 q 404 614 372 594 q 419 633 403 622 q 460 650 436 643 q 561 785 525 707 q 607 801 564 801 q 649 785 650 801 l 599 657 m 829 331 q 950 614 950 586 l 578 601 q 494 396 533 483 q 600 372 531 389 q 829 331 742 340 z "},"":{"ha":633,"x_min":47,"x_max":726,"o":"m 581 822 q 656 789 636 822 q 667 760 667 772 q 508 522 667 665 q 250 310 368 399 q 169 94 211 222 q 296 236 219 156 q 511 396 450 396 q 543 365 542 396 q 530 304 546 333 q 500 250 514 275 q 435 57 435 142 q 446 17 435 29 q 501 14 465 -6 q 602 92 538 33 q 707 206 667 150 q 720 209 714 213 q 726 202 726 206 q 724 194 726 199 q 649 99 703 157 q 561 17 594 42 q 439 -32 497 -32 q 368 21 386 -32 q 364 51 364 33 q 367 88 364 68 q 440 269 374 146 q 454 305 454 294 q 443 315 454 315 q 357 260 421 315 q 230 108 314 219 q 135 -11 146 -4 q 73 -36 85 -36 q 60 -33 61 -36 q 61 -24 58 -29 q 83 38 64 -18 q 172 282 149 222 q 58 150 126 224 q 47 155 47 139 q 60 188 47 171 q 112 252 72 204 q 168 324 151 300 q 155 343 156 331 q 163 360 154 356 q 193 357 172 365 q 219 404 207 378 q 267 500 251 474 q 161 496 189 497 q 135 513 133 494 q 165 543 138 532 l 179 547 q 293 549 244 547 q 581 822 451 822 m 610 708 q 628 765 628 742 q 608 788 628 788 q 554 763 588 788 q 368 549 450 685 l 385 549 q 461 532 458 549 q 399 511 461 515 q 378 508 389 510 q 343 506 367 506 q 278 372 310 446 q 467 528 368 431 q 610 708 565 625 z "},"":{"ha":433,"x_min":11,"x_max":844,"o":"m 272 567 q 284 528 272 544 q 306 504 296 511 q 356 476 325 492 q 363 461 372 464 q 353 463 358 461 q 282 503 319 469 q 243 579 244 536 q 239 606 239 594 q 289 710 239 665 q 585 789 382 789 q 589 803 585 794 q 610 817 590 813 q 649 817 631 821 q 665 803 667 814 q 658 785 660 792 q 807 749 747 779 q 835 725 826 739 q 844 706 844 711 q 794 710 844 693 q 639 728 743 728 q 591 581 632 699 q 539 434 550 463 q 508 355 528 406 q 474 272 489 304 q 439 200 458 240 q 360 72 406 132 q 307 18 325 32 q 399 18 331 18 q 518 22 467 18 q 574 21 569 25 q 575 11 579 17 q 553 -10 567 -3 q 349 -24 539 -18 q 111 -29 158 -29 q 43 -29 64 -29 q 11 -4 11 -28 q 19 31 11 8 q 58 59 29 53 q 108 47 86 65 q 182 17 146 17 q 256 31 218 17 q 333 94 294 44 q 569 726 446 244 q 357 674 442 715 q 272 567 272 633 m 815 975 q 829 979 818 979 q 840 972 840 979 q 785 900 840 940 q 742 883 761 883 q 712 888 724 883 q 673 903 700 892 q 635 919 646 915 q 557 928 574 938 q 488 879 513 917 q 476 876 485 876 q 467 883 467 876 q 481 903 467 883 q 512 944 494 924 q 553 976 529 964 q 593 989 578 989 q 619 985 608 989 q 671 960 631 981 q 765 929 731 929 q 815 975 800 929 z "},"":{"ha":314,"x_min":15,"x_max":439,"o":"m 329 99 q 231 8 275 40 q 113 -32 176 -32 q 79 -21 100 -32 q 46 46 46 -1 q 90 192 46 93 q 36 122 83 176 q 17 122 24 108 q 15 130 15 125 q 21 142 15 135 q 128 285 89 226 q 131 303 125 292 q 179 385 158 381 q 189 385 183 385 q 231 363 224 385 q 227 338 233 350 q 218 319 221 326 q 214 308 215 313 q 200 282 207 294 q 117 81 121 124 q 115 49 115 68 q 126 17 115 29 q 182 14 146 -6 q 283 92 218 33 q 388 206 347 150 q 401 208 393 213 q 329 99 422 199 m 85 514 q 73 511 82 511 q 64 518 64 511 q 77 539 64 519 q 108 579 90 558 q 151 613 126 600 q 190 625 175 625 q 216 621 206 625 q 267 596 226 617 q 356 564 331 564 q 413 610 396 564 q 428 615 418 619 q 438 608 438 611 q 381 536 438 578 q 339 519 357 519 q 308 524 321 519 q 270 539 296 528 q 232 554 244 550 q 154 563 174 574 q 85 514 108 551 z "},"":{"ha":433,"x_min":11,"x_max":844,"o":"m 272 567 q 284 528 272 544 q 306 504 296 511 q 356 476 325 492 q 363 461 372 464 q 353 463 358 461 q 282 503 319 469 q 243 579 244 536 q 239 606 239 594 q 289 710 239 665 q 585 789 382 789 q 589 803 585 794 q 610 817 590 813 q 649 817 631 821 q 665 803 667 814 q 658 785 660 792 q 807 749 747 779 q 835 725 826 739 q 844 706 844 711 q 794 710 844 693 q 639 728 743 728 q 591 581 632 699 q 539 434 550 463 q 508 355 528 406 q 474 272 489 304 q 439 200 458 240 q 360 72 406 132 q 307 18 325 32 q 399 18 331 18 q 518 22 467 18 q 574 21 569 25 q 575 11 579 17 q 553 -10 567 -3 q 349 -24 539 -18 q 111 -29 158 -29 q 43 -29 64 -29 q 11 -4 11 -28 q 19 31 11 8 q 58 59 29 53 q 108 47 86 65 q 182 17 146 17 q 256 31 218 17 q 333 94 294 44 q 569 726 446 244 q 357 674 442 715 q 272 567 272 633 m 540 951 l 746 954 q 822 936 819 954 q 806 922 822 926 q 528 901 717 906 q 522 901 525 901 q 496 915 496 901 q 526 949 496 935 l 540 951 z "},"":{"ha":314,"x_min":15,"x_max":422,"o":"m 329 99 q 231 8 275 40 q 113 -32 176 -32 q 79 -21 100 -32 q 46 46 46 -1 q 90 192 46 93 q 36 122 83 176 q 17 122 24 108 q 15 130 15 125 q 21 142 15 135 q 128 285 89 226 q 131 303 125 292 q 179 385 158 381 q 189 385 183 385 q 231 363 224 385 q 227 338 233 350 q 218 319 221 326 q 214 308 215 313 q 200 282 207 294 q 117 81 121 124 q 115 49 115 68 q 126 17 115 29 q 182 14 146 -6 q 283 92 218 33 q 388 206 347 150 q 401 208 393 213 q 329 99 422 199 m 139 563 l 346 565 q 422 547 417 565 q 406 533 422 538 q 126 513 317 517 q 121 513 124 513 q 94 526 94 513 q 125 560 94 546 q 139 563 133 563 z "},"":{"ha":433,"x_min":11,"x_max":844,"o":"m 272 567 q 284 528 272 544 q 306 504 296 511 q 356 476 325 492 q 363 461 372 464 q 353 463 358 461 q 282 503 319 469 q 243 579 244 536 q 239 606 239 594 q 289 710 239 665 q 585 789 382 789 q 589 803 585 794 q 610 817 590 813 q 649 817 631 821 q 665 803 667 814 q 658 785 660 792 q 807 749 747 779 q 835 725 826 739 q 844 706 844 711 q 794 710 844 693 q 639 728 743 728 q 591 581 632 699 q 539 434 550 463 q 508 355 528 406 q 474 272 489 304 q 439 200 458 240 q 360 72 406 132 q 307 18 325 32 q 399 18 331 18 q 518 22 467 18 q 574 21 569 25 q 575 11 579 17 q 553 -10 567 -3 q 349 -24 539 -18 q 111 -29 158 -29 q 43 -29 64 -29 q 11 -4 11 -28 q 19 31 11 8 q 58 59 29 53 q 108 47 86 65 q 182 17 146 17 q 256 31 218 17 q 333 94 294 44 q 569 726 446 244 q 357 674 442 715 q 272 567 272 633 m 603 869 q 508 844 549 844 q 435 858 467 844 q 367 969 367 889 q 382 1028 367 1021 q 408 1028 397 1035 q 418 1006 418 1021 q 475 900 418 932 q 537 883 504 883 q 606 901 569 883 q 708 1031 678 936 q 712 1036 710 1036 q 721 1031 714 1036 q 728 1017 728 1026 q 603 869 703 917 z "},"":{"ha":314,"x_min":15,"x_max":451,"o":"m 329 99 q 231 8 275 40 q 113 -32 176 -32 q 79 -21 100 -32 q 46 46 46 -1 q 90 192 46 93 q 36 122 83 176 q 17 122 24 108 q 15 130 15 125 q 21 142 15 135 q 128 285 89 226 q 131 303 125 292 q 179 385 158 381 q 189 385 183 385 q 231 363 224 385 q 227 338 233 350 q 218 319 221 326 q 214 308 215 313 q 200 282 207 294 q 117 81 121 124 q 115 49 115 68 q 126 17 115 29 q 182 14 146 -6 q 283 92 218 33 q 388 206 347 150 q 401 208 393 213 q 329 99 422 199 m 326 524 q 232 499 274 499 q 158 514 190 499 q 90 625 90 544 q 106 682 90 675 q 131 682 121 689 q 142 660 142 675 q 200 554 142 586 q 260 538 228 538 q 331 556 293 538 q 432 685 401 590 q 436 689 433 689 q 445 686 439 689 q 451 671 451 683 q 326 524 428 571 z "},"":{"ha":433,"x_min":-86,"x_max":844,"o":"m 51 -29 q 11 -4 11 -28 q 19 31 11 8 q 58 59 29 53 q 108 47 86 65 q 182 17 146 17 q 256 31 218 17 q 333 94 294 44 q 569 726 446 244 q 357 674 442 715 q 272 567 272 633 q 284 528 272 544 q 306 504 296 511 q 356 476 325 492 q 363 461 372 464 q 353 463 358 461 q 282 503 319 469 q 243 579 244 536 q 239 606 239 594 q 289 710 239 665 q 585 789 382 789 q 589 803 585 794 q 632 819 592 819 q 665 803 667 819 q 658 785 660 792 q 807 749 747 779 q 835 725 826 739 q 844 706 844 711 q 794 710 844 693 q 639 728 743 728 q 591 581 632 699 q 539 434 550 463 q 508 355 528 406 q 474 272 489 304 q 439 200 458 240 q 360 72 406 132 q 307 18 325 32 q 399 18 331 18 q 518 22 467 18 q 574 21 569 25 q 575 11 579 17 q 551 -11 567 -3 q 272 -25 536 -19 q 191 -81 253 -40 q 96 -153 129 -121 q 10 -255 47 -196 q -26 -340 -26 -314 q -15 -382 -26 -367 q 35 -381 3 -400 q 88 -347 67 -362 q 135 -311 110 -332 q 181 -274 161 -290 q 238 -224 229 -231 q 265 -214 258 -204 q 256 -240 271 -224 l 239 -261 q 128 -375 175 -342 q 20 -414 72 -414 q -67 -368 -32 -414 q -86 -312 -86 -340 q -72 -258 -86 -285 q 28 -148 -44 -199 q 215 -28 101 -97 q 51 -29 139 -29 z "},"":{"ha":314,"x_min":-186,"x_max":407,"o":"m 86 -24 q 46 43 46 -7 q 90 192 46 93 q 36 122 83 176 q 18 120 24 108 q 21 142 13 132 q 128 285 89 226 q 131 303 125 292 q 179 385 158 381 q 189 385 183 385 q 231 363 224 385 q 227 338 233 350 q 218 319 221 326 q 214 308 215 313 q 200 282 207 294 q 117 81 121 124 q 115 49 115 68 q 126 17 115 29 q 182 14 146 -6 q 283 92 218 33 q 388 206 347 150 q 400 209 393 213 q 407 202 407 206 q 404 194 407 199 q 329 99 383 157 q 226 5 275 40 q 125 -31 176 -31 q 117 -31 121 -31 q 44 -83 99 -49 q -46 -151 -11 -118 q -110 -231 -81 -185 q -139 -297 -139 -276 q -131 -331 -139 -318 q -53 -308 -106 -347 q 32 -241 -7 -275 q 82 -197 71 -207 q 98 -195 93 -187 q 96 -210 103 -203 q 73 -238 89 -218 q 41 -276 57 -258 q 3 -314 25 -293 q -94 -357 -47 -357 q -171 -319 -140 -357 q -186 -274 -186 -297 q -96 -143 -186 -204 q 7 -75 -60 -118 q 86 -24 74 -32 m 299 569 l 288 525 q 269 485 288 513 q 242 457 251 457 q 182 486 182 457 q 242 538 182 492 l 265 556 q 293 575 288 575 q 299 569 299 575 z "},"":{"ha":433,"x_min":11,"x_max":844,"o":"m 272 567 q 284 528 272 544 q 306 504 296 511 q 356 476 325 492 q 363 461 372 464 q 353 463 358 461 q 282 503 319 469 q 243 579 244 536 q 239 606 239 594 q 289 710 239 665 q 585 789 382 789 q 589 803 585 794 q 610 817 590 813 q 649 817 631 821 q 665 803 667 814 q 658 785 660 792 q 807 749 747 779 q 835 725 826 739 q 844 706 844 711 q 794 710 844 693 q 639 728 743 728 q 591 581 632 699 q 539 434 550 463 q 508 355 528 406 q 474 272 489 304 q 439 200 458 240 q 360 72 406 132 q 307 18 325 32 q 399 18 331 18 q 518 22 467 18 q 574 21 569 25 q 575 11 579 17 q 553 -10 567 -3 q 349 -24 539 -18 q 111 -29 158 -29 q 43 -29 64 -29 q 11 -4 11 -28 q 19 31 11 8 q 58 59 29 53 q 108 47 86 65 q 182 17 146 17 q 256 31 218 17 q 333 94 294 44 q 569 726 446 244 q 357 674 442 715 q 272 567 272 633 m 750 1022 l 750 993 q 729 948 750 979 q 696 917 708 917 q 628 951 628 917 q 656 981 628 956 q 694 1015 683 1007 q 738 1039 726 1039 q 750 1022 750 1039 z "}}}
